<svg width="600" height="600" viewBox="0 0 600 600" fill="none" xmlns="http://www.w3.org/2000/svg">
<g clip-path="url(#clip0)">
<path d="M515.449 77.1561C496.558 81.4784 471.047 104.964 458.755 129.346C458.755 129.346 437.073 172.367 411.543 222.169C378.022 287.507 452.408 256.173 452.408 256.173C477.596 245.564 504.739 215.539 512.779 189.445L535.166 116.752C543.206 90.6367 534.34 72.8237 515.449 77.1561Z" fill="#231F20"/>
<path d="M541.735 15.6367H58.255C46.9569 15.6554 36.1271 20.1532 28.14 28.1441C20.1529 36.135 15.6602 46.9669 15.6469 58.265V541.735C15.6602 553.036 20.1556 563.871 28.1471 571.863C36.1386 579.854 46.9735 584.35 58.2751 584.363H541.735C553.037 584.35 563.872 579.854 571.863 571.863C579.854 563.871 584.35 553.036 584.363 541.735V58.265C584.35 46.9634 579.854 36.1284 571.863 28.137C563.872 20.1455 553.037 15.6501 541.735 15.6367ZM561.805 541.735C561.792 547.051 559.672 552.145 555.91 555.901C552.148 559.657 547.051 561.769 541.735 561.775H389.881L453.607 354.98C461.818 328.332 450.141 320.019 427.663 336.523C427.663 336.523 366.295 381.559 282.258 440.711L260.032 456.337C241.695 467.118 242.209 492.658 261.18 513.091L306.368 561.775H58.255C52.9338 561.769 47.832 559.653 44.0694 555.89C40.3067 552.128 38.1905 547.026 38.1851 541.705V354.154C78.5524 328.308 117.484 300.284 154.806 270.207L225.937 209.232C225.937 209.232 358.084 77.9822 268.454 230.813C178.825 383.645 71.6953 552.495 272.807 422.152C473.193 292.272 537 228.375 537 228.375C537 228.375 319.778 364.391 376.542 253.724C433.305 143.058 520.96 10.8006 375.332 86.3547C253.704 149.456 163.561 272.273 38.1851 321.904V267.709C57.5598 280.373 84.5312 280.343 103.402 266.167L216.547 184.215C237.705 166.08 232.839 156.357 205.656 162.564L38.1851 200.85V58.265C38.2037 52.9469 40.3238 47.8518 44.0834 44.0904C47.8429 40.329 52.9369 38.2063 58.255 38.1851H541.735C547.053 38.2063 552.147 40.329 555.907 44.0904C559.666 47.8518 561.786 52.9469 561.805 58.265V541.735Z" fill="#231F20"/>
<path d="M583.648 16.342C578.479 11.1438 572.331 7.02277 565.558 4.2176C558.786 1.41243 551.524 -0.0211186 544.193 -1.44738e-05H55.7966C48.4685 -1.45932e-05 41.2121 1.44354 34.4418 4.24821C27.6716 7.05289 21.5202 11.1637 16.3389 16.346C11.1576 21.5283 7.04782 27.6804 4.24437 34.4511C1.44092 41.2219 -0.00132234 48.4785 9.09729e-07 55.8067V544.193C-0.00132234 551.521 1.44092 558.778 4.24437 565.549C7.04782 572.32 11.1576 578.472 16.3389 583.654C21.5202 588.836 27.6716 592.947 34.4418 595.752C41.2121 598.556 48.4685 600 55.7966 600H544.193C551.523 600.003 558.782 598.561 565.554 595.758C572.327 592.954 578.481 588.844 583.664 583.661C588.848 578.479 592.959 572.325 595.764 565.553C598.568 558.781 600.011 551.523 600.01 544.193V55.8067C600.03 48.4731 598.594 41.2085 595.785 34.4341C592.976 27.6597 588.851 21.5102 583.648 16.342ZM597.078 544.193C597.07 558.213 591.495 571.656 581.577 581.565C571.66 591.475 558.213 597.041 544.193 597.038H55.7966C41.7777 597.038 28.3323 591.472 18.4156 581.562C8.49892 571.653 2.92243 558.212 2.91174 544.193V55.8067C2.91441 41.7806 8.48673 28.3297 18.4037 18.4108C28.3207 8.49195 41.7706 2.91707 55.7966 2.91173H544.193C551.139 2.91173 558.017 4.27997 564.434 6.93831C570.851 9.59665 576.681 13.493 581.592 18.4049C586.503 23.3168 590.398 29.148 593.055 35.5654C595.713 41.9829 597.08 48.8609 597.078 55.8067V544.193Z" fill="#231F20"/>
</g>
<defs>
<clipPath id="clip0">
<rect width="600" height="600" fill="white"/>
</clipPath>
</defs>
</svg>
