<svg width="600" height="600" viewBox="0 0 600 600" fill="none" xmlns="http://www.w3.org/2000/svg">
<path d="M582.45 17.89C577.533 12.9738 571.694 9.07657 565.267 6.42188C558.841 3.76719 551.953 2.40723 545 2.42H55.5C48.537 2.40947 41.6403 3.77316 35.2053 6.43293C28.7703 9.0927 22.9235 12.9962 17.9998 17.9198C13.0762 22.8435 9.1727 28.6903 6.51293 35.1253C3.85316 41.5603 2.48947 48.457 2.5 55.42V544.91C2.5 558.966 8.08391 572.447 18.0233 582.387C27.9628 592.326 41.4435 597.91 55.5 597.91H545C559.056 597.91 572.537 592.326 582.477 582.387C592.416 572.447 598 558.966 598 544.91V55.39C598.005 48.4233 596.634 41.5243 593.965 35.089C591.297 28.6537 587.384 22.8088 582.45 17.89ZM585.21 542.41C585.199 553.737 580.695 564.597 572.686 572.606C564.677 580.615 553.817 585.119 542.49 585.13H57.94C46.6132 585.119 35.7534 580.615 27.7441 572.606C19.7348 564.597 15.2306 553.737 15.22 542.41V57.86C15.2306 46.5332 19.7348 35.6734 27.7441 27.6641C35.7534 19.6548 46.6132 15.1506 57.94 15.14H542.49C553.817 15.1506 564.677 19.6548 572.686 27.6641C580.695 35.6734 585.199 46.5332 585.21 57.86V542.41Z" fill="#1D526C"/>
<path d="M542.52 37.77H57.92C52.5953 37.7727 47.4894 39.8891 43.7242 43.6542C39.9591 47.4194 37.8426 52.5253 37.84 57.85V200.78L205.65 162.39C232.92 156.21 237.78 165.93 216.57 184.11L103.19 266.25C84.31 280.45 57.19 280.45 37.84 267.76V322.12C108.49 294.15 168 243 228.25 192.26C235.89 185.82 243.53 179.38 251.25 173.06C290.71 140.36 331.11 109.17 375.74 86.06C521.74 10.36 433.82 142.87 376.94 253.8C320.69 363.52 532.94 231.38 537.68 228.48C536.29 229.87 504.22 261.48 417.54 324.12C380.16 351.12 332.62 383.97 272.97 422.61C71.43 553.18 178.75 384 268.59 230.83C328.25 129.06 289.86 152.92 257.35 180.45C240.94 194.34 226 209.17 226 209.17L154.7 270.29C117.287 300.419 78.2767 328.51 37.84 354.44V542.38C37.84 547.711 39.9536 552.825 43.7176 556.6C47.4817 560.375 52.5889 562.504 57.92 562.52H306.6L261.33 513.72C242.33 493.27 241.76 467.63 260.13 456.84L282.42 441.18C366.63 381.9 428.18 336.76 428.18 336.76C429.18 336.07 430.18 335.37 431.09 334.76C451.73 321 462 329.69 454.2 355.26L390.31 562.52H542.52C547.849 562.502 552.954 560.371 556.716 556.596C560.478 552.821 562.59 547.709 562.59 542.38V57.85C562.587 52.527 560.472 47.4226 556.709 43.6578C552.946 39.8929 547.843 37.7753 542.52 37.77ZM535.91 116.46L513.47 189.32C505.41 215.47 478.18 245.56 452.97 256.19C452.97 256.19 378.41 287.6 411.97 222.11C437.55 172.2 459.29 129.11 459.29 129.11C471.61 104.67 497.18 81.11 516.11 76.81C535.04 72.51 544 90.31 535.91 116.46Z" fill="#1D526C"/>
</svg>
