<svg width="600" height="600" viewBox="0 0 600 600" fill="none" xmlns="http://www.w3.org/2000/svg">
<g clip-path="url(#clip0)">
<path d="M584.343 15.5864C579.389 10.6332 573.506 6.70668 567.031 4.03201C560.556 1.35735 553.617 -0.0128352 546.611 2.87089e-05H53.4287C46.4133 -0.0105846 39.4648 1.36337 32.9814 4.04315C26.4979 6.72292 20.6071 10.6558 15.6465 15.6165C10.6858 20.5771 6.7529 26.468 4.07312 32.9514C1.39334 39.4348 0.0193871 46.3833 0.0300005 53.3987V546.571C0.0300005 560.733 5.65592 574.315 15.6701 584.33C25.6843 594.344 39.2665 599.97 53.4287 599.97H546.611C560.773 599.97 574.356 594.344 584.37 584.33C594.384 574.315 600.01 560.733 600.01 546.571V53.3685C600.015 46.3494 598.633 39.3985 595.945 32.9148C593.256 26.431 589.314 20.5422 584.343 15.5864ZM587.124 544.052C587.113 555.464 582.575 566.406 574.505 574.475C566.436 582.545 555.494 587.083 544.082 587.094H55.8871C44.4751 587.083 33.5335 582.545 25.464 574.475C17.3945 566.406 12.8564 555.464 12.8457 544.052V55.8571C12.8564 44.4451 17.3945 33.5035 25.464 25.434C33.5335 17.3645 44.4751 12.8264 55.8871 12.8157H544.082C555.494 12.8264 566.436 17.3645 574.505 25.434C582.575 33.5035 587.113 44.4451 587.124 55.8571V544.052Z" fill="white"/>
<path d="M544.113 35.6159H55.8671C50.5023 35.6186 45.3581 37.7509 41.5646 41.5444C37.7711 45.3379 35.6388 50.4822 35.6361 55.847V199.852L204.708 161.173C232.184 154.947 237.08 164.74 215.711 183.057L101.478 265.815C82.4557 280.122 55.1316 280.122 35.6361 267.336V322.105C106.818 293.925 166.775 242.39 227.479 191.268C235.176 184.78 242.873 178.291 250.652 171.924C290.408 138.978 331.112 107.553 376.078 84.2692C523.176 7.99971 434.595 141.507 377.287 253.271C320.614 363.816 534.461 230.682 539.236 227.761C537.836 229.161 505.525 261.009 418.193 324.12C380.531 351.323 332.634 384.42 272.535 423.351C69.4788 554.903 177.606 384.451 268.122 230.128C328.231 127.593 289.552 151.632 256.797 179.369C240.264 193.364 225.212 208.305 225.212 208.305L153.375 269.885C115.68 300.241 76.377 328.543 35.6361 354.668V544.022C35.6361 549.393 37.7656 554.545 41.5579 558.349C45.3503 562.153 50.496 564.297 55.8671 564.313H306.418L260.807 515.146C241.664 494.543 241.09 468.71 259.598 457.839L282.056 442.061C366.9 382.335 428.913 336.855 428.913 336.855C429.92 336.16 430.928 335.455 431.844 334.84C452.64 320.977 462.987 329.732 455.128 355.494L390.758 564.313H544.113C549.482 564.295 554.625 562.149 558.415 558.345C562.205 554.542 564.334 549.391 564.334 544.022V55.847C564.331 50.4839 562.2 45.3411 558.409 41.548C554.617 37.7548 549.476 35.6212 544.113 35.6159ZM537.453 114.898L514.844 188.306C506.724 214.653 479.289 244.969 453.889 255.679C453.889 255.679 378.768 287.325 412.581 221.343C438.353 171.057 460.257 127.643 460.257 127.643C472.669 103.019 498.432 79.2819 517.504 74.9496C536.576 70.6172 545.604 88.5512 537.453 114.898Z" fill="white"/>
</g>
<defs>
<clipPath id="clip0">
<rect width="600" height="599.929" fill="white"/>
</clipPath>
</defs>
</svg>
