<svg viewBox="0 0 2223 600" fill="none" xmlns="http://www.w3.org/2000/svg">
<path d="M984.167 415.822L942.855 416.511H848.478L808.478 415.822L771.989 529.156C764.167 530.956 753.826 531.856 740.967 531.856C728.645 531.917 716.372 530.318 704.478 527.1L702.4 523.711L858.122 65.1667C867.752 63.3667 881.752 62.463 900.122 62.4556C918.478 62.4556 932.289 63.3667 941.467 65.1667L1095.79 523.667C1086.16 529.993 1073.76 533.159 1058.58 533.167C1043.4 533.174 1032.61 530.459 1026.2 525.022C1019.76 519.593 1014.26 509.652 1009.68 495.2L984.167 415.822ZM827.122 357.5L862.244 356.822H931.133C949.955 357.281 961.437 357.507 965.578 357.5L933.9 259.156C917.811 208.511 905.637 167.589 897.378 136.389H893.922C888.426 161.263 879.47 194.044 867.055 234.733L827.122 357.5Z" fill="#1D526C"/>
<path d="M1117.13 503.333C1117.58 495.652 1120.09 486.952 1124.67 477.233C1129.24 467.515 1134.51 459.919 1140.46 454.445C1177.06 474.363 1206.8 484.315 1229.68 484.3C1253.01 484.3 1270.28 480.456 1281.48 472.767C1292.68 465.078 1298.29 454.904 1298.31 442.244C1298.31 422.356 1283.9 406.985 1255.08 396.133L1216.67 381.911C1158.58 360.2 1129.54 327.87 1129.54 284.922C1129.54 253.722 1140.91 229.193 1163.64 211.333C1186.38 193.474 1216.11 184.544 1252.86 184.544C1290.03 184.544 1327 192.693 1363.77 208.989C1363.61 218.773 1361.62 228.441 1357.9 237.489C1354.01 247.43 1348.84 255.111 1342.4 260.533C1309.81 245.622 1279.27 238.163 1250.78 238.156C1235.62 238.156 1223.57 241.774 1214.62 249.011C1205.67 256.248 1201.19 265.289 1201.18 276.133C1201.18 286.985 1204.51 295.352 1211.18 301.233C1217.84 307.115 1228.75 313 1243.89 318.889L1285.21 334.444C1343.54 356.6 1372.71 390.515 1372.71 436.189C1372.71 467.374 1360.54 492.015 1336.19 510.111C1311.84 528.207 1278.78 537.245 1237 537.222C1195.2 537.222 1155.24 525.926 1117.13 503.333Z" fill="#1D526C"/>
<path d="M1405.09 503.333C1405.53 495.652 1408.04 486.952 1412.62 477.233C1417.2 467.515 1422.46 459.919 1428.41 454.444C1465 474.363 1494.74 484.315 1517.62 484.3C1540.97 484.3 1558.24 480.456 1569.43 472.767C1580.63 465.078 1586.23 454.904 1586.24 442.244C1586.24 422.356 1571.83 406.985 1543.01 396.133L1504.61 381.878C1446.51 360.167 1417.46 327.837 1417.48 284.889C1417.48 253.689 1428.84 229.159 1451.58 211.3C1474.31 193.441 1504.04 184.511 1540.78 184.511C1577.98 184.511 1614.95 192.659 1651.69 208.956C1651.55 218.74 1649.56 228.41 1645.82 237.456C1641.92 247.396 1636.76 255.078 1630.33 260.5C1597.74 245.589 1567.2 238.13 1538.72 238.122C1523.57 238.122 1511.51 241.741 1502.56 248.978C1493.6 256.215 1489.12 265.256 1489.12 276.1C1489.12 286.952 1492.46 295.319 1499.12 301.2C1505.79 307.081 1516.69 312.978 1531.82 318.889L1573.17 334.444C1631.48 356.6 1660.64 390.515 1660.64 436.189C1660.64 467.374 1648.48 492.015 1624.14 510.111C1599.81 528.207 1566.74 537.244 1524.93 537.222C1483.13 537.222 1443.18 525.926 1405.09 503.333Z" fill="#1D526C"/>
<path d="M1977.51 383.333H1774.99C1776.37 414.518 1783.14 438.478 1795.32 455.211C1807.5 471.944 1828.05 480.311 1856.98 480.311C1871.99 480.148 1886.92 478.098 1901.42 474.211C1918.56 469.609 1935.08 462.973 1950.64 454.444C1962.15 464.815 1969.73 479.741 1973.38 499.222C1936.63 524.555 1893.46 537.211 1843.88 537.189C1817.7 537.189 1795.66 532.67 1777.74 523.633C1760.31 515.008 1745.28 502.192 1734.01 486.333C1722.74 470.511 1714.6 451.622 1709.57 429.667C1704.36 406.404 1701.82 382.626 1701.98 358.789C1701.79 335.271 1705.05 311.852 1711.64 289.278C1718.07 267.796 1727.24 249.37 1739.18 234C1751.05 218.688 1766.25 206.278 1783.62 197.711C1801.29 188.889 1821.15 184.481 1843.21 184.489C1865.27 184.496 1884.9 188.115 1902.1 195.344C1918.68 202.15 1933.6 212.455 1945.83 225.556C1958.02 238.856 1967.29 254.564 1973.03 271.667C1979.38 290.339 1982.52 309.947 1982.34 329.667C1982.34 338.711 1982 347.644 1981.32 356.467C1980.59 365.49 1979.32 374.462 1977.51 383.333ZM1845.29 236.822C1801.64 236.822 1778.22 268.704 1775.02 332.467H1914.19V323.633C1914.19 297.863 1908.56 276.952 1897.31 260.9C1886.06 244.848 1868.71 236.804 1845.26 236.767L1845.29 236.822Z" fill="#1D526C"/>
<path d="M2209.68 192.678C2212.09 201.284 2213.25 210.195 2213.11 219.133C2213.11 229.074 2211.97 237.663 2209.68 244.9L2124.94 243.544V445.767C2124.94 465.596 2134.36 475.519 2153.18 475.533H2200.72C2204.35 485.31 2206.23 495.649 2206.28 506.078C2206.28 516.367 2205.79 523.133 2204.89 526.333C2179.28 529.468 2153.52 531.074 2127.72 531.144C2079.5 531.144 2055.39 507.859 2055.4 461.289V244.233L2004.42 244.9C2002.51 236.563 2001.58 228.031 2001.66 219.478C2001.63 210.472 2002.56 201.489 2004.42 192.678L2055.4 194.033V134.344C2055.4 118.048 2058.15 106.519 2063.66 99.7556C2069.16 92.9926 2079.03 89.6 2093.28 89.5778H2120.14L2124.98 94.3333V194.711L2209.68 192.678Z" fill="#1D526C"/>
<path d="M497.089 88.5667C479.178 92.6667 455 114.922 443.333 138.044C443.333 138.044 422.778 178.822 398.578 226.044C366.8 287.978 437.322 258.267 437.322 258.267C461.166 248.267 486.922 219.756 494.544 195.022L515.778 126.133C523.411 101.367 515 84.4445 497.089 88.5667Z" fill="#1D526C"/>
<path d="M522.011 30.2667H63.6777C52.9636 30.2784 42.6917 34.5398 35.1157 42.1158C27.5397 49.6918 23.2784 59.9637 23.2666 70.6778V529C23.2784 539.714 27.5397 549.986 35.1157 557.562C42.6917 565.138 52.9636 569.399 63.6777 569.411H522.011C532.724 569.399 542.995 565.138 550.569 557.561C558.143 549.985 562.402 539.713 562.411 529V70.6778C562.402 59.9647 558.143 49.6928 550.569 42.1165C542.995 34.5402 532.724 30.2784 522.011 30.2667ZM541.033 529C541.03 534.045 539.026 538.883 535.459 542.451C531.893 546.02 527.056 548.027 522.011 548.033H378.055L438.467 351.989C446.244 326.722 435.133 318.856 413.867 334.489C413.867 334.489 355.689 377.189 276.022 433.256L254.911 448.078C237.522 458.3 238.011 482.522 256.022 501.878L298.889 548.033H63.6777C58.6316 548.027 53.7938 546.02 50.2256 542.452C46.6574 538.884 44.6503 534.046 44.6444 529V351.222C82.9137 326.723 119.82 300.158 155.2 271.644L222.633 213.867C222.633 213.867 347.911 89.4222 262.944 234.322C177.978 379.222 76.411 539.2 267.067 415.633C457.067 292.522 517.522 231.933 517.522 231.933C517.522 231.933 311.589 360.911 365.411 255.978C419.233 151.044 502.311 25.6778 364.244 97.3111C248.955 157.122 163.511 273.556 44.6444 320.644V269.233C63.011 281.233 88.6222 281.2 106.478 267.767L213.733 190.078C233.822 172.9 229.178 163.678 203.411 169.556L44.6444 205.844V70.6778C44.6503 65.6316 46.6574 60.7938 50.2256 57.2257C53.7938 53.6575 58.6316 51.6503 63.6777 51.6444H522.011C527.056 51.6503 531.893 53.6579 535.459 57.2263C539.026 60.7948 541.03 65.6327 541.033 70.6778V529Z" fill="#1D526C"/>
<path d="M561.744 30.9333C556.842 26.0066 551.011 22.1009 544.59 19.4423C538.168 16.7837 531.283 15.4248 524.333 15.4445H61.3443C47.3144 15.4445 33.8591 21.0178 23.9384 30.9385C14.0177 40.8592 8.44434 54.3145 8.44434 68.3444V531.333C8.44434 545.363 14.0177 558.819 23.9384 568.739C33.8591 578.66 47.3144 584.233 61.3443 584.233H524.333C531.281 584.236 538.161 582.87 544.581 580.212C551 577.555 556.833 573.659 561.746 568.746C566.658 563.833 570.555 558 573.212 551.581C575.87 545.161 577.236 538.281 577.233 531.333V68.3444C577.252 61.3944 575.893 54.5096 573.234 48.0881C570.576 41.6666 566.671 35.836 561.744 30.9333ZM574.444 531.333C574.447 537.918 573.152 544.438 570.634 550.522C568.116 556.606 564.423 562.134 559.767 566.789C555.111 571.445 549.583 575.138 543.5 577.656C537.416 580.175 530.895 581.47 524.311 581.467H61.3443C54.7607 581.467 48.2416 580.17 42.1591 577.65C36.0767 575.131 30.55 571.438 25.8947 566.783C16.4929 557.381 11.211 544.629 11.211 531.333V68.3444C11.211 55.0483 16.4929 42.2967 25.8947 32.8948C35.2965 23.493 48.0481 18.2111 61.3443 18.2111H524.333C530.916 18.2111 537.434 19.508 543.515 22.0277C549.596 24.5474 555.121 28.2406 559.775 32.8962C564.428 37.5518 568.119 43.0786 570.636 49.1609C573.153 55.2433 574.447 61.7619 574.444 68.3444V531.333Z" fill="#1D526C"/>
</svg>
