<svg viewBox="0 0 5000 600" fill="none" xmlns="http://www.w3.org/2000/svg">
<path d="M2335.75 33.2501H2321.65V587.575H2335.75V33.2501Z" fill="#231F20"/>
<path d="M3414.3 476.9C3396.8 476.9 3393.57 465.875 3393.57 446.5C3393.57 427.125 3396.92 416.3 3414.3 416.3C3431.67 416.3 3435.25 427.15 3435.25 446.5C3435.25 465.85 3431.7 476.9 3414.3 476.9Z" fill="#231F20"/>
<path d="M3933.27 476.9C3915.77 476.9 3912.55 465.875 3912.55 446.5C3912.55 427.125 3915.9 416.3 3933.27 416.3C3950.65 416.3 3954.2 427.15 3954.2 446.5C3954.2 465.85 3950.65 476.9 3933.27 476.9Z" fill="#231F20"/>
<path d="M2533.37 273.375V135.65H2585.87C2601.35 135.65 2610.87 140.1 2618.17 147.075C2627.27 155.775 2630.17 172.6 2630.17 204.575C2630.17 236.55 2627.27 253.325 2618.17 262.075C2610.82 269.05 2601.35 273.5 2585.87 273.5L2533.37 273.375ZM2549.42 259.65H2586.57C2596.42 259.65 2602.62 256.75 2606.87 252.15C2612.3 246.15 2613.65 238.8 2613.65 204.65C2613.65 170.5 2612.3 163.075 2606.87 157.15C2602.62 152.525 2596.42 149.65 2586.57 149.65H2549.42V259.65Z" fill="#231F20"/>
<path d="M2659.75 273.375V176.85H2674.45V191.85C2680.08 184.5 2690.32 175.6 2704.62 175.6C2707.75 175.596 2710.87 175.915 2713.92 176.55L2711.6 191.55C2708.58 190.426 2705.34 189.965 2702.12 190.2C2690.9 190.2 2680.45 198.325 2674.45 206.825V273.175L2659.75 273.375Z" fill="#231F20"/>
<path d="M2735.28 154.025V140.5L2749.98 138V154.05L2735.28 154.025ZM2735.28 273.375V176.85H2750V273.375H2735.28Z" fill="#231F20"/>
<path d="M2806.3 273.375L2770.5 176.85H2786.75L2815.57 258.275L2845.17 176.85H2861.62L2825.25 273.375H2806.3Z" fill="#231F20"/>
<path d="M2882.32 154.025V140.5L2897.02 138V154.05L2882.32 154.025ZM2882.32 273.375V176.85H2897.02V273.375H2882.32Z" fill="#231F20"/>
<path d="M2926.55 273.375V176.85H2941.25V186.15C2949.5 179.565 2959.7 175.891 2970.25 175.7C2982.25 175.7 3003.53 181.1 3003.53 209.725V273.375H2988.83V209.725C2988.83 197.925 2982.63 188.475 2967.55 188.475C2956.15 188.475 2946.85 195.05 2941.25 200.25V273.375H2926.55Z" fill="#231F20"/>
<path d="M3069.67 311.1C3055.55 311.1 3045.87 307.625 3039.67 302.4C3035.7 298.985 3032.32 294.929 3029.67 290.4L3043.02 283.825C3044.97 288.475 3049.22 298.325 3069.52 298.325C3093.9 298.325 3094.52 283.625 3094.52 274.15V265.65C3086.52 269.557 3077.71 271.543 3068.8 271.45C3057.97 271.45 3048.3 268.35 3041.72 262.15C3031.72 252.875 3029.22 241.075 3029.22 223.65C3029.22 206.225 3031.72 195.05 3038.7 187.3C3042.07 183.522 3046.22 180.526 3050.87 178.522C3055.51 176.518 3060.54 175.555 3065.6 175.7C3078.1 175.7 3089.17 181.3 3094.6 187.3V176.85H3109.3V274.725C3109.32 297.75 3096.75 311.1 3069.67 311.1ZM3094.67 214.575C3094.67 205.875 3092.92 199.575 3087.17 194.575C3082.01 190.488 3075.59 188.307 3069 188.4C3059.32 188.4 3054 191.675 3049.85 196.325C3045.02 202.125 3044.42 212.575 3044.42 223.575C3044.42 234.575 3045.02 245.45 3050.25 251.25C3053.92 255.5 3060.25 258.6 3069 258.6C3077.97 258.616 3086.8 256.427 3094.72 252.225L3094.67 214.575Z" fill="#231F20"/>
<path d="M3209.13 238.75L3197.72 273.375H3180L3226.8 135.65H3246.35L3290.25 273.375H3272.5L3261.68 238.75H3209.13ZM3257.3 225L3236.03 156.325L3213.53 225H3257.3Z" fill="#231F20"/>
<path d="M3342.5 274.525C3337.41 274.635 3332.37 273.619 3327.72 271.549C3323.07 269.478 3318.94 266.405 3315.63 262.55C3308.65 254.6 3306.12 243 3306.12 225.05C3306.12 207.1 3308.62 194.675 3318.62 185.2C3325.17 178.8 3334.88 175.725 3345.7 175.725C3354.61 175.623 3363.42 177.609 3371.42 181.525V131.525L3386.12 129.025V273.525H3371.42V262.5C3367.64 266.322 3363.14 269.354 3358.17 271.418C3353.2 273.483 3347.88 274.539 3342.5 274.525ZM3345.8 188.475C3337.07 188.475 3330.8 191.55 3327.03 195.975C3321.8 201.975 3321.23 213.475 3321.23 225C3321.23 236.525 3321.8 247.5 3326.65 253.625C3330.7 258.45 3336.12 261.75 3345.8 261.75C3352.43 261.865 3358.88 259.594 3363.98 255.35C3369.78 250.35 3371.48 243.575 3371.48 234.475V195C3363.59 190.634 3354.71 188.386 3345.7 188.475H3345.8Z" fill="#231F20"/>
<path d="M3442.65 273.375L3406.85 176.85H3423.1L3451.93 258.275L3481.53 176.85H3497.95L3461.6 273.375H3442.65Z" fill="#231F20"/>
<path d="M3518.7 154.025V140.5L3533.4 138V154.05L3518.7 154.025ZM3518.7 273.375V176.85H3533.4V273.375H3518.7Z" fill="#231F20"/>
<path d="M3595.3 274.525C3566.67 274.525 3561.45 261.2 3557.95 250.35L3572.07 244.55C3573.25 256.55 3578.07 261.775 3595.3 261.775C3613.27 261.775 3616.75 254.6 3616.75 246.775C3616.75 234.025 3607.1 234.6 3584.45 229.575C3570.72 226.475 3559.45 223 3559.45 202.675C3559.45 188.95 3568.15 175.8 3595.42 175.8C3621.92 175.8 3630.05 186.425 3631.2 199.2L3617.27 205.4C3619.4 189.925 3606.05 188.575 3595.42 188.575C3580.42 188.575 3574.32 193.575 3574.32 202.675C3574.32 215.175 3585.92 214.475 3605.85 218.925C3617.85 221.65 3631.77 224.35 3631.77 244.075C3631.65 262.15 3620.82 274.525 3595.3 274.525Z" fill="#231F20"/>
<path d="M3695 274.525C3660.97 274.525 3654.2 256.75 3654.2 225.025C3654.2 193.3 3661.15 175.7 3695 175.7C3728.85 175.7 3735.82 193.2 3735.82 225.025C3735.82 256.85 3729.02 274.525 3695 274.525ZM3695 188.475C3669.85 188.475 3669.27 202.575 3669.27 225.025C3669.27 247.475 3669.67 261.775 3695 261.775C3720 261.775 3720.75 247.65 3720.75 225.025C3720.72 200.45 3718.4 188.475 3695 188.475Z" fill="#231F20"/>
<path d="M3762.68 273.375V176.85H3777.5V191.85C3783.1 184.5 3793.38 175.6 3807.68 175.6C3810.8 175.596 3813.92 175.915 3816.98 176.55L3814.65 191.55C3811.63 190.426 3808.39 189.965 3805.18 190.2C3793.95 190.2 3783.5 198.325 3777.5 206.825V273.175L3762.68 273.375Z" fill="#231F20"/>
<path d="M3889.38 273.375V135.65H3938.3C3964.8 135.65 3977.95 152.675 3977.95 177.825C3977.95 203.35 3960.45 219.975 3936.95 219.975H3905.43V273.375H3889.38ZM3905.43 206.25H3936.38C3947.6 206.25 3961.38 199.875 3961.38 177.825C3961.38 155.775 3947.65 149.375 3936.38 149.375H3905.43V206.25Z" fill="#231F20"/>
<path d="M4013.25 230C4013.25 248.775 4014.8 261.725 4038.97 261.725C4057.35 261.725 4062.57 254.225 4064.12 242.375L4077.85 247.8C4073.97 265 4063.72 274.475 4038.97 274.475C4004.92 274.475 3998.15 256.7 3998.15 224.975C3998.15 193.25 4005.12 175.65 4038.97 175.65C4072.82 175.65 4079.77 193.15 4079.77 224.975V229.975L4013.25 230ZM4038.97 188.425C4015.95 188.425 4013.45 200.2 4013.25 217.625H4064.7C4064.5 200.25 4062 188.475 4038.97 188.475V188.425Z" fill="#231F20"/>
<path d="M4105.95 273.375V176.85H4120.65V191.85C4126.25 184.5 4136.52 175.6 4150.82 175.6C4153.94 175.595 4157.05 175.913 4160.1 176.55L4157.77 191.55C4154.76 190.42 4151.53 189.959 4148.32 190.2C4137.1 190.2 4126.65 198.325 4120.65 206.825V273.175L4105.95 273.375Z" fill="#231F20"/>
<path d="M4235.65 145C4231.1 142.299 4225.94 140.826 4220.65 140.725C4214.67 140.725 4208.15 143.45 4208.15 154.475V176.975H4231.72V189.475H4208.15V273.625H4193.42V189.225H4178.15V176.725H4193.42V154.225C4193.42 137.775 4202.32 127.725 4219.15 127.725C4226.29 127.671 4233.36 129.19 4239.85 132.175L4235.65 145Z" fill="#231F20"/>
<path d="M4291.33 274.525C4257.28 274.525 4250.5 256.75 4250.5 225.025C4250.5 193.3 4257.48 175.7 4291.33 175.7C4325.18 175.7 4332.12 193.2 4332.12 225.025C4332.12 256.85 4325.35 274.525 4291.33 274.525ZM4291.33 188.475C4266.18 188.475 4265.6 202.575 4265.6 225.025C4265.6 247.475 4265.98 261.775 4291.33 261.775C4316.33 261.775 4317.05 247.65 4317.05 225.025C4317.05 200.45 4314.73 188.475 4291.33 188.475Z" fill="#231F20"/>
<path d="M4359 273.375V176.85H4373.7V191.85C4379.33 184.5 4389.58 175.6 4403.88 175.6C4407 175.596 4410.12 175.915 4413.18 176.55L4410.85 191.55C4407.83 190.426 4404.59 189.965 4401.38 190.2C4390.15 190.2 4379.7 198.325 4373.7 206.825V273.175L4359 273.375Z" fill="#231F20"/>
<path d="M4434.55 273.375V176.85H4449.25V186.15C4457.51 179.561 4467.71 175.887 4478.28 175.7C4486.8 175.7 4499.95 178.4 4506.9 190.2C4515.79 181.157 4527.87 175.953 4540.55 175.7C4552.55 175.7 4573.83 181.1 4573.83 209.725V273.375H4559.13V209.725C4559.13 197.925 4552.93 188.475 4537.85 188.475C4525.85 188.475 4516.38 195.8 4510.78 200.975C4511.35 203.838 4511.61 206.755 4511.55 209.675V273.325H4496.85V209.725C4496.85 197.925 4490.65 188.475 4475.58 188.475C4464.15 188.475 4454.88 195.05 4449.25 200.25V273.375H4434.55Z" fill="#231F20"/>
<path d="M4628.53 274.525C4610.73 274.525 4597.78 262.35 4597.78 243.775C4597.78 229.275 4608.4 213.775 4633.75 213.775C4641.49 213.826 4649.21 214.732 4656.75 216.475V205.475C4656.75 200.475 4656 195.8 4652.13 192.725C4649.03 190.225 4644 188.475 4635.68 188.475C4622.53 188.475 4618.18 191.175 4614.8 195.425C4613.23 197.374 4612.04 199.606 4611.3 202L4599.7 193.5C4602.6 188.075 4610.53 175.7 4635.68 175.7C4665.28 175.7 4671.48 188.65 4671.48 203.75V273.375H4656.75V263.375C4648.05 270.675 4640.53 274.525 4628.53 274.525ZM4636.85 226.575C4622.53 226.575 4612.85 230.625 4612.85 244.55C4612.85 258.875 4624.48 261.775 4633.35 261.775C4642.65 261.775 4656.75 255.975 4656.75 240.1V229.475C4650.27 227.665 4643.58 226.691 4636.85 226.575Z" fill="#231F20"/>
<path d="M4700.4 273.375V176.85H4715V186.15C4723.25 179.565 4733.45 175.891 4744 175.7C4756 175.7 4777.28 181.1 4777.28 209.725V273.375H4762.58V209.725C4762.58 197.925 4756.4 188.475 4741.3 188.475C4729.9 188.475 4720.6 195.05 4715 200.25V273.375H4700.4Z" fill="#231F20"/>
<path d="M4844.17 274.525C4810.12 274.525 4803.35 256.75 4803.35 225.025C4803.35 193.3 4810.32 175.7 4844.17 175.7C4868.92 175.7 4879.17 185.175 4883.05 202.4L4869.32 207.8C4867.77 196 4862.55 188.475 4844.17 188.475C4819.02 188.475 4818.45 201.625 4818.45 225.025C4818.45 248.425 4819.22 261.775 4844.17 261.775C4862.55 261.775 4867.77 254.275 4869.32 242.425L4883.05 247.85C4879.2 265 4868.92 274.525 4844.17 274.525Z" fill="#231F20"/>
<path d="M4920.15 230C4920.15 248.775 4921.7 261.725 4945.88 261.725C4964.25 261.725 4969.48 254.225 4971.03 242.375L4984.75 247.8C4980.88 265 4970.63 274.475 4945.88 274.475C4911.83 274.475 4905.08 256.7 4905.08 224.975C4905.08 193.25 4912.03 175.65 4945.88 175.65C4979.73 175.65 4986.68 193.15 4986.68 224.975V229.975L4920.15 230ZM4945.88 188.425C4922.85 188.425 4920.35 200.2 4920.15 217.625H4971.6C4971.4 200.25 4968.9 188.475 4945.88 188.475V188.425Z" fill="#231F20"/>
<path d="M2549.63 470.875L2538.2 505.475H2520.4L2567.23 367.775H2586.75L2630.68 505.475H2612.88L2602.05 470.875H2549.63ZM2597.78 457.125L2576.5 388.475L2554 457.125H2597.78Z" fill="#231F20"/>
<path d="M2651.83 505.475V408.975H2666.53V418.25C2674.79 411.671 2684.99 407.999 2695.55 407.8C2707.53 407.8 2728.83 413.225 2728.83 441.85V505.475H2714.1V441.85C2714.1 430.05 2707.93 420.575 2692.83 420.575C2681.43 420.575 2672.15 427.15 2666.53 432.375V505.475H2651.83Z" fill="#231F20"/>
<path d="M2756.92 505.475V408.975H2771.62V418.25C2779.89 411.671 2790.09 407.999 2800.65 407.8C2812.65 407.8 2833.92 413.225 2833.92 441.85V505.475H2819.22V441.85C2819.22 430.05 2813.02 420.575 2797.92 420.575C2786.52 420.575 2777.25 427.15 2771.62 432.375V505.475H2756.92Z" fill="#231F20"/>
<path d="M2894.18 506.65C2882.2 506.65 2860.9 501.225 2860.9 472.6V408.975H2875.63V472.5C2875.63 484.3 2881.8 493.775 2896.9 493.775C2908.3 493.775 2917.6 487.2 2923.2 481.975V408.975H2937.9V505.475H2923.2V496.2C2914.94 502.779 2904.74 506.452 2894.18 506.65Z" fill="#231F20"/>
<path d="M2966.83 386.15V372.5L2981.53 370V386.05L2966.83 386.15ZM2966.83 505.475V408.975H2981.53V505.475H2966.83Z" fill="#231F20"/>
<path d="M3040 506.65C3031.5 506.65 3017 503.175 3017 483.625V421.35H3003.05V408.975H3017V377.825L3031.7 375.325V409H3057.8V421.375H3031.7V483.25C3031.66 484.683 3031.92 486.108 3032.47 487.432C3033.02 488.756 3033.84 489.951 3034.88 490.937C3035.92 491.923 3037.16 492.678 3038.51 493.154C3039.86 493.63 3041.3 493.816 3042.72 493.7C3048.45 493.541 3054.04 491.942 3058.97 489.05L3062.82 501.425C3055.71 504.885 3047.91 506.672 3040 506.65Z" fill="#231F20"/>
<path d="M3084.13 386.15V372.5L3098.83 370V386.05L3084.13 386.15ZM3084.13 505.475V408.975H3098.83V505.475H3084.13Z" fill="#231F20"/>
<path d="M3140.17 462.15C3140.17 480.925 3141.72 493.875 3165.9 493.875C3184.3 493.875 3189.52 486.375 3191.05 474.55L3204.8 479.95C3200.92 497.175 3190.67 506.65 3165.9 506.65C3131.87 506.65 3125.1 488.85 3125.1 457.125C3125.1 425.4 3132.07 407.8 3165.9 407.8C3199.72 407.8 3206.72 425.3 3206.72 457.125V462.125L3140.17 462.15ZM3165.9 420.575C3142.9 420.575 3140.37 432.375 3140.17 449.775H3191.62C3191.45 432.5 3188.92 420.575 3165.9 420.575Z" fill="#231F20"/>
<path d="M3264.62 506.65C3236 506.65 3230.77 493.3 3227.3 482.475L3241.42 476.675C3242.57 488.65 3247.42 493.875 3264.62 493.875C3282.62 493.875 3286.1 486.725 3286.1 478.875C3286.1 466.1 3276.42 466.675 3253.8 461.65C3240.07 458.55 3228.65 455.075 3228.65 434.775C3228.65 421.025 3237.35 407.875 3264.62 407.875C3291.12 407.875 3299.25 418.525 3300.43 431.275L3286.5 437.5C3288.62 422.025 3275.27 420.675 3264.62 420.675C3249.62 420.675 3243.55 425.675 3243.55 434.8C3243.55 447.3 3255.15 446.6 3275.07 451.05C3287.07 453.75 3301 456.45 3301 476.175C3301 494.275 3290.17 506.65 3264.62 506.65Z" fill="#231F20"/>
<path d="M3531.95 505.475V367.775H3548V491.75H3603V505.475H3531.95Z" fill="#231F20"/>
<path d="M3626.25 386.15V372.5L3640.95 370V386.05L3626.25 386.15ZM3626.25 505.475V408.975H3640.95V505.475H3626.25Z" fill="#231F20"/>
<path d="M3721 377.05C3716.45 374.363 3711.28 372.899 3706 372.8C3700.03 372.8 3693.5 375.5 3693.5 386.525V409.025H3717.1V421.4H3693.5V505.525H3678.8V421.35H3663.5V408.975H3678.8V386.475C3678.8 370.05 3687.7 359.975 3704.53 359.975C3711.66 359.923 3718.72 361.442 3725.2 364.425L3721 377.05Z" fill="#231F20"/>
<path d="M3750.18 462.15C3750.18 480.925 3751.73 493.875 3775.9 493.875C3794.28 493.875 3799.5 486.375 3801.05 474.55L3814.78 479.95C3810.9 497.175 3800.65 506.65 3775.9 506.65C3741.85 506.65 3735.08 488.85 3735.08 457.125C3735.08 425.4 3742.05 407.8 3775.9 407.8C3809.75 407.8 3816.7 425.3 3816.7 457.125V462.125L3750.18 462.15ZM3775.9 420.575C3752.88 420.575 3750.38 432.375 3750.18 449.775H3801.63C3801.43 432.5 3798.93 420.575 3775.9 420.575Z" fill="#231F20"/>
<path d="M4049.2 505.475V367.775H4097.95C4123.87 367.775 4137.6 385.275 4137.6 407.425C4137.72 417.242 4134.15 426.745 4127.59 434.052C4121.03 441.359 4111.97 445.936 4102.2 446.875L4139.15 505.475H4118.65L4084.02 447.075H4065.27V505.475H4049.2ZM4065.27 433.35H4094.07C4107.42 433.35 4120.97 427.925 4120.97 407.425C4120.97 386.925 4107.42 381.5 4094.07 381.5H4065.27V433.35Z" fill="#231F20"/>
<path d="M4172.18 462.15C4172.18 480.925 4173.73 493.875 4197.9 493.875C4216.28 493.875 4221.5 486.375 4223.05 474.55L4236.78 479.95C4232.9 497.175 4222.65 506.65 4197.9 506.65C4163.85 506.65 4157.08 488.85 4157.08 457.125C4157.08 425.4 4164.05 407.8 4197.9 407.8C4231.75 407.8 4238.7 425.3 4238.7 457.125V462.125L4172.18 462.15ZM4197.9 420.575C4174.88 420.575 4172.35 432.375 4172.18 449.775H4223.63C4223.43 432.5 4220.93 420.575 4197.9 420.575Z" fill="#231F20"/>
<path d="M4292.75 506.65C4284.25 506.65 4269.73 503.175 4269.73 483.625V421.35H4255.83V408.975H4269.73V377.825L4284.45 375.325V409H4310.55V421.375H4284.45V483.25C4284.41 484.683 4284.67 486.108 4285.22 487.432C4285.77 488.756 4286.59 489.951 4287.63 490.937C4288.67 491.923 4289.91 492.678 4291.26 493.154C4292.61 493.63 4294.05 493.816 4295.48 493.7C4301.19 493.544 4306.77 491.944 4311.7 489.05L4315.58 501.425C4308.47 504.885 4300.66 506.672 4292.75 506.65Z" fill="#231F20"/>
<path d="M4336.95 386.15V372.5L4351.65 370V386.05L4336.95 386.15ZM4336.95 505.475V408.975H4351.65V505.475H4336.95Z" fill="#231F20"/>
<path d="M4380.4 505.475V408.975H4395V423.975C4400.6 416.625 4410.85 407.725 4425.18 407.725C4428.29 407.72 4431.4 408.047 4434.45 408.7L4432.13 423.7C4429.1 422.569 4425.87 422.108 4422.65 422.35C4411.45 422.35 4401 430.475 4395 439V505.325L4380.4 505.475Z" fill="#231F20"/>
<path d="M4465.55 462.15C4465.55 480.925 4467.1 493.875 4491.27 493.875C4509.65 493.875 4514.87 486.375 4516.42 474.55L4530.15 479.95C4526.3 497.175 4516.05 506.65 4491.27 506.65C4457.22 506.65 4450.47 488.85 4450.47 457.125C4450.47 425.4 4457.42 407.8 4491.27 407.8C4525.12 407.8 4532.1 425.3 4532.1 457.125V462.125L4465.55 462.15ZM4491.27 420.575C4468.27 420.575 4465.75 432.375 4465.55 449.775H4517C4516.82 432.5 4514.3 420.575 4491.27 420.575Z" fill="#231F20"/>
<path d="M4557.5 505.475V408.975H4572.2V418.25C4580.46 411.671 4590.66 407.999 4601.22 407.8C4609.72 407.8 4622.87 410.525 4629.85 422.3C4638.75 413.266 4650.82 408.063 4663.5 407.8C4675.5 407.8 4696.77 413.225 4696.77 441.85V505.475H4682.07V441.85C4682.07 430.05 4675.87 420.575 4660.8 420.575C4648.8 420.575 4639.32 427.925 4633.7 433.075C4634.29 435.936 4634.55 438.855 4634.48 441.775V505.4H4619.78V441.85C4619.78 430.05 4613.6 420.575 4598.5 420.575C4587.1 420.575 4577.83 427.15 4572.2 432.375V505.475H4557.5Z" fill="#231F20"/>
<path d="M4737.25 462.15C4737.25 480.925 4738.8 493.875 4762.98 493.875C4781.35 493.875 4786.58 486.375 4788.13 474.55L4801.85 479.95C4797.98 497.175 4787.73 506.65 4762.98 506.65C4728.93 506.65 4722.15 488.85 4722.15 457.125C4722.15 425.4 4729.13 407.8 4762.98 407.8C4796.83 407.8 4803.78 425.3 4803.78 457.125V462.125L4737.25 462.15ZM4762.98 420.575C4739.95 420.575 4737.45 432.375 4737.25 449.775H4788.7C4788.5 432.5 4786 420.575 4762.98 420.575Z" fill="#231F20"/>
<path d="M4829.2 505.475V408.975H4843.87V418.25C4852.14 411.675 4862.34 408.002 4872.9 407.8C4884.9 407.8 4906.17 413.225 4906.17 441.85V505.475H4891.47V441.85C4891.47 430.05 4885.27 420.575 4870.2 420.575C4858.77 420.575 4849.5 427.15 4843.87 432.375V505.475H4829.2Z" fill="#231F20"/>
<path d="M4962.32 506.65C4953.8 506.65 4939.3 503.175 4939.3 483.625V421.35H4925.38V408.975H4939.3V377.825L4954 375.325V409H4980V421.375H4954V483.25C4953.96 484.681 4954.23 486.105 4954.78 487.427C4955.33 488.75 4956.15 489.942 4957.19 490.928C4958.23 491.913 4959.46 492.669 4960.81 493.146C4962.16 493.624 4963.6 493.812 4965.02 493.7C4970.75 493.547 4976.34 491.947 4981.27 489.05L4985.15 501.425C4978.04 504.878 4970.23 506.665 4962.32 506.65Z" fill="#231F20"/>
<path d="M954.3 395.675L914.625 396.325H823.925L785.5 395.675L750.5 504.55C740.687 506.463 730.695 507.301 720.7 507.05C708.882 507.095 697.11 505.556 685.7 502.475L683.725 499.225L833.175 58.7001C846.537 56.7141 860.045 55.8777 873.55 56.2001C886.84 55.8541 900.134 56.6907 913.275 58.7001L1061.58 499.325C1052.31 505.408 1040.39 508.45 1025.83 508.45C1011.26 508.45 1000.88 505.842 994.7 500.625C988.534 495.408 983.242 485.85 978.825 471.95L954.3 395.675ZM803.4 339.625L837.15 338.975H903.35C921.45 339.425 932.483 339.642 936.45 339.625L906 245.125C890.55 196.475 878.883 157.15 871 127.15H867.5C862.2 151.05 853.592 182.55 841.675 221.65L803.4 339.625Z" fill="#231F20"/>
<path d="M1082.08 479.75C1084.23 462.066 1092.14 445.579 1104.58 432.825C1139.74 451.975 1168.33 461.542 1190.33 461.525C1212.73 461.525 1229.32 457.825 1240.1 450.425C1250.88 443.025 1256.28 433.25 1256.28 421.1C1256.28 401.967 1242.43 387.2 1214.73 376.8L1177.8 363.1C1121.93 342.217 1094 311.184 1094 270C1094 240 1104.93 216.434 1126.78 199.3C1148.63 182.167 1177.2 173.542 1212.5 173.425C1249.28 173.656 1285.6 181.646 1319.08 196.875C1318.95 206.314 1317.04 215.644 1313.45 224.375C1310.38 232.894 1305.22 240.508 1298.45 246.525C1267.17 232.175 1237.85 225 1210.5 225C1195.95 225 1184.37 228.475 1175.75 235.425C1171.7 238.454 1168.43 242.393 1166.19 246.923C1163.95 251.453 1162.8 256.446 1162.85 261.5C1162.85 271.917 1166.05 279.95 1172.45 285.6C1178.85 291.25 1189.33 296.883 1203.9 302.5L1243.6 317.5C1299.68 338.8 1327.72 371.392 1327.7 415.275C1327.7 445.275 1316.03 468.958 1292.7 486.325C1269.37 503.692 1237.59 512.375 1197.38 512.375C1157.13 512.358 1118.69 501.483 1082.08 479.75Z" fill="#231F20"/>
<path d="M1358.8 479.75C1360.96 462.066 1368.86 445.579 1381.3 432.825C1416.45 451.975 1445.02 461.542 1467.02 461.525C1489.46 461.525 1506.05 457.825 1516.8 450.425C1527.55 443.025 1532.94 433.25 1532.97 421.1C1532.97 401.967 1519.12 387.2 1491.42 376.8L1454.52 363.1C1398.67 342.217 1370.76 311.142 1370.77 269.875C1370.77 239.875 1381.7 216.308 1403.55 199.175C1425.4 182.042 1453.97 173.459 1489.27 173.425C1526.05 173.653 1562.37 181.644 1595.85 196.875C1595.72 206.314 1593.81 215.644 1590.22 224.375C1587.15 232.894 1581.99 240.508 1575.22 246.525C1543.92 232.175 1514.59 225 1487.22 225C1472.64 225 1461.06 228.475 1452.47 235.425C1448.42 238.449 1445.14 242.386 1442.89 246.916C1440.65 251.447 1439.5 256.444 1439.55 261.5C1439.55 271.917 1442.74 279.95 1449.12 285.6C1455.51 291.25 1465.99 296.883 1480.57 302.5L1520.32 317.5C1576.34 338.8 1604.36 371.392 1604.37 415.275C1604.37 445.275 1592.71 468.958 1569.37 486.325C1546.04 503.692 1514.27 512.375 1474.05 512.375C1433.85 512.358 1395.43 501.483 1358.8 479.75Z" fill="#231F20"/>
<path d="M1908.87 364.4H1714.25C1715.6 394.4 1722.12 417.425 1733.8 433.475C1745.48 449.525 1765.23 457.566 1793.05 457.6C1807.47 457.444 1821.82 455.47 1835.75 451.725C1852.22 447.331 1868.11 440.986 1883.07 432.825C1894.11 442.825 1901.38 457.167 1904.9 475.85C1869.6 500.2 1828.12 512.367 1780.45 512.35C1755.3 512.35 1734.12 508.008 1716.92 499.325C1700.21 491.017 1685.8 478.701 1675 463.475C1663.66 447.047 1655.68 428.544 1651.5 409.025C1646.5 386.674 1644.05 363.828 1644.2 340.925C1644.02 318.323 1647.15 295.818 1653.5 274.125C1658.9 254.934 1667.82 236.918 1679.82 221C1691.23 206.243 1705.84 194.275 1722.55 186C1740.38 177.336 1760 172.986 1779.82 173.3C1799.19 172.961 1818.43 176.506 1836.4 183.725C1852.33 190.269 1866.67 200.159 1878.45 212.725C1890.16 225.513 1899.06 240.612 1904.57 257.05C1910.67 274.989 1913.7 293.829 1913.52 312.775C1913.52 321.475 1913.2 330.058 1912.55 338.525C1911.84 347.216 1910.62 355.856 1908.87 364.4ZM1781.8 223.625C1739.85 223.625 1717.35 254.258 1714.3 315.525H1848.05V307.05C1848.05 282.283 1842.64 262.183 1831.82 246.75C1821.01 231.317 1804.33 223.608 1781.8 223.625Z" fill="#231F20"/>
<path d="M2131.97 181.25C2134.3 189.52 2135.42 198.085 2135.27 206.675C2135.45 215.046 2134.34 223.394 2131.97 231.425L2050.55 230.125V424.45C2050.55 443.5 2059.59 453.034 2077.67 453.05H2123.37C2126.87 462.477 2128.66 472.448 2128.67 482.5C2128.95 489.013 2128.5 495.535 2127.35 501.95C2102.75 504.967 2077.99 506.512 2053.2 506.575C2006.85 506.575 1983.68 484.209 1983.7 439.475V230.775L1934.7 231.425C1932.87 223.414 1931.98 215.217 1932.05 207C1932.03 198.348 1932.92 189.717 1934.7 181.25L1983.7 182.55V125.2C1983.7 109.55 1986.34 98.4668 1991.62 91.9502C1996.91 85.4335 2006.37 82.1752 2020 82.1752H2045.82L2050.45 86.7252V183.2L2131.97 181.25Z" fill="#231F20"/>
<path d="M547.776 27.725C543.283 23.2234 537.943 19.6555 532.065 17.2269C526.187 14.7984 519.886 13.5572 513.526 13.575H66.4256C60.0654 13.5684 53.7663 14.8155 47.8884 17.2449C42.0104 19.6743 36.6689 23.2384 32.1693 27.7334C27.6696 32.2284 24.1 37.5662 21.6646 43.4416C19.2291 49.317 17.9756 55.6148 17.9756 61.975V509.125C18.0021 521.96 23.1175 534.26 32.2 543.329C41.2826 552.397 53.5909 557.493 66.4256 557.5H513.526C526.365 557.493 538.677 552.394 547.76 543.32C556.843 534.246 561.956 521.939 561.976 509.1V61.975C561.984 55.6118 560.734 49.3097 558.297 43.4316C555.86 37.5535 552.284 32.2156 547.776 27.725ZM550.276 506.85C550.269 517.198 546.155 527.12 538.838 534.438C531.521 541.755 521.599 545.868 511.251 545.875H68.7506C58.4046 545.862 48.4861 541.746 41.1704 534.43C33.8546 527.115 29.7388 517.196 29.7256 506.85V64.35C29.7056 53.9996 33.7931 44.0642 41.0908 36.7243C48.3885 29.3844 58.3003 25.2397 68.6506 25.2H511.151C521.499 25.2066 531.421 29.3203 538.738 36.6375C546.055 43.9547 550.169 53.877 550.176 64.225L550.276 506.85Z" fill="#231F20"/>
<path d="M511.3 45.8749H68.6503C63.7836 45.8749 59.1162 47.8082 55.6749 51.2495C52.2336 54.6908 50.3003 59.3582 50.3003 64.2249V194.775L203.575 159.775C228.575 154.125 232.95 163 213.575 179.6L110 254.575C101.341 260.777 91.0146 264.228 80.3661 264.478C69.7176 264.728 59.2407 261.765 50.3003 255.975V305.625C114.825 280 169.225 233.3 224.225 187C231.2 181.125 238.175 175.225 245.225 169.5C281.275 139.5 318.175 111.125 358.95 89.9749C492.275 20.8249 412 141.875 360.05 243.2C308.65 343.425 502.55 222.725 506.875 220.075C505.6 221.325 476.3 250.225 397.125 307.425C362.975 332.125 319.625 362.1 265.05 397.425C80.9753 516.725 179.025 362.175 261.075 222.275C315.575 129.325 280.525 151.125 250.825 176.25C235.825 188.9 222.15 202.5 222.15 202.5L157.15 258.325C122.974 285.849 87.3386 311.511 50.4003 335.2V506.875C50.4003 511.746 52.332 516.419 55.7718 519.868C59.2117 523.317 63.879 525.262 68.7503 525.275H295.9L254.55 480.7C237.2 462 236.675 438.6 253.45 428.725L273.8 414.425C350.75 360.275 406.975 319.05 406.975 319.05C407.9 318.425 408.75 317.775 409.625 317.2C428.475 304.7 437.875 312.6 430.725 335.95L372.375 525.275H511.4C516.272 525.262 520.939 523.317 524.379 519.868C527.819 516.419 529.75 511.746 529.75 506.875V64.3749C529.77 61.9441 529.307 59.5336 528.387 57.2834C527.468 55.0331 526.11 52.988 524.394 51.2668C522.677 49.5456 520.636 48.1826 518.388 47.257C516.14 46.3314 513.731 45.8616 511.3 45.8749ZM505.275 117.75L484.775 184.325C477.5 208.2 452.5 235.7 429.5 245.4C429.5 245.4 361.4 274.1 392 214.275C415.35 168.675 435.225 129.275 435.225 129.275C446.475 106.975 469.825 85.4499 487.125 81.4999C504.425 77.5499 512.625 93.8749 505.275 117.75Z" fill="#231F20"/>
</svg>
