<svg width="2223" height="600" viewBox="0 0 2223 600" fill="none" xmlns="http://www.w3.org/2000/svg">
<g id="asset_logo_solid_aqua">
<path id="Vector" d="M983.934 414.089L942.6 414.767H848.156L808.156 414.089L771.633 527.422C763.811 529.23 753.467 530.133 740.6 530.133C728.271 530.197 715.989 528.593 704.089 525.367L702.011 522.033L857.778 63.2111C867.408 61.4111 881.419 60.5074 899.811 60.5C918.178 60.5 932.034 61.4111 941.178 63.2111L1095.62 522C1085.99 528.326 1073.59 531.493 1058.4 531.5C1043.22 531.507 1032.42 528.785 1026 523.333C1019.56 517.904 1014.04 507.952 1009.47 493.478L983.934 414.089ZM826.8 355.722L861.933 355.044H930.822C949.659 355.496 961.141 355.722 965.267 355.722L933.556 257.322C917.519 206.641 905.367 165.681 897.1 134.444H893.645C888.134 159.333 879.171 192.133 866.756 232.844L826.8 355.722Z" fill="#1D526C"/>
<path id="Vector_2" d="M1116.98 501.622C1117.44 493.948 1119.95 485.241 1124.52 475.5C1129.09 465.759 1134.36 458.182 1140.32 452.767C1176.95 472.7 1206.71 482.656 1229.6 482.633C1252.95 482.633 1270.23 478.789 1281.43 471.1C1292.64 463.411 1298.26 453.23 1298.28 440.556C1298.28 420.645 1283.86 405.263 1255.02 394.411L1216.58 380.156C1158.45 358.422 1129.39 326.07 1129.4 283.1C1129.4 251.885 1140.77 227.341 1163.51 209.467C1186.25 191.593 1216.01 182.659 1252.78 182.667C1289.99 182.667 1326.99 190.815 1363.76 207.111C1363.61 216.898 1361.62 226.57 1357.9 235.622C1354 245.578 1348.81 253.267 1342.34 258.689C1309.71 243.763 1279.15 236.3 1250.67 236.3C1235.51 236.3 1223.45 239.919 1214.49 247.156C1205.53 254.393 1201.07 263.433 1201.11 274.278C1201.11 285.144 1204.44 293.515 1211.11 299.389C1217.78 305.263 1228.69 311.144 1243.86 317.033L1285.21 332.656C1343.58 354.819 1372.77 388.752 1372.77 434.456C1372.77 465.67 1360.59 490.33 1336.22 508.433C1311.86 526.537 1278.76 535.578 1236.93 535.556C1195.1 535.556 1155.11 524.244 1116.98 501.622Z" fill="#1D526C"/>
<path id="Vector_3" d="M1405.11 501.622C1405.56 493.948 1408.07 485.241 1412.66 475.5C1417.21 465.789 1422.5 458.211 1428.46 452.767C1465.04 472.7 1494.81 482.656 1517.78 482.633C1541.13 482.633 1558.41 478.789 1569.62 471.1C1580.83 463.411 1586.44 453.23 1586.44 440.556C1586.44 420.645 1572.03 405.263 1543.19 394.411L1504.76 380.156C1446.62 358.422 1417.56 326.07 1417.57 283.1C1417.57 251.885 1428.94 227.341 1451.7 209.467C1474.46 191.593 1504.2 182.659 1540.94 182.667C1578.18 182.667 1615.17 190.815 1651.92 207.111C1651.78 216.899 1649.8 226.572 1646.07 235.622C1642.16 245.578 1636.97 253.267 1630.51 258.689C1597.87 243.763 1567.31 236.3 1538.83 236.3C1523.68 236.3 1511.59 239.922 1502.66 247.156C1493.72 254.389 1489.21 263.444 1489.21 274.3C1489.21 285.156 1492.54 293.533 1499.21 299.411C1505.88 305.289 1516.8 311.189 1531.96 317.056L1573.33 332.656C1631.68 354.819 1660.86 388.752 1660.87 434.456C1660.87 465.67 1648.69 490.33 1624.34 508.433C1600 526.537 1566.89 535.578 1525.03 535.556C1483.23 535.556 1443.26 524.244 1405.11 501.622Z" fill="#1D526C"/>
<path id="Vector_4" d="M1977.9 381.522H1775.24C1776.62 412.73 1783.41 436.704 1795.6 453.444C1807.79 470.185 1828.36 478.556 1857.29 478.556C1872.3 478.389 1887.23 476.339 1901.73 472.456C1918.88 467.878 1935.42 461.268 1951 452.767C1962.5 463.137 1970.08 478.07 1973.74 497.567C1936.99 522.893 1893.8 535.556 1844.18 535.556C1817.99 535.556 1795.94 531.037 1778.01 522C1760.56 513.368 1745.52 500.544 1734.24 484.678C1722.97 468.833 1714.82 449.944 1709.8 428.011C1704.59 404.735 1702.04 380.941 1702.2 357.089C1702.02 333.556 1705.28 310.122 1711.88 287.533C1718.3 266.052 1727.49 247.618 1739.43 232.233C1751.3 216.91 1766.5 204.488 1783.88 195.911C1801.57 187.089 1821.44 182.681 1843.51 182.689C1865.58 182.696 1885.21 186.315 1902.4 193.544C1918.99 200.348 1933.92 210.648 1946.17 223.744C1958.36 237.056 1967.63 252.77 1973.39 269.878C1979.73 288.563 1982.87 308.181 1982.7 327.911C1982.7 336.978 1982.36 345.919 1981.68 354.733C1980.95 363.73 1979.69 372.676 1977.9 381.522ZM1845.56 234.922C1801.89 234.922 1778.45 266.818 1775.24 330.611H1914.44V321.789C1914.44 295.996 1908.82 275.07 1897.57 259.011C1886.31 242.952 1868.98 234.922 1845.56 234.922Z" fill="#1D526C"/>
<path id="Vector_5" d="M2210.2 190.8C2212.62 199.41 2213.77 208.325 2213.63 217.267C2213.63 227.237 2212.49 235.833 2210.2 243.056L2125.42 241.7V444.033C2125.42 463.893 2134.84 473.822 2153.67 473.822H2201.24C2204.87 483.603 2206.75 493.946 2206.8 504.378C2206.8 514.678 2206.31 521.444 2205.41 524.644C2179.79 527.785 2154 529.391 2128.19 529.456C2079.94 529.456 2055.83 506.159 2055.83 459.567V242.389L2004.82 243.056C2002.91 234.711 2001.98 226.172 2002.06 217.611C2002.03 208.602 2002.96 199.615 2004.82 190.8L2055.83 192.156V132.433C2055.83 116.137 2058.59 104.6 2064.1 97.8222C2069.6 91.0445 2079.5 87.6444 2093.72 87.6444H2120.62L2125.46 92.3889V192.844L2210.2 190.8Z" fill="#1D526C"/>
<path id="Vector_6" d="M560.633 30.9333C555.95 26.2531 550.388 22.5442 544.268 20.0196C538.147 17.495 531.588 16.2045 524.967 16.2222H59.411C52.783 16.2076 46.2173 17.5024 40.0911 20.0325C33.9649 22.5625 28.3989 26.2778 23.7127 30.9651C19.0264 35.6523 15.3123 41.2192 12.7837 47.3459C10.255 53.4727 8.96157 60.0386 8.97769 66.6667V532.222C8.99241 545.588 14.3124 558.402 23.7689 567.848C33.2254 577.294 46.0449 582.6 59.411 582.6H524.967C538.333 582.597 551.152 577.291 560.609 567.846C570.067 558.4 575.39 545.589 575.411 532.222V66.6667C575.423 60.0308 574.123 53.4579 571.587 47.3257C569.051 41.1935 565.329 35.6227 560.633 30.9333ZM563.255 529.822C563.247 540.596 558.963 550.926 551.344 558.545C543.726 566.163 533.396 570.447 522.622 570.456H61.7332C50.966 570.441 40.6438 566.158 33.0291 558.545C25.4145 550.933 21.1287 540.612 21.111 529.844V68.9556C21.1257 58.1854 25.4099 47.8603 33.0245 40.2436C40.6392 32.6269 50.9631 28.3399 61.7332 28.3222H522.622C533.395 28.334 543.724 32.6188 551.341 40.2364C558.959 47.8541 563.244 58.1825 563.255 68.9556V529.822Z" fill="#1D526C"/>
<path id="Vector_7" d="M522.645 49.8556H61.7223C56.6586 49.8556 51.8021 51.8663 48.2205 55.4459C44.6389 59.0254 42.6253 63.8807 42.6223 68.9445V204.9L202.222 168.389C228.167 162.5 232.789 171.722 212.611 189.044L104.778 267.167C86.8223 280.678 61.0556 280.678 42.6223 268.611V320.311C109.822 293.711 166.445 245.011 223.733 196.789C230.989 190.667 238.256 184.567 245.589 178.533C283.122 147.422 321.545 117.767 364 95.7333C502.889 23.7333 419.245 149.767 365.111 255.278C311.611 359.644 513.489 233.956 517.989 231.2C516.667 232.522 486.2 262.6 403.756 322.222C368.2 347.922 322.989 379.156 266.245 415.9C74.5668 540.144 176.656 379.233 262.1 233.533C318.889 136.667 282.333 159.378 251.411 185.556C235.8 198.767 221.567 212.878 221.567 212.878L153.789 271.011C118.214 299.652 81.1235 326.357 42.6779 351.011V529.811C42.6778 534.882 44.6884 539.746 48.2687 543.337C51.8491 546.927 56.7071 548.952 61.7779 548.967H298.245L255.2 502.556C237.122 483.1 236.578 458.722 254.089 448.456L275.289 433.556C355.389 377.178 413.933 334.244 413.933 334.244C414.9 333.578 415.8 332.922 416.7 332.322C436.333 319.233 446.122 327.511 438.678 351.833L377.9 548.967H522.678C527.749 548.952 532.607 546.927 536.187 543.337C539.767 539.746 541.778 534.882 541.778 529.811V68.9445C541.776 66.4343 541.28 63.9491 540.318 61.6309C539.355 59.3127 537.945 57.207 536.168 55.4341C534.391 53.6612 532.282 52.256 529.961 51.2988C527.641 50.3416 525.155 49.8512 522.645 49.8556ZM516.367 124.689L495.022 194C487.356 218.867 461.456 247.489 437.478 257.6C437.478 257.6 366.556 287.478 398.511 225.189C422.845 177.711 443.522 136.7 443.522 136.7C455.245 113.456 479.556 91.1111 497.567 86.9556C515.578 82.8 524.033 99.8222 516.367 124.689Z" fill="#1D526C"/>
</g>
</svg>
