<svg viewBox="0 0 741 200" fill="none" xmlns="http://www.w3.org/2000/svg">
<path d="M327.963 138.03L314.186 138.256H282.706L269.373 138.03L257.199 175.807C254.592 176.41 251.144 176.711 246.855 176.711C242.746 176.732 238.652 176.198 234.686 175.122L233.993 174.011L285.913 21.0704C289.123 20.4704 293.793 20.1692 299.923 20.1667C306.045 20.1667 310.664 20.4704 313.712 21.0704L365.191 174C361.981 176.109 357.845 177.164 352.784 177.167C347.722 177.169 344.123 176.262 341.984 174.444C339.836 172.635 337.999 169.317 336.474 164.493L327.963 138.03ZM275.587 118.574L287.298 118.348H310.26C316.539 118.499 320.366 118.574 321.741 118.574L311.171 85.7741C305.826 68.8803 301.775 55.2272 299.02 44.8148H297.868C296.031 53.1111 293.043 64.0445 288.905 77.6148L275.587 118.574Z" fill="#CFD8D8"/>
<path d="M372.309 167.207C372.462 164.649 373.3 161.747 374.824 158.5C376.347 155.253 378.102 152.727 380.09 150.922C392.299 157.567 402.219 160.885 409.848 160.878C417.63 160.878 423.389 159.596 427.125 157.033C430.861 154.47 432.732 151.077 432.739 146.852C432.739 140.215 427.934 135.088 418.322 131.47L405.507 126.719C386.133 119.474 376.447 108.69 376.449 94.3667C376.449 83.9617 380.239 75.7803 387.819 69.8222C395.399 63.8642 405.317 60.8864 417.573 60.8889C429.978 60.8889 442.308 63.605 454.564 69.0371C454.516 72.2993 453.853 75.5233 452.613 78.5408C451.311 81.8593 449.583 84.4222 447.428 86.2296C436.549 81.2543 426.363 78.7667 416.87 78.7667C411.818 78.7667 407.799 79.9729 404.811 82.3852C401.824 84.7975 400.337 87.8111 400.352 91.4259C400.352 95.0482 401.463 97.8383 403.685 99.7963C405.907 101.754 409.545 103.715 414.6 105.678L428.384 110.885C447.84 118.273 457.568 129.584 457.568 144.818C457.568 155.223 453.508 163.443 445.387 169.478C437.266 175.512 426.235 178.526 412.292 178.518C398.347 178.518 385.019 174.748 372.309 167.207Z" fill="#CFD8D8"/>
<path d="M468.349 167.207C468.497 164.649 469.335 161.747 470.864 158.5C472.382 155.263 474.145 152.737 476.13 150.922C488.325 157.567 498.249 160.885 505.903 160.878C513.688 160.878 519.448 159.596 523.184 157.033C526.919 154.47 528.788 151.077 528.791 146.852C528.791 140.215 523.985 135.088 514.373 131.47L501.562 126.719C482.185 119.474 472.498 108.69 472.501 94.3667C472.501 83.9617 476.293 75.7803 483.878 69.8222C491.463 63.8642 501.378 60.8864 513.625 60.8889C526.036 60.8889 538.367 63.605 550.616 69.0371C550.569 72.2996 549.907 75.5239 548.664 78.5408C547.36 81.8593 545.632 84.4222 543.479 86.2296C532.6 81.2543 522.414 78.7667 512.921 78.7667C507.869 78.7667 503.84 79.9741 500.862 82.3852C497.885 84.7963 496.381 87.8148 496.381 91.4333C496.381 95.0519 497.492 97.8445 499.714 99.8037C501.936 101.763 505.577 103.73 510.629 105.685L524.421 110.885C543.869 118.273 553.595 129.584 553.597 144.818C553.597 155.223 549.539 163.443 541.423 169.478C533.308 175.512 522.274 178.526 508.321 178.518C494.389 178.518 481.064 174.748 468.349 167.207Z" fill="#CFD8D8"/>
<path d="M659.27 127.174H591.722C592.181 137.577 594.442 145.568 598.506 151.148C602.57 156.728 609.424 159.519 619.068 159.519C624.072 159.463 629.049 158.78 633.882 157.485C639.598 155.959 645.111 153.756 650.304 150.922C654.136 154.379 656.663 159.357 657.885 165.856C645.634 174.298 631.238 178.519 614.698 178.519C605.97 178.519 598.619 177.012 592.644 174C586.828 171.123 581.815 166.848 578.056 161.559C574.298 156.278 571.582 149.982 569.908 142.67C568.17 134.912 567.32 126.981 567.375 119.03C567.313 111.185 568.4 103.374 570.6 95.8445C572.741 88.684 575.803 82.5396 579.785 77.4112C583.74 72.3033 588.806 68.1629 594.599 65.3038C600.495 62.363 607.121 60.8939 614.476 60.8964C621.831 60.8988 628.374 62.105 634.105 64.5149C639.634 66.7826 644.61 70.2162 648.693 74.5815C652.756 79.0189 655.847 84.2569 657.766 89.9593C659.879 96.1877 660.928 102.727 660.87 109.304C660.87 112.326 660.756 115.306 660.529 118.245C660.287 121.243 659.867 124.225 659.27 127.174V127.174ZM615.157 78.3075C600.603 78.3075 592.791 88.9396 591.722 110.204H638.119V107.263C638.119 98.6655 636.244 91.6902 632.494 86.3371C628.743 80.984 622.964 78.3075 615.157 78.3075Z" fill="#CFD8D8"/>
<path d="M736.7 63.6C737.505 66.4701 737.89 69.4417 737.844 72.4222C737.844 75.7457 737.463 78.6111 736.7 81.0185L708.442 80.5667V148.011C708.442 154.631 711.58 157.941 717.856 157.941H733.715C734.924 161.201 735.551 164.649 735.566 168.126C735.566 171.559 735.403 173.815 735.103 174.881C726.563 175.928 717.968 176.464 709.364 176.485C693.283 176.485 685.244 168.72 685.246 153.189V80.7963L668.244 81.0185C667.606 78.2371 667.297 75.3905 667.321 72.5371C667.314 69.5339 667.623 66.5384 668.244 63.6L685.246 64.0519V44.1445C685.246 38.7124 686.165 34.8667 688.002 32.6074C689.835 30.3482 693.135 29.2148 697.876 29.2148H706.842L708.453 30.7963V64.2815L736.7 63.6Z" fill="#CFD8D8"/>
<path d="M186.869 10.3111C185.308 8.75104 183.454 7.51474 181.414 6.67321C179.374 5.83168 177.188 5.40151 174.981 5.40741H19.8028C17.5935 5.40252 15.4051 5.83414 13.3631 6.67748C11.3211 7.52082 9.46585 8.75926 7.90385 10.3217C6.34184 11.8841 5.10387 13.7397 4.26102 15.782C3.41817 17.8242 2.98705 20.0129 2.99242 22.2222V177.407C2.99733 181.863 4.77058 186.134 7.92259 189.283C11.0746 192.431 15.3476 194.2 19.8028 194.2H174.981C179.436 194.199 183.709 192.43 186.861 189.282C190.014 186.133 191.788 181.863 191.795 177.407V22.2222C191.799 20.0103 191.365 17.8193 190.52 15.7752C189.675 13.7312 188.434 11.8742 186.869 10.3111V10.3111ZM187.743 176.607C187.74 180.199 186.312 183.642 183.773 186.182C181.234 188.721 177.79 190.149 174.199 190.152H20.5768C16.9879 190.147 13.5473 188.719 11.0092 186.182C8.4711 183.644 7.04256 180.204 7.03668 176.615V22.9852C7.04157 19.3951 8.46957 15.9534 11.0077 13.4145C13.5458 10.8756 16.9869 9.44662 20.5768 9.44074H174.199C177.79 9.44466 181.233 10.8729 183.772 13.4121C186.311 15.9514 187.739 19.3942 187.743 22.9852V176.607Z" fill="#CFD8D8"/>
<path d="M174.207 16.6185H20.5731C18.8853 16.6185 17.2665 17.2888 16.0727 18.482C14.8789 19.6752 14.2077 21.2936 14.2067 22.9815V68.3L67.4043 56.1297C76.0521 54.1667 77.5927 57.2408 70.8671 63.0148L34.9243 89.0556C28.9394 93.5593 20.3509 93.5593 14.2067 89.5371V106.77C36.6057 97.9037 55.4789 81.6704 74.5743 65.5963C76.9928 63.5556 79.4149 61.5222 81.8592 59.5111C94.3697 49.1408 107.177 39.2556 121.328 31.9111C167.622 7.91113 139.742 49.9222 121.698 85.0926C103.866 119.882 171.155 77.9852 172.655 77.0667C172.214 77.5074 162.059 87.5334 134.579 107.407C122.728 115.974 107.658 126.385 88.7441 138.633C24.8544 180.048 58.8825 126.411 87.3627 77.8445C106.291 45.5556 94.1068 53.126 83.7999 61.8519C78.5964 66.2556 73.8522 70.9593 73.8522 70.9593L51.2606 90.3371C39.4029 99.8841 27.0399 108.786 14.2252 117.004V176.604C14.2252 178.294 14.8954 179.915 16.0888 181.112C17.2822 182.309 18.9015 182.984 20.5916 182.989H99.4103L85.0628 167.519C79.0371 161.033 78.8556 152.907 84.6924 149.485L91.7588 144.519C118.458 125.726 137.971 111.415 137.971 111.415C138.294 111.193 138.594 110.974 138.894 110.774C145.438 106.411 148.701 109.17 146.219 117.278L125.961 182.989H174.218C175.908 182.984 177.527 182.309 178.721 181.112C179.914 179.915 180.584 178.294 180.584 176.604V22.9815C180.584 22.1448 180.418 21.3164 180.098 20.5437C179.777 19.7709 179.307 19.069 178.714 18.4781C178.122 17.8871 177.419 17.4187 176.646 17.0996C175.872 16.7806 175.044 16.6171 174.207 16.6185V16.6185ZM172.114 41.563L165 64.6667C162.444 72.9556 153.811 82.4963 145.819 85.8667C145.819 85.8667 122.18 95.826 132.831 75.063C140.942 59.2371 147.834 45.5667 147.834 45.5667C151.741 37.8185 159.845 30.3704 165.848 28.9852C171.851 27.6 174.67 33.2741 172.114 41.563Z" fill="#CFD8D8"/>
</svg>
