<svg xmlns="http://www.w3.org/2000/svg" viewBox="0 0 291.15 82.59"><g id="f91c112d-3c1c-46f1-a0f1-be67c87cfa2d" data-name="Layer 2"><g id="ba46b982-f399-4ff0-80e4-347cf7cc5055" data-name="Layer 1"><path d="M142.19,56l-5,.09H125.74L120.9,56l-4.43,14a17.18,17.18,0,0,1-3.76.33,16.33,16.33,0,0,1-4.42-.58l-.25-.42,18.87-56.44A28.36,28.36,0,0,1,132,12.5a26.85,26.85,0,0,1,5,.34l18.71,56.44a8,8,0,0,1-4.51,1.17,6,6,0,0,1-3.93-1,8,8,0,0,1-2-3.67Zm-19-7.18,4.26-.08h8.35c2.28.06,3.67.08,4.18.08l-3.84-12.1q-2.92-9.36-4.43-15.12h-.42q-1,4.61-3.26,12.11Z" fill="#fff"/><path d="M158.3,66.77a9.1,9.1,0,0,1,.92-3.21,8.75,8.75,0,0,1,1.91-2.8q6.66,3.69,10.82,3.68c2.82,0,4.92-.47,6.28-1.42a4.4,4.4,0,0,0,2-3.76q0-3.67-5.24-5.68l-4.66-1.75q-10.56-4-10.56-11.94a11,11,0,0,1,4.13-9.06q4.14-3.3,10.81-3.3a32.46,32.46,0,0,1,13.45,3,9.85,9.85,0,0,1-.71,3.51,7,7,0,0,1-1.88,2.83,26.62,26.62,0,0,0-11.11-2.75,6.7,6.7,0,0,0-4.38,1.33,4.16,4.16,0,0,0-1.63,3.34,3.91,3.91,0,0,0,1.21,3.09,13.37,13.37,0,0,0,4,2.17l5,1.93q10.6,4.08,10.6,12.52a10.78,10.78,0,0,1-4.42,9.1c-3,2.23-7,3.34-12,3.34A27.7,27.7,0,0,1,158.3,66.77Z" fill="#fff"/><path d="M193.21,66.77a8.85,8.85,0,0,1,.91-3.21,8.75,8.75,0,0,1,1.91-2.8q6.66,3.69,10.82,3.68T213.13,63a4.39,4.39,0,0,0,2-3.76c0-2.45-1.74-4.34-5.24-5.68l-4.65-1.75q-10.56-4-10.56-11.94a11,11,0,0,1,4.13-9.06q4.14-3.3,10.81-3.3a32.46,32.46,0,0,1,13.45,3,9.85,9.85,0,0,1-.71,3.51,7,7,0,0,1-1.88,2.83,26.58,26.58,0,0,0-11.11-2.75A6.7,6.7,0,0,0,205,35.46a4.19,4.19,0,0,0-1.63,3.34,4,4,0,0,0,1.21,3.09,13.37,13.37,0,0,0,4,2.17l5,1.93q10.6,4.08,10.6,12.52a10.78,10.78,0,0,1-4.42,9.1c-3,2.23-7,3.34-12,3.34A27.64,27.64,0,0,1,193.21,66.77Z" fill="#fff"/><path d="M262.59,52H238q.26,5.76,2.47,8.85T248,63.94a21.4,21.4,0,0,0,5.38-.75,26.61,26.61,0,0,0,6-2.43,9.61,9.61,0,0,1,2.76,5.52A26.75,26.75,0,0,1,246.39,71a17.45,17.45,0,0,1-8-1.67,14.2,14.2,0,0,1-5.3-4.59,19.42,19.42,0,0,1-3-7,39.56,39.56,0,0,1-.92-8.73,30.17,30.17,0,0,1,1.17-8.56,20.67,20.67,0,0,1,3.34-6.8,15.46,15.46,0,0,1,12.61-6.1,18.07,18.07,0,0,1,7.14,1.34,15.14,15.14,0,0,1,5.3,3.71,15.94,15.94,0,0,1,3.3,5.68,22,22,0,0,1,1.13,7.14c0,1.11-.05,2.21-.13,3.3A27.53,27.53,0,0,1,262.59,52Zm-16-18q-7.94,0-8.52,11.78h16.87V44.65a13.26,13.26,0,0,0-2-7.72A7.11,7.11,0,0,0,246.56,34Z" fill="#fff"/><path d="M290.73,28.53a11.56,11.56,0,0,1,.42,3.26,10.59,10.59,0,0,1-.42,3.17l-10.27-.16V59.69q0,3.66,3.42,3.66h5.76a11,11,0,0,1,.67,3.76,12.6,12.6,0,0,1-.16,2.5,78.14,78.14,0,0,1-9.36.59q-8.76,0-8.76-8.6V34.88l-6.18.08a13.23,13.23,0,0,1-.34-3.13,15.52,15.52,0,0,1,.34-3.3l6.18.17V21.35a6.89,6.89,0,0,1,1-4.25c.66-.84,1.86-1.26,3.59-1.26h3.25l.59.59V28.78Z" fill="#fff"/><path d="M85.78,26.7C82.5,37.65,93,30.75,93,30.75a18.85,18.85,0,0,0,7.35-11.92l1.37-11.76c.49-4.22-1.37-6.69-4.14-5.5s-6,5.51-7.19,9.59C90.38,11.16,88.27,18.36,85.78,26.7Z" fill="#fff" fill-rule="evenodd"/><path d="M57.38,25.31c2.67-3.3,1.67-4.62-2.23-2.94L30.6,33c-3.9,1.68-4.3,5.14-.89,7.67l1.56,1.17A8.79,8.79,0,0,0,42.7,40.73Z" fill="#fff" fill-rule="evenodd"/><path d="M73.24,60.07l-2.9,3c-2.45,2.13-1.66,5.94,1.75,8.47l13.18,9.82c3.41,2.53,6.61,1.16,7.1-3.07l4.17-35.77c.49-4.22-1.49-5.14-4.4-2C92.14,40.43,84.19,48.88,73.24,60.07Z" fill="#fff" fill-rule="evenodd"/><path d="M21,65.87C35,57,50.3,38.79,50.3,38.79l9-11.1s16.17-23.33,7,2-20.57,53.65,6,28.55,34.22-36.35,34.22-36.35-28.78,26.4-23.34,8.24,14.91-40.4-4.82-25C59.47,19.76,49,44.88,26.47,53.72,6.25,61.67,0,41.4,0,41.4S5.32,75.85,21,65.87Z" fill="#fff" fill-rule="evenodd"/></g></g></svg>