<svg viewBox="0 0 5000 600" fill="none" xmlns="http://www.w3.org/2000/svg">
<path d="M2335.73 30.9749H2321.62V585.3H2335.73V30.9749Z" fill="white"/>
<path d="M3414.27 474.65C3396.92 474.65 3393.55 463.6 3393.55 444.225C3393.55 424.85 3396.92 414.025 3414.27 414.025C3431.62 414.025 3435.22 424.875 3435.22 444.225C3435.22 463.575 3431.67 474.65 3414.27 474.65Z" fill="white"/>
<path d="M3933.25 474.65C3915.75 474.65 3912.52 463.6 3912.52 444.225C3912.52 424.85 3915.87 414.025 3933.25 414.025C3950.62 414.025 3954.17 424.875 3954.17 444.225C3954.17 463.575 3950.62 474.65 3933.25 474.65Z" fill="white"/>
<path d="M2533.35 271.1V133.375H2585.85C2601.32 133.375 2610.85 137.825 2618.15 144.8C2627.25 153.5 2630.15 170.325 2630.15 202.3C2630.15 234.275 2627.25 251.025 2618.15 259.8C2610.8 266.75 2601.32 271.2 2585.85 271.2L2533.35 271.1ZM2549.4 257.375H2586.55C2596.4 257.375 2602.6 254.475 2606.85 249.875C2612.27 243.875 2613.62 236.525 2613.62 202.375C2613.62 168.225 2612.27 160.775 2606.85 154.875C2602.6 150.25 2596.4 147.375 2586.55 147.375H2549.4V257.375Z" fill="white"/>
<path d="M2659.72 271.1V174.575H2674.42V189.575C2680.05 182.225 2690.3 173.325 2704.6 173.325C2707.72 173.321 2710.84 173.64 2713.9 174.275L2711.57 189.275C2708.55 188.151 2705.32 187.69 2702.1 187.925C2690.87 187.925 2680.42 196.05 2674.42 204.55V270.9L2659.72 271.1Z" fill="white"/>
<path d="M2735.25 151.75V138.225L2749.95 135.725V151.75H2735.25ZM2735.25 271.1V174.575H2750V271.1H2735.25Z" fill="white"/>
<path d="M2806.27 271.1L2770.47 174.575H2786.72L2815.55 256.025L2845.15 174.575H2861.6L2825.22 271.1H2806.27Z" fill="white"/>
<path d="M2882.3 151.75V138.225L2897 135.725V151.75H2882.3ZM2882.3 271.1V174.575H2897V271.1H2882.3Z" fill="white"/>
<path d="M2926.53 271.1V174.575H2941.23V183.875C2949.48 177.29 2959.67 173.616 2970.23 173.425C2982.23 173.425 3003.5 178.85 3003.5 207.475V271.1H2988.8V207.5C2988.8 195.7 2982.6 186.225 2967.53 186.225C2956.13 186.225 2946.83 192.8 2941.23 198.025V271.125L2926.53 271.1Z" fill="white"/>
<path d="M3069.65 308.825C3055.53 308.825 3045.85 305.35 3039.65 300.125C3035.72 296.699 3032.38 292.644 3029.78 288.125L3043.13 281.55C3045.08 286.2 3049.33 296.05 3069.63 296.05C3094 296.05 3094.63 281.35 3094.63 271.875V263.375C3086.62 267.282 3077.81 269.268 3068.9 269.175C3058.08 269.175 3048.4 266.075 3041.83 259.875C3031.83 250.6 3029.33 238.8 3029.33 221.4C3029.33 204 3031.83 192.775 3038.8 185.025C3042.17 181.247 3046.32 178.251 3050.97 176.247C3055.61 174.243 3060.64 173.28 3065.7 173.425C3078.2 173.425 3089.28 179.025 3094.7 185.025V174.575H3109.4V272.5C3109.3 295.475 3096.73 308.825 3069.65 308.825ZM3094.65 212.3C3094.65 203.6 3092.93 197.3 3087.15 192.3C3081.98 188.224 3075.56 186.044 3068.98 186.125C3059.3 186.125 3053.98 189.4 3049.83 194.05C3045 199.85 3044.4 210.3 3044.4 221.325C3044.4 232.35 3045 243.175 3050.23 248.975C3053.9 253.225 3060.23 256.325 3068.98 256.325C3077.94 256.341 3086.78 254.152 3094.7 249.95L3094.65 212.3Z" fill="white"/>
<path d="M3209.1 236.475L3197.7 271.1H3180L3226.8 133.375H3246.35L3290.25 271.1H3272.5L3261.65 236.475H3209.1ZM3257.28 222.75L3236 154.075L3213.5 222.75H3257.28Z" fill="white"/>
<path d="M3342.5 272.275C3337.41 272.38 3332.37 271.359 3327.72 269.285C3323.07 267.21 3318.94 264.133 3315.63 260.275C3308.65 252.35 3306.15 240.725 3306.15 222.775C3306.15 204.825 3308.65 192.4 3318.65 182.925C3325.23 176.55 3334.9 173.45 3345.73 173.45C3354.64 173.348 3363.45 175.334 3371.45 179.25V129.25L3386.15 126.75V271.25H3371.45V260.425C3367.65 264.219 3363.13 267.22 3358.16 269.254C3353.19 271.288 3347.87 272.315 3342.5 272.275ZM3345.8 186.2C3337.08 186.2 3330.8 189.275 3327.03 193.7C3321.8 199.7 3321.23 211.2 3321.23 222.725C3321.23 234.25 3321.8 245.35 3326.65 251.35C3330.7 256.175 3336.13 259.475 3345.8 259.475C3352.43 259.59 3358.87 257.329 3363.98 253.1C3369.78 248.1 3371.48 241.3 3371.48 232.2V192.775C3363.59 188.384 3354.7 186.118 3345.68 186.2H3345.8Z" fill="white"/>
<path d="M3442.63 271.1L3406.83 174.575H3423.08L3451.9 256.025L3481.5 174.575H3497.95L3461.58 271.1H3442.63Z" fill="white"/>
<path d="M3518.67 151.75V138.225L3533.37 135.725V151.75H3518.67ZM3518.67 271.1V174.575H3533.37V271.1H3518.67Z" fill="white"/>
<path d="M3595.27 272.275C3566.65 272.275 3561.42 258.925 3557.92 248.1L3572.05 242.275C3573.22 254.275 3578.05 259.5 3595.27 259.5C3613.25 259.5 3616.72 252.35 3616.72 244.5C3616.72 231.75 3607.07 232.325 3584.42 227.3C3570.7 224.2 3559.42 220.725 3559.42 200.4C3559.42 186.675 3568.12 173.525 3595.4 173.525C3621.9 173.525 3630.02 184.175 3631.17 196.925L3617.25 203.125C3619.37 187.65 3606.02 186.3 3595.4 186.3C3580.4 186.3 3574.3 191.3 3574.3 200.4C3574.3 212.775 3585.9 212.2 3605.85 216.65C3617.82 219.375 3631.75 222.075 3631.75 241.8C3631.62 260 3620.8 272.275 3595.27 272.275Z" fill="white"/>
<path d="M3695 272.275C3660.97 272.275 3654.2 254.475 3654.2 222.75C3654.2 191.025 3661.15 173.425 3695 173.425C3728.85 173.425 3735.82 190.925 3735.82 222.75C3735.82 254.575 3729 272.275 3695 272.275ZM3695 186.2C3670 186.2 3669.27 200.3 3669.27 222.75C3669.27 245.2 3669.67 259.5 3695 259.5C3720 259.5 3720.75 245.375 3720.75 222.75C3720.7 198.175 3718.37 186.2 3695 186.2Z" fill="white"/>
<path d="M3762.65 271.1V174.575H3777.35V189.575C3782.98 182.225 3793.23 173.325 3807.53 173.325C3810.65 173.321 3813.77 173.64 3816.82 174.275L3814.5 189.275C3811.48 188.151 3808.24 187.69 3805.03 187.925C3793.8 187.925 3783.35 196.05 3777.35 204.55V270.9L3762.65 271.1Z" fill="white"/>
<path d="M3889.35 271.1V133.375H3938.28C3964.8 133.375 3977.95 150.4 3977.95 175.55C3977.95 201.075 3960.45 217.725 3936.93 217.725H3905.4V271.1H3889.35ZM3905.4 203.975H3936.35C3947.58 203.975 3961.35 197.6 3961.35 175.55C3961.35 153.5 3947.63 147.125 3936.35 147.125H3905.4V203.975Z" fill="white"/>
<path d="M4013.23 227.775C4013.23 246.55 4014.77 259.5 4038.95 259.5C4057.33 259.5 4062.55 252 4064.1 240.15L4077.83 245.575C4073.95 262.775 4063.7 272.275 4038.95 272.275C4004.9 272.275 3998.12 254.475 3998.12 222.75C3998.12 191.025 4005.1 173.425 4038.95 173.425C4072.8 173.425 4079.75 190.925 4079.75 222.75V227.75L4013.23 227.775ZM4038.95 186.2C4015.92 186.2 4013.43 198 4013.23 215.4H4064.68C4064.48 198 4061.98 186.2 4038.95 186.2Z" fill="white"/>
<path d="M4105.93 271.1V174.575H4120.63V189.575C4126.23 182.225 4136.5 173.325 4150.8 173.325C4153.92 173.32 4157.03 173.638 4160.08 174.275L4157.75 189.275C4154.74 188.145 4151.51 187.685 4148.3 187.925C4137.08 187.925 4126.63 196.05 4120.63 204.55V270.9L4105.93 271.1Z" fill="white"/>
<path d="M4235.63 142.675C4231.08 139.974 4225.91 138.501 4220.63 138.4C4214.65 138.4 4208.13 141.125 4208.13 152.15V174.65H4231.72V187.15H4208.13V271.3H4193.4V186.95H4178.12V174.45H4193.4V151.95C4193.4 135.5 4202.3 125.45 4219.13 125.45C4226.27 125.396 4233.34 126.915 4239.83 129.9L4235.63 142.675Z" fill="white"/>
<path d="M4291.3 272.275C4257.25 272.275 4250.47 254.475 4250.47 222.75C4250.47 191.025 4257.45 173.425 4291.3 173.425C4325.15 173.425 4332.1 190.925 4332.1 222.75C4332.1 254.575 4325.32 272.275 4291.3 272.275ZM4291.3 186.2C4266.15 186.2 4265.57 200.3 4265.57 222.75C4265.57 245.2 4265.95 259.5 4291.3 259.5C4316.3 259.5 4317.02 245.375 4317.02 222.75C4317.02 198.175 4314.7 186.2 4291.3 186.2Z" fill="white"/>
<path d="M4358.97 271.1V174.575H4373.67V189.575C4379.3 182.225 4389.55 173.325 4403.85 173.325C4406.97 173.321 4410.09 173.64 4413.15 174.275L4410.82 189.275C4407.8 188.151 4404.57 187.69 4401.35 187.925C4390.12 187.925 4379.67 196.05 4373.67 204.55V270.9L4358.97 271.1Z" fill="white"/>
<path d="M4434.55 271.1V174.575H4449.23V183.875C4457.48 177.286 4467.69 173.612 4478.25 173.425C4486.78 173.425 4499.93 176.125 4506.88 187.925C4515.77 178.882 4527.85 173.678 4540.53 173.425C4552.53 173.425 4573.8 178.85 4573.8 207.475V271.1H4559.1V207.5C4559.1 195.7 4552.9 186.225 4537.83 186.225C4525.83 186.225 4516.35 193.55 4510.75 198.725C4511.33 201.596 4511.59 204.522 4511.53 207.45V271.075H4496.83V207.5C4496.83 195.7 4490.63 186.225 4475.55 186.225C4464.13 186.225 4454.85 192.8 4449.23 198.025V271.125L4434.55 271.1Z" fill="white"/>
<path d="M4628.5 272.275C4610.7 272.275 4597.75 260.075 4597.75 241.5C4597.75 227 4608.38 211.5 4633.73 211.5C4641.48 211.553 4649.2 212.459 4656.75 214.2V203.2C4656.75 198.2 4655.98 193.5 4652.1 190.425C4649 187.925 4643.98 186.175 4635.65 186.175C4622.5 186.175 4618.15 188.875 4614.78 193.125C4613.21 195.08 4612.02 197.31 4611.28 199.7L4599.68 191.2C4602.58 185.775 4610.53 173.4 4635.65 173.4C4665.25 173.4 4671.45 186.35 4671.45 201.45V271.075H4656.75V261.075C4648.03 268.4 4640.5 272.275 4628.5 272.275ZM4636.83 224.3C4622.5 224.3 4612.83 228.35 4612.83 242.275C4612.83 256.6 4624.45 259.5 4633.35 259.5C4642.63 259.5 4656.75 253.7 4656.75 237.825V227.2C4650.26 225.391 4643.56 224.417 4636.83 224.3Z" fill="white"/>
<path d="M4700.38 271.1V174.575H4715V183.875C4723.26 177.286 4733.46 173.612 4744.02 173.425C4756 173.425 4777.27 178.85 4777.27 207.475V271.1H4762.57V207.5C4762.57 195.7 4756.4 186.225 4741.3 186.225C4729.9 186.225 4720.6 192.8 4715 198.025V271.125L4700.38 271.1Z" fill="white"/>
<path d="M4844.15 272.275C4810.1 272.275 4803.33 254.475 4803.33 222.75C4803.33 191.025 4810.3 173.425 4844.15 173.425C4868.9 173.425 4879.15 182.9 4883.03 200.125L4869.3 205.525C4867.75 193.725 4862.53 186.2 4844.15 186.2C4819 186.2 4818.43 199.35 4818.43 222.75C4818.43 246.15 4819.2 259.5 4844.15 259.5C4862.53 259.5 4867.75 252 4869.3 240.15L4883.03 245.575C4879.18 262.775 4868.9 272.275 4844.15 272.275Z" fill="white"/>
<path d="M4920.12 227.775C4920.12 246.55 4921.67 259.5 4945.85 259.5C4964.22 259.5 4969.45 252 4971 240.15L4984.72 245.575C4980.85 262.775 4970.6 272.275 4945.85 272.275C4911.8 272.275 4905.05 254.475 4905.05 222.75C4905.05 191.025 4912 173.425 4945.85 173.425C4979.7 173.425 4986.65 190.925 4986.65 222.75V227.75L4920.12 227.775ZM4945.85 186.2C4922.82 186.2 4920.32 198 4920.12 215.4H4971.57C4971.37 198 4968.87 186.2 4945.85 186.2Z" fill="white"/>
<path d="M2549.6 468.6L2538.18 503.225H2520.4L2567.2 365.5H2586.73L2630.65 503.225H2612.85L2602.03 468.6H2549.6ZM2597.75 454.85L2576.48 386.2L2553.98 454.85H2597.75Z" fill="white"/>
<path d="M2651.8 503.225V406.7H2666.5V415.975C2674.76 409.396 2684.96 405.723 2695.52 405.525C2707.5 405.525 2728.8 410.95 2728.8 439.575V503.225H2714.07V439.575C2714.07 427.775 2707.9 418.3 2692.8 418.3C2681.4 418.3 2672.12 424.875 2666.5 430.1V503.225H2651.8Z" fill="white"/>
<path d="M2756.9 503.225V406.7H2771.6V415.975C2779.86 409.396 2790.06 405.723 2800.62 405.525C2812.62 405.525 2833.9 410.95 2833.9 439.575V503.225H2819.2V439.575C2819.2 427.775 2813 418.3 2797.9 418.3C2786.5 418.3 2777.22 424.875 2771.6 430.1V503.225H2756.9Z" fill="white"/>
<path d="M2894.15 504.375C2882.18 504.375 2860.88 498.95 2860.88 470.325V406.7H2875.6V470.325C2875.6 482.125 2881.78 491.625 2896.88 491.625C2908.27 491.625 2917.58 485.025 2923.18 479.8V406.7H2937.88V503.225H2923.18V493.925C2914.91 500.504 2904.71 504.176 2894.15 504.375Z" fill="white"/>
<path d="M2966.83 383.875V370.325L2981.5 367.825V383.875H2966.83ZM2966.83 503.225V406.7H2981.5V503.225H2966.83Z" fill="white"/>
<path d="M3040 504.375C3031.5 504.375 3017 500.9 3017 481.35V419.075H3003.05V406.7H3017V375.55L3031.7 373.05V406.725H3057.8V419.1H3031.7V481C3031.66 482.433 3031.92 483.858 3032.47 485.182C3033.02 486.507 3033.84 487.701 3034.88 488.687C3035.92 489.673 3037.16 490.428 3038.51 490.904C3039.86 491.381 3041.3 491.566 3042.72 491.45C3048.45 491.297 3054.04 489.697 3058.97 486.8L3062.85 499.175C3055.73 502.623 3047.91 504.401 3040 504.375Z" fill="white"/>
<path d="M3084.1 383.875V370.325L3098.8 367.825V383.875H3084.1ZM3084.1 503.225V406.7H3098.8V503.225H3084.1Z" fill="white"/>
<path d="M3140.15 460C3140.15 478.775 3141.7 491.75 3165.88 491.75C3184.28 491.75 3189.5 484.25 3191.03 472.4L3204.78 477.8C3200.9 495.025 3190.65 504.5 3165.88 504.5C3131.85 504.5 3125.08 486.7 3125.08 454.975C3125.08 423.25 3132.05 405.65 3165.88 405.65C3199.7 405.65 3206.7 423.15 3206.7 454.975V459.975L3140.15 460ZM3165.88 418.425C3142.88 418.425 3140.35 430.225 3140.15 447.625H3191.6C3191.43 430 3188.9 418.3 3165.88 418.3V418.425Z" fill="white"/>
<path d="M3264.6 504.375C3235.98 504.375 3230.78 491.025 3227.28 480.2L3241.4 474.4C3242.55 486.4 3247.4 491.625 3264.6 491.625C3282.6 491.625 3286.08 484.45 3286.08 476.625C3286.08 463.85 3276.4 464.425 3253.78 459.4C3240.05 456.3 3228.63 452.825 3228.63 432.525C3228.63 418.8 3237.35 405.625 3264.6 405.625C3291.13 405.625 3299.23 416.275 3300.4 429.05L3286.48 435.225C3288.6 419.75 3275.25 418.4 3264.6 418.4C3249.6 418.4 3243.53 423.4 3243.53 432.525C3243.53 444.9 3255.13 444.325 3275.05 448.775C3287.05 451.475 3300.98 454.175 3300.98 473.925C3300.98 492 3290.15 504.375 3264.6 504.375Z" fill="white"/>
<path d="M3531.92 503.225V365.5H3547.97V489.475H3602.97V503.225H3531.92Z" fill="white"/>
<path d="M3626.23 383.875V370.325L3640.93 367.825V383.875H3626.23ZM3626.23 503.225V406.7H3640.93V503.225H3626.23Z" fill="white"/>
<path d="M3720.98 374.775C3716.43 372.087 3711.26 370.623 3705.98 370.525C3699.98 370.525 3693.48 373.225 3693.48 384.25V406.75H3717.08V419.125H3693.48V503.275H3678.78V419.075H3663.5V406.7H3678.78V384.2C3678.78 367.775 3687.68 357.7 3704.5 357.7C3711.64 357.666 3718.7 359.184 3725.2 362.15L3720.98 374.775Z" fill="white"/>
<path d="M3750.15 460C3750.15 478.775 3751.7 491.75 3775.87 491.75C3794.25 491.75 3799.47 484.25 3801.02 472.4L3814.75 477.8C3810.87 495.025 3800.62 504.5 3775.87 504.5C3741.82 504.5 3735.05 486.7 3735.05 454.975C3735.05 423.25 3742.02 405.65 3775.87 405.65C3809.72 405.65 3816.67 423.15 3816.67 454.975V459.975L3750.15 460ZM3775.87 418.425C3752.85 418.425 3750.35 430.225 3750.15 447.625H3801.6C3801.4 430 3798.9 418.3 3775.87 418.3V418.425Z" fill="white"/>
<path d="M4049.17 503.225V365.5H4097.92C4123.85 365.5 4137.57 383 4137.57 405.15C4137.69 414.967 4134.12 424.47 4127.57 431.777C4121.01 439.084 4111.95 443.66 4102.17 444.6L4139.12 503.225H4118.62L4084 444.8H4065.25V503.225H4049.17ZM4065.25 431.075H4094.05C4107.4 431.075 4120.95 425.65 4120.95 405.15C4120.95 384.65 4107.4 379.225 4094.05 379.225H4065.25V431.075Z" fill="white"/>
<path d="M4172.15 460C4172.15 478.775 4173.7 491.75 4197.88 491.75C4216.25 491.75 4221.48 484.25 4223.03 472.4L4236.75 477.8C4232.88 495.025 4222.63 504.5 4197.88 504.5C4163.83 504.5 4157.05 486.7 4157.05 454.975C4157.05 423.25 4164.03 405.65 4197.88 405.65C4231.73 405.65 4238.68 423.15 4238.68 454.975V459.975L4172.15 460ZM4197.88 418.425C4174.85 418.425 4172.35 430.225 4172.15 447.625H4223.6C4223.4 430 4220.9 418.3 4197.88 418.3V418.425Z" fill="white"/>
<path d="M4292.73 504.375C4284.23 504.375 4269.7 500.9 4269.7 481.35V419.075H4255.8V406.7H4269.7V375.55L4284.43 373.05V406.725H4310.53V419.1H4284.43V481C4284.39 482.433 4284.65 483.858 4285.2 485.182C4285.74 486.507 4286.56 487.701 4287.6 488.687C4288.65 489.673 4289.88 490.428 4291.23 490.904C4292.59 491.381 4294.02 491.566 4295.45 491.45C4301.17 491.291 4306.76 489.692 4311.7 486.8L4315.55 499.175C4308.44 502.626 4300.63 504.405 4292.73 504.375Z" fill="white"/>
<path d="M4336.92 383.875V370.325L4351.62 367.825V383.875H4336.92ZM4336.92 503.225V406.7H4351.62V503.225H4336.92Z" fill="white"/>
<path d="M4380.38 503.225V406.7H4395V421.7C4400.6 414.35 4410.85 405.45 4425.17 405.45C4428.29 405.445 4431.4 405.772 4434.45 406.425L4432.12 421.425C4429.1 420.294 4425.87 419.833 4422.65 420.075C4411.45 420.075 4401 428.2 4395 436.725V503.075L4380.38 503.225Z" fill="white"/>
<path d="M4465.52 460C4465.52 478.775 4467.07 491.75 4491.25 491.75C4509.62 491.75 4514.85 484.25 4516.4 472.4L4530.15 477.8C4526.27 495.025 4516.02 504.5 4491.25 504.5C4457.22 504.5 4450.45 486.7 4450.45 454.975C4450.45 423.25 4457.4 405.65 4491.25 405.65C4525.1 405.65 4532.07 423.15 4532.07 454.975V459.975L4465.52 460ZM4491.25 418.425C4468.25 418.425 4465.72 430.225 4465.52 447.625H4516.97C4516.8 430 4514.27 418.3 4491.25 418.3V418.425Z" fill="white"/>
<path d="M4557.5 503.225V406.7H4572.2V415.975C4580.46 409.396 4590.66 405.723 4601.22 405.525C4609.72 405.525 4622.87 408.25 4629.85 420.05C4638.74 411 4650.82 405.787 4663.5 405.525C4675.5 405.525 4696.77 410.95 4696.77 439.575V503.225H4682.07V439.575C4682.07 427.775 4675.87 418.3 4660.8 418.3C4648.8 418.3 4639.32 425.65 4633.7 430.8C4634.3 433.66 4634.57 436.579 4634.5 439.5V503.15H4619.78V439.575C4619.78 427.775 4613.6 418.3 4598.5 418.3C4587.1 418.3 4577.83 424.875 4572.2 430.1V503.225H4557.5Z" fill="white"/>
<path d="M4737.23 460C4737.23 478.775 4738.78 491.75 4762.95 491.75C4781.33 491.75 4786.55 484.25 4788.1 472.4L4801.82 477.8C4797.95 495.025 4787.7 504.5 4762.95 504.5C4728.9 504.5 4722.12 486.7 4722.12 454.975C4722.12 423.25 4729.1 405.65 4762.95 405.65C4796.8 405.65 4803.75 423.15 4803.75 454.975V459.975L4737.23 460ZM4762.95 418.425C4739.93 418.425 4737.43 430.225 4737.23 447.625H4788.67C4788.47 430 4785.98 418.3 4762.95 418.3V418.425Z" fill="white"/>
<path d="M4829.17 503.225V406.7H4843.85V415.975C4852.12 409.399 4862.31 405.727 4872.87 405.525C4884.87 405.525 4906.15 410.95 4906.15 439.575V503.225H4891.45V439.575C4891.45 427.775 4885.25 418.3 4870.17 418.3C4858.75 418.3 4849.47 424.875 4843.85 430.1V503.225H4829.17Z" fill="white"/>
<path d="M4962.3 504.375C4953.77 504.375 4939.27 500.9 4939.27 481.35V419.075H4925.35V406.7H4939.27V375.55L4953.97 373.05V406.725H4980V419.1H4953.87V481C4953.84 482.432 4954.1 483.855 4954.65 485.177C4955.2 486.5 4956.02 487.692 4957.06 488.678C4958.1 489.663 4959.34 490.419 4960.69 490.896C4962.04 491.374 4963.47 491.562 4964.9 491.45C4970.62 491.297 4976.21 489.697 4981.15 486.8L4985.02 499.175C4977.94 502.605 4970.17 504.383 4962.3 504.375Z" fill="white"/>
<path d="M954.3 393.4L914.6 394.075H823.9L785.475 393.4L750.475 502.275C740.653 504.186 730.653 505.024 720.65 504.775C708.831 504.82 697.06 503.281 685.65 500.2L683.675 496.95L833.175 56.45C846.527 54.4476 860.028 53.6111 873.525 53.95C886.815 53.5875 900.11 54.4242 913.25 56.45L1061.55 497.05C1052.28 503.133 1040.37 506.175 1025.8 506.175C1011.23 506.175 1000.86 503.567 994.675 498.35C988.5 493.125 983.2 483.6 978.8 469.675L954.3 393.4ZM803.375 337.35L837.125 336.7H903.325C921.425 337.15 932.458 337.367 936.425 337.35L905.975 242.85C890.525 194.283 878.833 155 870.9 125H867.5C862.2 148.9 853.592 180.4 841.675 219.5L803.375 337.35Z" fill="white"/>
<path d="M1082.05 477.5C1084.21 459.815 1092.11 443.329 1104.55 430.575C1139.72 449.725 1168.3 459.292 1190.3 459.275C1212.7 459.275 1229.29 455.575 1240.08 448.175C1250.86 440.775 1256.25 431 1256.25 418.85C1256.25 399.733 1242.4 384.967 1214.7 374.55L1177.78 360.85C1121.98 339.967 1094.07 308.9 1094.05 267.65C1094.05 237.65 1104.98 214.075 1126.83 196.925C1148.68 179.775 1177.23 171.183 1212.5 171.15C1249.28 171.38 1285.6 179.371 1319.08 194.6C1318.95 204.039 1317.04 213.369 1313.45 222.1C1310.39 230.623 1305.23 238.24 1298.45 244.25C1267.1 229.933 1237.75 222.767 1210.4 222.75C1195.85 222.75 1184.27 226.225 1175.65 233.175C1171.61 236.205 1168.33 240.144 1166.09 244.674C1163.85 249.203 1162.71 254.197 1162.75 259.25C1162.75 269.667 1165.95 277.7 1172.35 283.35C1178.75 289 1189.23 294.65 1203.8 300.3L1243.5 315.3C1299.58 336.6 1327.62 369.192 1327.6 413.075C1327.6 443.075 1315.93 466.758 1292.6 484.125C1269.27 501.492 1237.48 510.117 1197.25 510C1157.07 510 1118.67 499.167 1082.05 477.5Z" fill="white"/>
<path d="M1358.77 477.5C1360.93 459.816 1368.84 443.329 1381.27 430.575C1416.42 449.725 1445 459.292 1467 459.275C1489.43 459.275 1506.02 455.575 1516.77 448.175C1527.52 440.775 1532.92 431 1532.95 418.85C1532.95 399.733 1519.1 384.967 1491.4 374.55L1454.5 360.85C1398.65 339.967 1370.73 308.9 1370.75 267.65C1370.75 237.65 1381.67 214.075 1403.52 196.925C1425.37 179.775 1453.95 171.192 1489.25 171.175C1526.03 171.402 1562.35 179.393 1595.82 194.625C1595.7 204.064 1593.79 213.394 1590.2 222.125C1587.12 230.644 1581.97 238.258 1575.2 244.275C1543.87 229.958 1514.52 222.792 1487.17 222.775C1472.59 222.775 1461.01 226.25 1452.42 233.2C1448.38 236.229 1445.1 240.167 1442.85 244.697C1440.61 249.226 1439.46 254.22 1439.5 259.275C1439.5 269.692 1442.69 277.725 1449.07 283.375C1455.46 289.025 1465.94 294.675 1480.52 300.325L1520.27 315.325C1576.29 336.625 1604.31 369.217 1604.32 413.1C1604.32 443.1 1592.66 466.783 1569.32 484.15C1545.99 501.517 1514.2 510.133 1473.95 510C1433.8 510 1395.41 499.167 1358.77 477.5Z" fill="white"/>
<path d="M1908.85 362.125H1714.23C1715.58 392.125 1722.09 415.15 1733.78 431.2C1745.46 447.25 1765.21 455.292 1793.03 455.325C1807.45 455.169 1821.8 453.195 1835.73 449.45C1852.2 445.056 1868.08 438.711 1883.05 430.55C1894.08 440.55 1901.36 454.892 1904.88 473.575C1869.58 497.858 1828.09 510 1780.43 510C1755.28 510 1734.1 505.658 1716.9 496.975C1700.19 488.694 1685.8 476.403 1675 461.2C1663.64 444.782 1655.64 426.276 1651.48 406.75C1646.48 384.399 1644.03 361.553 1644.18 338.65C1644 316.049 1647.13 293.543 1653.48 271.85C1658.88 252.669 1667.8 234.662 1679.8 218.75C1691.19 203.983 1705.81 192.012 1722.53 183.75C1740.35 175.066 1759.97 170.706 1779.8 171.025C1799.17 170.687 1818.4 174.231 1836.38 181.45C1852.31 187.987 1866.65 197.877 1878.43 210.45C1890.16 223.308 1899.06 238.485 1904.55 255C1910.65 272.94 1913.67 291.779 1913.5 310.725C1913.5 319.425 1913.18 328 1912.53 336.5C1911.82 345.108 1910.59 353.666 1908.85 362.125ZM1781.78 221.35C1739.83 221.35 1717.33 251.983 1714.28 313.25H1848.03V304.775C1848.03 280.008 1842.62 259.908 1831.8 244.475C1820.98 229.042 1804.31 221.333 1781.78 221.35Z" fill="white"/>
<path d="M2131.95 178.975C2134.28 187.245 2135.39 195.81 2135.25 204.4C2135.43 212.77 2134.32 221.118 2131.95 229.15L2050.53 227.85V422.175C2050.53 441.225 2059.57 450.758 2077.65 450.775H2123.35C2126.83 460.17 2128.62 470.106 2128.65 480.125C2128.92 486.646 2128.48 493.176 2127.33 499.6C2102.72 502.597 2077.96 504.133 2053.18 504.2C2006.83 504.2 1983.66 481.833 1983.68 437.1V228.5L1934.68 229.15C1932.85 221.139 1931.96 212.942 1932.03 204.725C1932.01 196.073 1932.9 187.442 1934.68 178.975L1983.68 180.275V122.925C1983.68 107.275 1986.32 96.1915 1991.6 89.6749C1996.88 83.1582 2006.35 79.9332 2020 79.9999H2045.83L2050.45 84.5749V180.925L2131.95 178.975Z" fill="white"/>
<path d="M547.75 25.4499C543.255 20.9516 537.915 17.3876 532.037 14.9633C526.158 12.539 519.858 11.3025 513.5 11.3249H66.3997C60.0398 11.3117 53.7397 12.5535 47.8605 14.9789C41.9812 17.4044 36.6382 20.966 32.1376 25.4597C27.6369 29.9534 24.0671 35.2908 21.6325 41.1663C19.1979 47.0418 17.9464 53.3399 17.9497 59.6999V506.85C17.9696 519.689 23.0821 531.996 32.1654 541.07C41.2486 550.143 53.5607 555.243 66.3997 555.25H513.5C526.339 555.243 538.651 550.143 547.734 541.07C556.817 531.996 561.93 519.689 561.95 506.85V59.6999C561.955 53.337 560.704 47.0358 558.267 41.1581C555.83 35.2804 552.256 29.9421 547.75 25.4499ZM550.25 504.575C550.243 514.923 546.129 524.845 538.812 532.162C531.495 539.48 521.573 543.593 511.225 543.6H68.7247C58.3787 543.587 48.4602 539.471 41.1445 532.155C33.8287 524.839 29.7129 514.921 29.6997 504.575V62.0749C29.6864 51.7265 33.776 41.7949 41.0722 34.4564C48.3685 27.1179 58.2764 22.9712 68.6247 22.9249H511.25C521.596 22.9381 531.514 27.0539 538.83 34.3697C546.146 41.6854 550.261 51.6039 550.275 61.9499L550.25 504.575Z" fill="white"/>
<path d="M511.275 43.5999H68.6254C63.7587 43.5999 59.0913 45.5332 55.65 48.9745C52.2087 52.4158 50.2754 57.0832 50.2754 61.9499V192.5L203.55 157.5C228.55 151.85 232.925 160.725 213.55 177.325L110 252.3C101.341 258.502 91.0147 261.953 80.3662 262.203C69.7177 262.453 59.2408 259.49 50.3004 253.7V303.35C114.825 277.8 169.225 231.025 224.225 184.725C231.2 178.85 238.175 172.95 245.225 167.225C281.275 137.35 318.175 108.85 358.95 87.6999C492.275 18.5499 412 139.6 360.05 240.925C308.65 341.15 502.55 220.45 506.875 217.8C505.6 219.05 476.3 247.95 397.125 305.15C362.975 329.85 319.625 359.825 265.05 395.15C80.9504 514.425 179 360 261.05 220C315.55 127.05 280.5 148.85 250.8 174C235.8 186.675 222.125 200.225 222.125 200.225L157.125 256.05C122.949 283.574 87.3137 309.236 50.3754 332.925V504.6C50.3754 509.471 52.3071 514.144 55.7469 517.593C59.1868 521.042 63.8541 522.987 68.7254 523H295.875L254.525 478.425C237.175 459.725 236.65 436.325 253.425 426.45L273.775 412.15C350.725 358 406.95 316.775 406.95 316.775C407.875 316.15 408.725 315.5 409.6 314.925C428.45 302.425 437.85 310.325 430.7 333.675L372.25 522.95H511.275C516.147 522.937 520.814 520.992 524.254 517.543C527.694 514.094 529.625 509.421 529.625 504.55V62.0499C529.639 59.6318 529.174 57.2348 528.257 54.997C527.341 52.7591 525.992 50.7244 524.286 49.0098C522.581 47.2952 520.554 45.9346 518.321 45.0062C516.088 44.0778 513.694 43.5999 511.275 43.5999ZM505.25 115.475L484.75 182.05C477.25 205.925 452.5 233.425 429.475 243.125C429.475 243.125 361.375 271.825 391.975 212C415.325 166.4 435.2 127 435.2 127C446.45 104.675 469.8 83.1749 487.1 79.2249C504.4 75.2749 512.5 91.5999 505.25 115.475Z" fill="white"/>
</svg>
