<svg xmlns="http://www.w3.org/2000/svg" viewBox="0 0 766.43 217.41"><g id="a7bd8d51-8335-47b2-b120-1932cb583d82" data-name="Layer 2"><g id="f83d674b-32f8-4064-82ea-d66470fc6328" data-name="Layer 1"><path d="M374.31,146.29l-13.18.22H331l-12.75-.22L306.61,183a45.22,45.22,0,0,1-9.89.87,43.25,43.25,0,0,1-11.65-1.54l-.66-1.1L334.09,32.65a77.5,77.5,0,0,1,13.4-.87,73.54,73.54,0,0,1,13.19.87l49.24,148.59q-4.6,3.07-11.87,3.08t-10.33-2.64c-2.05-1.76-3.81-5-5.27-9.66Zm-50.11-18.9,11.2-.22h22c6,.15,9.67.22,11,.22L358.27,95.52q-7.69-24.61-11.65-39.79h-1.1q-2.64,12.1-8.58,31.88Z" fill="#8698ad"/><path d="M416.73,174.65a23.88,23.88,0,0,1,2.41-8.46,23.24,23.24,0,0,1,5-7.37q17.52,9.69,28.47,9.68,11.16,0,16.52-3.74a11.52,11.52,0,0,0,5.37-9.89q0-9.68-13.79-15l-12.26-4.62q-27.8-10.55-27.8-31.43,0-15.16,10.88-23.85T460,71.34a85.61,85.61,0,0,1,35.38,7.91,25.69,25.69,0,0,1-1.86,9.24A18.37,18.37,0,0,1,488.61,96Q473,88.7,459.37,88.71q-7.25,0-11.53,3.51a10.93,10.93,0,0,0-4.29,8.79q0,5.28,3.18,8.14t10.45,5.71l13.18,5.06q27.93,10.77,27.92,33,0,15.17-11.65,24T455,185.64A73,73,0,0,1,416.73,174.65Z" fill="#8698ad"/><path d="M508.61,174.65a23.47,23.47,0,0,1,2.41-8.46,23.08,23.08,0,0,1,5-7.37q17.51,9.69,28.46,9.68,11.18,0,16.53-3.74a11.52,11.52,0,0,0,5.37-9.89q0-9.68-13.8-15l-12.25-4.62q-27.81-10.55-27.8-31.43,0-15.16,10.88-23.85t28.46-8.68a85.66,85.66,0,0,1,35.39,7.91,25.5,25.5,0,0,1-1.87,9.24A18.46,18.46,0,0,1,580.49,96q-15.62-7.26-29.24-7.25-7.25,0-11.53,3.51a10.93,10.93,0,0,0-4.29,8.79q0,5.28,3.18,8.14c2.12,1.91,5.61,3.81,10.44,5.71l13.19,5.06q27.91,10.77,27.92,33,0,15.17-11.65,24t-31.66,8.79A73,73,0,0,1,508.61,174.65Z" fill="#8698ad"/><path d="M691.26,135.75H626.64q.66,15.15,6.49,23.29t19.67,8.14a56.83,56.83,0,0,0,14.18-2,70.51,70.51,0,0,0,15.71-6.38q5.5,5.06,7.25,14.51-17.58,12.31-41.32,12.31-12.52,0-21.1-4.4a37.62,37.62,0,0,1-13.95-12.08,51.33,51.33,0,0,1-7.81-18.36,103.77,103.77,0,0,1-2.42-23,79.41,79.41,0,0,1,3.08-22.53,54.49,54.49,0,0,1,8.79-17.91,40.82,40.82,0,0,1,14.18-11.76,41.45,41.45,0,0,1,19-4.29,47.62,47.62,0,0,1,18.79,3.52,39.74,39.74,0,0,1,13.95,9.78,41.9,41.9,0,0,1,8.68,14.94,57.53,57.53,0,0,1,3,18.8c0,2.93-.11,5.83-.32,8.68A74.08,74.08,0,0,1,691.26,135.75Zm-42.2-47.48q-20.88,0-22.42,31H671V116.4q0-12.53-5.38-20.33T649.06,88.27Z" fill="#8698ad"/><path d="M765.34,74a30.54,30.54,0,0,1,1.09,8.57,28.19,28.19,0,0,1-1.09,8.35l-27-.44V156q0,9.64,9,9.65h15.17a29.12,29.12,0,0,1,1.76,9.9,30.48,30.48,0,0,1-.44,6.56,202.84,202.84,0,0,1-24.62,1.56q-23.08,0-23.08-22.63V90.68l-16.26.22a35.7,35.7,0,0,1-.89-8.24,41.75,41.75,0,0,1,.89-8.68l16.26.44V55.07q0-7.91,2.64-11.2c1.75-2.2,4.91-3.3,9.45-3.3h8.57l1.54,1.54V74.64Z" fill="#8698ad"/><path d="M225.8,70.3c-8.63,28.82,19,10.65,19,10.65,9.34-6.14,18.05-20.26,19.35-31.37l3.6-31c1.3-11.1-3.6-17.62-10.89-14.48s-15.81,14.51-19,25.25C237.91,29.39,232.38,48.34,225.8,70.3Z" fill="#8698ad" fill-rule="evenodd"/><path d="M151.05,66.64c7-8.69,4.39-12.18-5.88-7.75L80.56,86.79c-10.27,4.43-11.33,13.52-2.35,20.2l4.11,3.06a23.11,23.11,0,0,0,30.08-2.84Z" fill="#8698ad" fill-rule="evenodd"/><path d="M192.81,158.14l-7.63,7.79c-6.45,5.59-4.38,15.63,4.59,22.3l34.71,25.84c9,6.67,17.38,3,18.68-8.07l11-94.17c1.3-11.11-3.92-13.53-11.58-5.39C242.56,106.44,221.64,128.68,192.81,158.14Z" fill="#8698ad" fill-rule="evenodd"/><path d="M55.37,173.39c36.8-23.37,77-71.27,77-71.27L156,72.89s42.56-61.41,18.35,5.41-54.15,141.23,15.67,75.15c69.57-65.84,90.07-95.7,90.07-95.7s-75.76,69.51-61.44,21.7S257.93-26.9,206,13.53C156.55,52,128.91,118.15,69.69,141.42,16.45,162.34,0,109,0,109S14,199.67,55.37,173.39Z" fill="#8698ad" fill-rule="evenodd"/></g></g></svg>