<svg width="244" height="100" viewBox="0 0 244 100" fill="none" xmlns="http://www.w3.org/2000/svg">
<g clip-path="url(#clip0_404_154)">
<path d="M127.505 1.30319C126.735 1.15276 125.576 1.07601 124.059 1.07601C122.543 1.07601 121.37 1.15276 120.562 1.30319L120.349 1.3431L107.572 38.9682L107.517 39.1324L107.853 39.682L107.994 39.7203C108.963 39.9874 109.999 40.1225 111.072 40.1225C112.145 40.1225 113.024 40.0442 113.686 39.8923L113.891 39.8447L116.851 30.661L119.844 30.7116H127.553L130.649 30.661L132.646 36.8745C133.045 38.1347 133.524 38.9882 134.108 39.4809C134.707 39.9874 135.651 40.233 136.99 40.233C138.328 40.233 139.383 39.9521 140.23 39.3965L140.469 39.2399L127.717 1.34617L127.505 1.30472V1.30319ZM128.891 25.1489C128.401 25.1412 127.636 25.1243 126.592 25.0998H120.962L118.618 25.1458L121.717 15.6152C122.589 12.7571 123.258 10.3518 123.714 8.44692C124.381 10.8844 125.304 13.9605 126.464 17.6137L128.893 25.1489H128.891Z" fill="#CFD8D8"/>
<path d="M155.618 23.2977L152.247 22.0252C151.058 21.5647 150.196 21.1043 149.687 20.653C149.223 20.2447 148.998 19.666 148.998 18.8832C148.998 18.1003 149.311 17.4787 149.957 16.9583C150.617 16.4257 151.532 16.154 152.675 16.154C154.933 16.154 157.397 16.7572 159.999 17.9468L160.212 18.0451L160.392 17.8931C160.963 17.4111 161.425 16.7296 161.764 15.8639C162.099 15.012 162.267 14.1831 162.267 13.4018V13.1608L162.046 13.0626C159.015 11.7195 155.919 11.0395 152.844 11.0395C149.77 11.0395 147.248 11.8024 145.334 13.3051C143.394 14.8293 142.41 16.9491 142.41 19.6031C142.41 23.2624 144.882 26.0422 149.762 27.8658L152.895 29.0278C155.107 29.8597 156.183 30.9772 156.183 32.4446C156.183 33.3564 155.787 34.0701 154.97 34.6304C154.124 35.2121 152.772 35.5068 150.953 35.5068C149.134 35.5068 146.764 34.7025 143.848 33.1154L143.615 32.988L143.42 33.1676C142.902 33.6419 142.44 34.305 142.047 35.1385C141.654 35.9719 141.436 36.7333 141.397 37.4056L141.383 37.6312L141.578 37.7464C144.727 39.6175 148.081 40.5661 151.55 40.5661C155.019 40.5661 157.824 39.7971 159.867 38.2805C161.944 36.7364 162.997 34.6058 162.997 31.9488C162.997 28.0684 160.513 25.1581 155.616 23.2993L155.618 23.2977Z" fill="#CFD8D8"/>
<path d="M179.12 23.2977L175.748 22.0252C174.556 21.5647 173.695 21.1027 173.187 20.6545C172.725 20.2447 172.5 19.666 172.5 18.8847C172.5 18.1034 172.813 17.4802 173.459 16.9583C174.117 16.4257 175.032 16.1555 176.177 16.1555C178.435 16.1555 180.899 16.7588 183.501 17.9484L183.714 18.0466L183.894 17.8946C184.463 17.4127 184.925 16.7296 185.263 15.8654C185.597 15.0166 185.766 14.1877 185.766 13.4033V13.1623L185.545 13.0641C182.514 11.721 179.418 11.041 176.343 11.041C173.269 11.041 170.748 11.8039 168.834 13.3066C166.894 14.8324 165.908 16.9506 165.908 19.6046C165.908 23.264 168.383 26.0453 173.262 27.8673L176.394 29.0293C178.606 29.8628 179.682 30.9802 179.682 32.4461C179.682 33.3579 179.286 34.0717 178.471 34.6319C177.623 35.2137 176.271 35.5084 174.452 35.5084C172.633 35.5084 170.263 34.7041 167.348 33.1169L167.116 32.991L166.921 33.1691C166.4 33.6465 165.936 34.3096 165.548 35.14C165.156 35.9704 164.937 36.7348 164.898 37.4071L164.886 37.6328L165.08 37.7479C168.228 39.619 171.583 40.5676 175.049 40.5676C178.515 40.5676 181.323 39.7986 183.367 38.2821C185.442 36.7394 186.495 34.6089 186.495 31.9503C186.495 28.0699 184.013 25.1596 179.117 23.3008L179.12 23.2977Z" fill="#CFD8D8"/>
<path d="M209.675 14.507C208.669 13.4218 207.425 12.5622 205.977 11.9543C204.53 11.348 202.864 11.0395 201.027 11.0395C199.19 11.0395 197.483 11.4155 195.997 12.1569C194.511 12.8968 193.248 13.9283 192.242 15.2238C191.243 16.5101 190.466 18.0681 189.932 19.8548C189.398 21.6369 189.128 23.5817 189.128 25.6339C189.128 27.6862 189.34 29.6939 189.757 31.5021C190.179 33.3349 190.872 34.9343 191.812 36.2559C192.758 37.5898 194.004 38.6535 195.518 39.4164C197.024 40.1762 198.896 40.563 201.082 40.563C205.19 40.563 208.817 39.4978 211.861 37.3995L212.059 37.2628L212.014 37.0265C211.701 35.3641 211.038 34.0655 210.043 33.166L209.85 32.991L209.62 33.1138C208.266 33.8353 206.941 34.3648 205.684 34.6872C204.427 35.0095 203.237 35.1738 202.15 35.1738C199.925 35.1738 198.333 34.5368 197.418 33.2781C196.523 32.0501 195.997 30.2757 195.849 28.0009H212.29L212.35 27.7031C212.502 26.9555 212.608 26.205 212.668 25.4728C212.725 24.736 212.752 23.99 212.752 23.2563C212.752 21.5248 212.49 19.8916 211.973 18.4012C211.451 16.9 210.677 15.5891 209.675 14.507ZM206.445 22.7574V23.1059H195.853C196.176 18.3536 197.925 16.0435 201.194 16.0435C202.993 16.0435 204.283 16.6344 205.136 17.8501C206.005 19.0919 206.445 20.7435 206.445 22.7574Z" fill="#CFD8D8"/>
<path d="M231.29 11.9681L231.209 11.6964L224.391 11.8607V3.89268L223.777 3.28944H221.431C220.159 3.28944 219.248 3.61485 218.727 4.258C218.217 4.8858 217.97 5.8866 217.97 7.31412V11.8039L213.882 11.6949L213.818 11.9973C213.663 12.7249 213.584 13.4878 213.584 14.2614C213.584 15.035 213.664 15.7656 213.819 16.4226L213.888 16.7112L217.97 16.6575V33.9949C217.97 38.0242 220.08 40.0657 224.243 40.0657C226.263 40.0657 228.398 39.9322 230.586 39.6712L230.831 39.6421L230.899 39.4026C230.985 39.0987 231.026 38.5246 231.026 37.6497C231.026 36.7747 230.867 35.8952 230.554 35.0295L230.464 34.7854H226.325C224.988 34.7854 224.392 34.1499 224.392 32.727V16.6007L231.206 16.7096L231.29 16.4472C231.488 15.8255 231.588 15.081 231.588 14.2307C231.588 13.3803 231.488 12.622 231.292 11.9651L231.29 11.9681Z" fill="#CFD8D8"/>
<path d="M134.819 60.6051C134.569 59.3387 134.233 58.2627 133.812 57.3755C133.39 56.4883 132.868 55.7438 132.248 55.1406C131.748 54.6586 131.201 54.2273 130.607 53.8482C130.013 53.469 129.358 53.1421 128.644 52.8658C127.929 52.591 127.141 52.3792 126.28 52.2334C125.419 52.0876 124.463 52.0139 123.411 52.0139H108.174C107.784 52.0139 107.468 52.3301 107.468 52.72V89.0649C107.468 89.4103 107.747 89.6896 108.092 89.6896H123.411C124.461 89.6896 125.418 89.616 126.28 89.4701C127.141 89.3243 127.929 89.1171 128.644 88.85C129.359 88.5829 130.013 88.256 130.607 87.8676C131.201 87.4793 131.748 87.0449 132.248 86.5629C132.868 85.9781 133.389 85.2367 133.812 84.3403C134.234 83.4454 134.571 82.3632 134.819 81.0969C135.069 79.8305 135.249 78.3539 135.363 76.6654C135.475 74.977 135.53 73.0398 135.53 70.851C135.53 68.6621 135.473 66.725 135.363 65.0365C135.251 63.3481 135.069 61.8714 134.819 60.6051ZM128.501 75.7491C128.449 77.0323 128.363 78.0791 128.243 78.8881C128.122 79.6985 127.976 80.3263 127.804 80.7745C127.632 81.2228 127.418 81.6019 127.158 81.912C126.71 82.4983 126.125 82.9373 125.401 83.2305C124.678 83.5237 123.729 83.6695 122.558 83.6695H114.134V58.0355H122.558C123.729 58.0355 124.676 58.1814 125.401 58.4745C126.124 58.7677 126.71 59.2067 127.158 59.7931C127.416 60.1031 127.631 60.4823 127.804 60.9305C127.976 61.3787 128.124 62.0065 128.243 62.817C128.363 63.6274 128.451 64.6727 128.501 65.956C128.553 67.2392 128.578 68.8724 128.578 70.8525C128.578 72.8326 128.552 74.4658 128.501 75.7491Z" fill="#CFD8D8"/>
<path d="M145.539 51.6363L140.845 52.4114C140.431 52.4805 140.127 52.8382 140.127 53.2572V57.0731C140.127 57.5474 140.511 57.9312 140.985 57.9312H145.679C146.153 57.9312 146.537 57.5474 146.537 57.0731V52.482C146.537 51.9525 146.063 51.5503 145.539 51.6363Z" fill="#CFD8D8"/>
<path d="M146.536 61.7563H140.127V89.6896H146.536V61.7563Z" fill="#CFD8D8"/>
<path d="M173.97 61.7563H168.22C168.037 61.7563 167.89 61.9037 167.89 62.0863V63.8761C167.201 63.17 166.258 62.576 165.061 62.0925C163.864 61.6105 162.464 61.3695 160.861 61.3695C159.948 61.3695 159.099 61.4816 158.316 61.7057C157.532 61.9298 156.821 62.2091 156.184 62.5453C155.547 62.8814 154.982 63.256 154.491 63.6689C154 64.0818 153.599 64.4793 153.289 64.8569C152.877 65.3573 152.527 65.8869 152.243 66.4456C151.959 67.0059 151.735 67.6736 151.57 68.4488C151.406 69.2239 151.289 70.1495 151.222 71.2271C151.153 72.3046 151.119 73.6262 151.119 75.1934C151.119 76.4337 151.136 77.5757 151.171 78.6179C151.205 79.6602 151.314 80.6257 151.494 81.5129C151.675 82.4001 151.959 83.2136 152.347 83.955C152.734 84.6964 153.282 85.3764 153.988 85.9965C155.073 86.9436 156.287 87.6543 157.632 88.1286C158.975 88.6029 160.422 88.8393 161.973 88.8393C163.316 88.8393 164.479 88.7272 165.462 88.5031C166.444 88.279 167.253 88.0211 167.89 87.728V89.2783C167.89 90.2775 167.804 91.1479 167.632 91.8877C167.46 92.6276 167.172 93.2446 166.766 93.7358C166.361 94.227 165.824 94.5923 165.152 94.8348C164.479 95.0758 163.635 95.1971 162.619 95.1971C161.964 95.1971 161.386 95.1449 160.888 95.0421C160.387 94.9392 159.948 94.7965 159.569 94.6153C159.19 94.4342 158.866 94.2362 158.6 94.0213C158.333 93.8049 158.105 93.5777 157.916 93.3367C157.633 92.9898 157.417 92.6122 157.265 92.2054C157.118 91.811 156.66 91.6314 156.275 91.8033L152.19 93.6268C151.804 93.7987 151.633 94.2623 151.827 94.6384C152.269 95.4949 152.877 96.2746 153.65 96.9807C154.063 97.3599 154.559 97.7298 155.136 98.092C155.713 98.4543 156.381 98.7766 157.139 99.0606C157.897 99.3446 158.759 99.5733 159.722 99.7452C160.686 99.9171 161.772 100.003 162.978 100.003C164.803 100.003 166.355 99.7836 167.629 99.3446C168.903 98.9056 169.964 98.3192 170.808 97.587C171.652 96.8549 172.306 96.0198 172.771 95.0804C173.236 94.141 173.58 93.1725 173.804 92.1732C174.028 91.1739 174.167 90.1839 174.217 89.2015C174.269 88.2191 174.295 87.3243 174.295 86.5138V62.0879C174.295 61.9052 174.148 61.7578 173.965 61.7578L173.97 61.7563ZM167.89 82.7639C167.304 83.0739 166.611 83.3456 165.81 83.5774C165.009 83.8092 164.1 83.9258 163.084 83.9258C161.913 83.9258 160.973 83.78 160.267 83.4868C159.561 83.1937 159.018 82.8068 158.639 82.3233C158.448 82.0823 158.286 81.806 158.148 81.496C158.009 81.1859 157.893 80.7684 157.799 80.2435C157.704 79.7185 157.635 79.0508 157.592 78.2403C157.549 77.4314 157.527 76.4152 157.527 75.1919C157.527 74.1926 157.537 73.3054 157.554 72.5302C157.57 71.7551 157.613 71.0797 157.683 70.501C157.752 69.9239 157.854 69.4281 157.993 69.0152C158.131 68.6023 158.329 68.24 158.587 67.9299C158.742 67.758 158.944 67.5723 159.193 67.3743C159.443 67.1763 159.744 66.9998 160.097 66.8447C160.45 66.6897 160.846 66.5608 161.285 66.4564C161.724 66.3535 162.203 66.3013 162.719 66.3013C163.614 66.3013 164.424 66.461 165.147 66.7787C165.87 67.098 166.456 67.4986 166.905 67.9806C167.129 68.2385 167.308 68.4887 167.446 68.7297C167.585 68.9707 167.683 69.3114 167.744 69.7504C167.804 70.1894 167.842 70.7758 167.861 71.508C167.878 72.2401 167.887 73.2348 167.887 74.4919V82.7608L167.89 82.7639Z" fill="#CFD8D8"/>
<path d="M185.654 61.7563H179.246V89.6896H185.654V61.7563Z" fill="#CFD8D8"/>
<path d="M184.632 51.6394L179.981 52.4084C179.557 52.479 179.246 52.8458 179.246 53.2756V57.0532C179.246 57.5382 179.639 57.9312 180.124 57.9312H184.775C185.26 57.9312 185.653 57.5382 185.653 57.0532V52.5081C185.653 51.9663 185.166 51.5534 184.63 51.6409L184.632 51.6394Z" fill="#CFD8D8"/>
<path d="M231.215 66.3167C230.983 65.7396 230.698 65.2361 230.363 64.8048C230.027 64.375 229.626 63.9697 229.161 63.5906C228.765 63.2805 228.322 62.9874 227.83 62.7126C227.339 62.4363 226.771 62.1999 226.125 62.0019C225.479 61.8039 224.73 61.6489 223.876 61.5368C223.024 61.4248 222.045 61.3695 220.943 61.3695C219.014 61.3695 217.437 61.5153 216.214 61.8085C214.99 62.1017 213.996 62.4854 213.23 62.9582C212.462 63.4325 211.856 63.9789 211.408 64.5991C211.067 65.0703 210.746 65.5523 210.445 66.0435C210.286 66.306 210.359 66.6482 210.61 66.8278L213.997 69.25C214.294 69.4618 214.697 69.3498 214.869 69.029C214.949 68.8801 215.044 68.7297 215.155 68.5777C215.429 68.1986 215.796 67.8455 216.252 67.5186C216.708 67.1916 217.264 66.9245 217.919 66.7173C218.573 66.5101 219.324 66.4073 220.168 66.4073C220.719 66.4073 221.31 66.4548 221.938 66.55C222.567 66.6452 223.143 66.8263 223.669 67.0919C224.196 67.3589 224.63 67.7258 224.975 68.1909C225.319 68.656 225.491 69.2592 225.491 69.9991V72.5318C224.75 72.3767 223.855 72.2432 222.803 72.1312C221.752 72.0191 220.538 71.9638 219.159 71.9638C217.781 71.9638 216.538 72.1833 215.322 72.6223C214.108 73.0613 213.035 73.6784 212.105 74.4704C211.175 75.2625 210.433 76.2188 209.882 77.3393C209.331 78.4598 209.055 79.7001 209.055 81.0601C209.055 82.42 209.305 83.734 209.804 84.8453C210.303 85.9566 210.975 86.8914 211.819 87.6497C212.663 88.4079 213.649 88.9897 214.779 89.3934C215.907 89.7986 217.1 90.0012 218.358 90.0012C219.115 90.0012 219.813 89.9444 220.452 89.8339C221.089 89.7219 221.695 89.5592 222.272 89.3427C222.85 89.1278 223.401 88.8654 223.927 88.5553C224.452 88.2452 224.974 87.883 225.49 87.4701V89.6927H231.898V71.2163C231.898 70.1142 231.843 69.1671 231.729 68.3736C231.617 67.5815 231.445 66.8969 231.214 66.3198L231.215 66.3167ZM225.491 80.2051C225.491 80.9112 225.436 81.4883 225.322 81.9365C225.21 82.3847 225.008 82.7807 224.714 83.1246C224.216 83.7278 223.586 84.1883 222.828 84.5076C222.07 84.8269 221.166 84.985 220.114 84.985C219.167 84.985 218.374 84.8683 217.737 84.6365C217.098 84.4047 216.582 84.1024 216.186 83.7324C215.79 83.3625 215.505 82.9435 215.334 82.4784C215.162 82.0133 215.076 81.5405 215.076 81.057C215.076 80.5397 215.162 80.0408 215.334 79.5589C215.506 79.0769 215.795 78.6502 216.2 78.2802C216.605 77.9103 217.147 77.6125 217.829 77.3884C218.509 77.1643 219.357 77.0523 220.374 77.0523C221.39 77.0523 222.26 77.0876 223.14 77.1551C224.018 77.2242 224.802 77.327 225.491 77.4652V80.2035V80.2051Z" fill="#CFD8D8"/>
<path d="M242.931 51.2878L237.521 52.2625C237.303 52.3024 237.145 52.5066 237.145 52.7476V89.6896H243.455V51.7713C243.455 51.469 243.205 51.2372 242.931 51.2863V51.2878Z" fill="#CFD8D8"/>
<path d="M206.433 62.1247L199.543 62.2905V54.1536L199.094 53.7115H196.863C195.678 53.7115 194.841 54.0032 194.374 54.5773C193.914 55.1452 193.679 56.1153 193.679 57.4584V62.2337L189.536 62.1232L189.521 62.1984C189.37 62.9075 189.294 63.6489 189.294 64.4041C189.294 65.1593 189.37 65.8654 189.521 66.5009L189.538 66.573L193.679 66.5178V84.1377C193.679 87.9812 195.696 89.9306 199.673 89.9306C201.682 89.9306 203.805 89.7986 205.982 89.5377L206.043 89.53L206.06 89.4701C206.137 89.1938 206.177 88.629 206.177 87.7924C206.177 86.9559 206.023 86.1009 205.721 85.2674L205.698 85.206H201.753C200.266 85.206 199.543 84.4416 199.543 82.8698V66.461L206.432 66.5715L206.453 66.5055C206.642 65.9115 206.739 65.1946 206.739 64.3734C206.739 63.5522 206.643 62.8185 206.455 62.1876L206.435 62.1201L206.433 62.1247Z" fill="#CFD8D8"/>
<path d="M89.3397 2.38227C87.7939 0.845767 85.7417 0 83.5636 0H8.16909C5.98176 0 3.93872 0.845767 2.39301 2.38227C0.845767 3.92798 0 5.98023 0 8.15835V83.562C0 85.7402 0.845767 87.7924 2.39148 89.3289C3.93719 90.8746 5.98023 91.7204 8.16756 91.7204H83.562C85.7402 91.7204 87.7924 90.8746 89.3381 89.3289C90.8746 87.7924 91.7296 85.7402 91.7296 83.562V8.15835C91.7296 5.98023 90.8731 3.92798 89.3381 2.38227H89.3397ZM89.7633 83.1783C89.7633 86.807 86.8116 89.7587 83.1829 89.7587H8.54362C4.91496 89.7587 1.96322 86.807 1.96322 83.1783V8.53902C1.96322 4.91036 4.91496 1.95862 8.54362 1.95862H83.1829C86.8116 1.95862 89.7633 4.91036 89.7633 8.53902V83.1783Z" fill="#CFD8D8"/>
<path d="M83.1875 5.44606H8.54209C6.83982 5.44606 5.44914 6.82753 5.44914 8.53902V30.555L31.2964 24.6424C35.4976 23.6891 36.2467 25.1873 32.9788 27.987L15.5139 40.6382C12.6067 42.8256 8.43465 42.8256 5.44914 40.8716V49.2448C16.3305 44.9361 25.5004 37.051 34.7777 29.2411C35.9551 28.2495 37.1308 27.2579 38.3174 26.2848C44.3958 21.247 50.6186 16.4441 57.4937 12.8753C79.9764 1.21569 66.441 21.6277 57.6779 38.7134C49.013 55.6149 81.7078 35.2613 82.4369 34.8146C82.2236 35.0279 77.2825 39.8999 63.9314 49.5472C58.1752 53.71 50.8519 58.7662 41.6621 64.7173C10.622 84.8376 27.1536 58.7754 40.9913 35.1845C50.1811 19.5079 44.2684 23.1841 39.2598 27.4237C36.7318 29.5635 34.4278 31.849 34.4278 31.849L23.4482 41.263C23.4482 41.263 15.3865 47.8956 5.4476 54.2258V83.1752C5.4476 84.8867 6.83828 86.2774 8.54056 86.2774H46.8457L39.8738 78.7607C36.9466 75.6094 36.8592 71.6614 39.6896 69.9991L43.1218 67.5876C56.0938 58.4561 65.5753 51.5027 65.5753 51.5027C65.7303 51.3953 65.8762 51.2894 66.022 51.1911C69.2024 49.0713 70.7865 50.4129 69.5816 54.3516L59.7409 86.2774H83.1875C84.8898 86.2774 86.2805 84.8867 86.2805 83.1752V8.53748C86.2805 6.826 84.8898 5.44453 83.1875 5.44453V5.44606ZM82.1698 17.5662L78.7131 28.7898C77.4713 32.8176 73.2778 37.4532 69.3943 39.0895C69.3943 39.0895 57.9097 43.9277 63.0841 33.8414C67.0259 26.1528 70.3736 19.511 70.3736 19.511C72.2708 15.7472 76.2096 12.1216 79.126 11.4555C82.0424 10.7893 83.4116 13.5399 82.1698 17.5677V17.5662Z" fill="#CFD8D8"/>
</g>
<defs>
<clipPath id="clip0_404_154">
<rect width="243.455" height="100" fill="white"/>
</clipPath>
</defs>
</svg>
