<svg width="333" height="100" viewBox="0 0 333 100" fill="none" xmlns="http://www.w3.org/2000/svg">
<g clip-path="url(#clip0_404_260)">
<path d="M139.013 1.42181C138.173 1.25789 136.908 1.17258 135.256 1.17258C133.603 1.17258 132.324 1.25621 131.444 1.42014L131.211 1.46363L117.281 42.4853L117.221 42.6643L117.587 43.2631L117.741 43.305C118.798 43.596 119.925 43.7432 121.096 43.7432C122.267 43.7432 123.224 43.6579 123.947 43.4923L124.171 43.4405L127.397 33.4276L130.661 33.4828H139.066L142.442 33.4276L144.62 40.2021C145.055 41.577 145.576 42.5054 146.215 43.044C146.87 43.596 147.897 43.8636 149.357 43.8636C150.817 43.8636 151.966 43.5575 152.89 42.952L153.151 42.7814L139.244 1.46698L139.013 1.42181ZM140.523 27.4192C139.99 27.4108 139.155 27.3924 138.016 27.3656H131.877L129.321 27.4158L132.7 17.0266C133.65 13.9103 134.381 11.2892 134.876 9.21165C135.604 11.8679 136.611 15.2234 137.875 19.2061L140.522 27.4208L140.523 27.4192Z" fill="#CFD8D8"/>
<path d="M169.664 25.4002L165.989 24.0118C164.692 23.51 163.752 23.0065 163.199 22.5164C162.693 22.0715 162.447 21.4409 162.447 20.5878C162.447 19.7347 162.789 19.0573 163.493 18.4885C164.212 17.9064 165.209 17.612 166.457 17.612C168.919 17.612 171.606 18.2694 174.441 19.5658L174.673 19.6728L174.869 19.5072C175.491 18.982 175.995 18.2376 176.364 17.2942C176.729 16.3659 176.913 15.4626 176.913 14.6112V14.3486L176.672 14.2415C173.367 12.7779 169.991 12.0352 166.639 12.0352C163.287 12.0352 160.537 12.8665 158.451 14.5058C156.335 16.1685 155.263 18.4785 155.263 21.3723C155.263 25.3617 157.96 28.3927 163.279 30.3815L166.695 31.6495C169.107 32.5578 170.279 33.7755 170.279 35.3746C170.279 36.3682 169.848 37.1477 168.958 37.7566C168.036 38.3905 166.562 38.7117 164.577 38.7117C162.591 38.7117 160.01 37.8352 156.831 36.1039L156.576 35.9651L156.364 36.1608C155.8 36.6777 155.297 37.4003 154.867 38.3086C154.439 39.2168 154.201 40.0482 154.158 40.7808L154.142 41.0267L154.355 41.1522C157.789 43.1929 161.446 44.2266 165.228 44.2266C169.01 44.2266 172.067 43.3886 174.295 41.7343C176.56 40.0515 177.708 37.7281 177.708 34.831C177.708 30.6007 175 27.4275 169.66 25.4002H169.664Z" fill="#CFD8D8"/>
<path d="M195.286 25.4002L191.61 24.0118C190.312 23.51 189.373 23.0065 188.82 22.5164C188.314 22.0698 188.07 21.4392 188.07 20.5861C188.07 19.733 188.411 19.0556 189.116 18.4869C189.833 17.9064 190.83 17.6104 192.08 17.6104C194.542 17.6104 197.228 18.2677 200.064 19.5641L200.298 19.6711L200.493 19.5055C201.114 18.9803 201.617 18.236 201.987 17.2942C202.352 16.3675 202.536 15.4643 202.536 14.6095V14.3469L202.295 14.2398C198.99 12.7762 195.614 12.0335 192.262 12.0335C188.91 12.0335 186.162 12.8649 184.076 14.5041C181.96 16.1668 180.886 18.4768 180.886 21.3706C180.886 25.3601 183.582 28.3927 188.903 30.3799L192.317 31.6478C194.729 32.5561 195.902 33.7738 195.902 35.3729C195.902 36.3665 195.47 37.146 194.582 37.7549C193.659 38.3888 192.183 38.71 190.201 38.71C188.219 38.71 185.635 37.8335 182.457 36.1022L182.204 35.9651L181.992 36.1591C181.421 36.6793 180.918 37.4019 180.493 38.3069C180.065 39.2135 179.827 40.0448 179.785 40.7791L179.77 41.025L179.981 41.1505C183.413 43.1912 187.07 44.2249 190.85 44.2249C194.631 44.2249 197.69 43.3869 199.92 41.7326C202.183 40.0498 203.33 37.7281 203.33 34.8293C203.33 30.599 200.624 27.4259 195.286 25.3985V25.4002Z" fill="#CFD8D8"/>
<path d="M228.598 15.8172C227.501 14.6346 226.145 13.6979 224.567 13.0338C222.99 12.3714 221.175 12.0369 219.171 12.0369C217.167 12.0369 215.307 12.4467 213.688 13.2563C212.069 14.0642 210.69 15.1883 209.595 16.5984C208.506 18.0001 207.659 19.6996 207.077 21.6483C206.495 23.5903 206.201 25.7113 206.201 27.9494C206.201 30.1875 206.432 32.3754 206.887 34.3476C207.347 36.3448 208.101 38.0894 209.128 39.5313C210.16 40.9866 211.518 42.1458 213.168 42.9771C214.81 43.8068 216.851 44.2266 219.233 44.2266C223.711 44.2266 227.665 43.0657 230.985 40.7775L231.201 40.6286L231.153 40.371C230.811 38.5595 230.089 37.1427 229.005 36.1624L228.794 35.9718L228.543 36.1056C227.068 36.8934 225.624 37.4705 224.251 37.8218C222.879 38.1731 221.583 38.352 220.399 38.352C217.972 38.352 216.237 37.6562 215.24 36.2846C214.263 34.9464 213.69 33.0111 213.531 30.5304H231.455L231.521 30.2059C231.686 29.3913 231.802 28.5733 231.867 27.7738C231.929 26.9692 231.959 26.1563 231.959 25.3584C231.959 23.4699 231.673 21.6901 231.107 20.0642C230.539 18.4266 229.696 16.9998 228.602 15.8189L228.598 15.8172ZM225.077 24.8114V25.1911H213.527C213.88 20.0107 215.787 17.4899 219.352 17.4899C221.312 17.4899 222.719 18.1339 223.649 19.4587C224.597 20.8136 225.077 22.6134 225.077 24.8097V24.8114Z" fill="#CFD8D8"/>
<path d="M252.165 13.0489L252.077 12.7528L244.643 12.9318V4.24368L243.974 3.5863H241.416C240.03 3.5863 239.036 3.94092 238.467 4.64179C237.912 5.32593 237.641 6.41654 237.641 7.97384V12.8682L233.185 12.7494L233.115 13.079C232.946 13.8718 232.86 14.7032 232.86 15.5479C232.86 16.3926 232.947 17.1888 233.116 17.9048L233.192 18.2192L237.641 18.1607V37.064C237.641 41.4566 239.943 43.683 244.481 43.683C246.684 43.683 249.011 43.5375 251.396 43.2531L251.663 43.2213L251.737 42.9604C251.831 42.6292 251.876 42.0036 251.876 41.0485C251.876 40.0933 251.702 39.1349 251.359 38.1915L251.262 37.9255H246.749C245.292 37.9255 244.641 37.233 244.641 35.6824V18.1005L252.07 18.2192L252.162 17.9332C252.378 17.2557 252.486 16.4428 252.486 15.5178C252.486 14.5928 252.378 13.7648 252.164 13.0489H252.165Z" fill="#CFD8D8"/>
<path d="M97.4023 2.59773C95.7162 0.923339 93.4798 0 91.1045 0H8.90554C6.52025 0 4.29386 0.921667 2.60776 2.59773C0.923339 4.28383 0 6.52025 0 8.89551V91.1045C0 93.4798 0.923339 95.7162 2.60776 97.3922C4.29386 99.0783 6.52025 100 8.90554 100H91.1045C93.4798 100 95.7162 99.0783 97.4023 97.3922C99.0767 95.7178 100.01 93.4798 100.01 91.1045V8.89551C100.01 6.52025 99.0767 4.28383 97.4023 2.59773ZM97.8656 90.6846C97.8656 94.6406 94.6473 97.8589 90.6913 97.8589H9.31536C5.35938 97.8589 2.14108 94.6406 2.14108 90.6846V9.31034C2.14108 5.35436 5.35938 2.13606 9.31536 2.13606H90.6897C94.6456 2.13606 97.8639 5.35436 97.8639 9.31034V90.6846H97.8656Z" fill="#CFD8D8"/>
<path d="M90.6947 5.93647H9.31369C7.45864 5.93647 5.94149 7.44191 5.94149 9.30867V33.3121L34.1217 26.8655C38.7016 25.8267 39.5179 27.4593 35.9567 30.512L16.9145 44.3052C13.7447 46.6905 9.1966 46.6905 5.94149 44.5595V53.6875C17.8061 48.9905 27.8039 40.3927 37.9171 31.8786C39.2001 30.7964 40.4831 29.7158 41.7761 28.6553C48.4017 23.1638 55.1879 17.9265 62.6834 14.0341C87.1953 1.32145 72.437 23.5753 62.8858 42.2043C53.4399 60.6309 89.0838 38.4407 89.8784 37.9523C89.6459 38.1848 84.2597 43.4973 69.7021 54.0154C63.4261 58.5534 55.4422 64.0667 45.4226 70.5552C11.5802 92.4912 29.6037 64.0767 44.6916 38.3571C54.7095 21.2669 48.2646 25.2747 42.8048 29.8965C40.0482 32.2282 37.5358 34.7206 37.5358 34.7206L25.5658 44.9827C25.5658 44.9827 16.7773 52.2138 5.94149 59.1155V90.6779C5.94149 92.5447 7.45697 94.0602 9.31369 94.0602H51.0764L43.4756 85.8639C40.284 82.4281 40.1887 78.1242 43.2732 76.311L47.015 73.6815C61.1579 63.7255 71.4952 56.1447 71.4952 56.1447C71.6659 56.0276 71.8248 55.9122 71.9837 55.8052C75.4512 53.4935 77.1791 54.9571 75.8644 59.251L65.1356 94.0585H90.698C92.5531 94.0585 94.0702 92.543 94.0702 90.6763V9.30867C94.0702 7.44191 92.5547 5.93647 90.698 5.93647H90.6947ZM89.5857 19.1509L85.817 31.3868C84.4638 35.7777 79.8906 40.8327 75.657 42.6175C75.657 42.6175 63.135 47.8915 68.7787 36.8951C73.076 28.5131 76.7258 21.2703 76.7258 21.2703C78.795 17.1671 83.0888 13.2128 86.267 12.4868C89.4468 11.7592 90.9389 14.7584 89.5857 19.1509Z" fill="#CFD8D8"/>
<path d="M147.323 85.2366C147.739 85.2366 148.064 85.5895 148.039 86.0061C147.979 86.9645 147.89 87.8026 147.771 88.5201C147.622 89.4234 147.427 90.2062 147.184 90.8686C146.941 91.5294 146.639 92.1115 146.276 92.615C145.913 93.1184 145.498 93.6203 145.033 94.1237C144.493 94.7192 143.854 95.2595 143.119 95.7446C142.383 96.2297 141.53 96.6479 140.562 97.0025C139.593 97.3554 138.498 97.6314 137.278 97.8271C136.057 98.0229 134.692 98.1199 133.183 98.1199C131.675 98.1199 130.315 98.0178 129.104 97.8121C127.893 97.608 126.807 97.3287 125.848 96.9741C124.888 96.6211 124.042 96.2013 123.306 95.7162C122.57 95.2328 121.923 94.7008 121.364 94.1237C120.693 93.453 120.138 92.6467 119.701 91.7067C119.263 90.7666 118.913 89.6292 118.652 88.2977C118.392 86.9662 118.206 85.4106 118.094 83.6308C117.982 81.8527 117.926 79.7785 117.926 77.4133C117.926 75.0481 117.987 72.9605 118.109 71.154C118.229 69.3475 118.43 67.7584 118.709 66.3901C118.989 65.0202 119.352 63.8526 119.8 62.8824C120.247 61.9139 120.805 61.0943 121.476 60.4235C122.035 59.8464 122.672 59.3296 123.39 58.8729C124.107 58.4163 124.94 58.0299 125.89 57.7137C126.84 57.3976 127.916 57.15 129.119 56.9727C130.32 56.7971 131.676 56.7068 133.185 56.7068C134.694 56.7068 136.059 56.8038 137.28 57.0012C138.499 57.1969 139.595 57.4712 140.563 57.8258C141.532 58.1804 142.383 58.6036 143.121 59.0971C143.857 59.5905 144.494 60.1258 145.035 60.7045C145.426 61.1144 145.776 61.5292 146.083 61.9474C146.391 62.3656 146.665 62.8272 146.908 63.3307C147.151 63.8342 147.35 64.4029 147.508 65.0352C147.612 65.4517 147.706 65.9167 147.791 66.4303C147.863 66.8685 147.529 67.27 147.085 67.27C145.546 67.27 142.291 67.27 141.042 67.27C140.737 67.27 140.481 67.0692 140.374 66.7849C139.888 65.4919 139.108 64.5551 138.038 63.973C136.837 63.3207 135.219 62.9945 133.188 62.9945C131.641 62.9945 130.375 63.2036 129.388 63.6234C128.401 64.0416 127.59 64.6522 126.956 65.4534C126.676 65.7879 126.444 66.1977 126.258 66.6828C126.071 67.1679 125.914 67.847 125.783 68.7235C125.653 69.6001 125.559 70.7325 125.504 72.1192C125.449 73.5075 125.42 75.2722 125.42 77.415C125.42 79.5577 125.449 81.3224 125.504 82.7108C125.561 84.0992 125.653 85.2299 125.783 86.1064C125.914 86.9829 126.073 87.662 126.258 88.1471C126.444 88.6322 126.678 89.042 126.956 89.3766C127.59 90.1778 128.399 90.7884 129.388 91.2065C130.375 91.6264 131.641 91.8355 133.188 91.8355C134.026 91.8355 134.893 91.7184 135.788 91.4859C136.683 91.2534 137.501 90.8753 138.247 90.3534C138.991 89.8316 139.612 89.1524 140.105 88.3127C140.506 87.6303 140.764 86.8257 140.874 85.8973C140.92 85.5277 141.216 85.2399 141.587 85.2399H147.326L147.323 85.2366Z" fill="#CFD8D8"/>
<path d="M169.709 97.7836V95.38C169.15 95.8266 168.586 96.218 168.018 96.5542C167.449 96.8904 166.853 97.1748 166.23 97.4073C165.606 97.6398 164.948 97.8171 164.259 97.9392C163.57 98.0596 162.816 98.1199 161.996 98.1199C160.636 98.1199 159.345 97.9007 158.125 97.4625C156.904 97.0259 155.839 96.397 154.925 95.5757C154.012 94.756 153.286 93.7457 152.746 92.543C152.205 91.342 151.936 89.9771 151.936 88.4482C151.936 86.9194 152.234 85.6347 152.831 84.4237C153.427 83.2126 154.228 82.1789 155.235 81.3224C156.24 80.466 157.401 79.8003 158.714 79.3235C160.027 78.8485 161.41 78.611 162.864 78.611C164.318 78.611 165.667 78.6712 166.805 78.7933C167.941 78.9137 168.909 79.0593 169.71 79.2265V76.4883C169.71 75.6871 169.523 75.0347 169.152 74.5329C168.779 74.0294 168.309 73.6346 167.74 73.3453C167.171 73.0559 166.547 72.8618 165.868 72.7581C165.187 72.6561 164.55 72.6042 163.955 72.6042C163.041 72.6042 162.232 72.7163 161.522 72.9405C160.815 73.1646 160.213 73.4523 159.719 73.8069C159.226 74.1615 158.829 74.5429 158.532 74.9527C158.411 75.1167 158.309 75.2806 158.222 75.4412C158.035 75.7891 157.603 75.9095 157.282 75.6804L153.622 73.0626C153.35 72.8669 153.268 72.4922 153.442 72.2061C153.766 71.6759 154.111 71.1573 154.479 70.6488C154.962 69.9781 155.619 69.3859 156.449 68.8741C157.277 68.3622 158.354 67.9474 159.676 67.6313C160.999 67.3151 162.703 67.1562 164.789 67.1562C165.982 67.1562 167.039 67.2164 167.961 67.3369C168.882 67.459 169.694 67.6262 170.393 67.8404C171.092 68.0545 171.706 68.3104 172.238 68.6081C172.77 68.9059 173.248 69.222 173.678 69.5582C174.182 69.968 174.615 70.4063 174.978 70.8713C175.341 71.338 175.649 71.8816 175.899 72.5056C176.15 73.1295 176.338 73.8705 176.458 74.7269C176.579 75.5834 176.641 76.6087 176.641 77.8014V97.782H169.71L169.709 97.7836ZM169.709 84.5658C168.964 84.417 168.116 84.3049 167.166 84.2313C166.216 84.1577 165.219 84.1192 164.177 84.1192C163.078 84.1192 162.16 84.2413 161.424 84.4822C160.688 84.7247 160.101 85.0459 159.664 85.4457C159.226 85.8471 158.915 86.3071 158.727 86.829C158.54 87.3509 158.448 87.8912 158.448 88.4499C158.448 88.9718 158.542 89.4836 158.727 89.9871C158.913 90.4906 159.221 90.9422 159.649 91.342C160.077 91.7418 160.636 92.068 161.325 92.3205C162.014 92.5715 162.871 92.6986 163.896 92.6986C165.032 92.6986 166.01 92.5263 166.83 92.1817C167.65 91.8371 168.329 91.3387 168.871 90.6863C169.187 90.3133 169.406 89.8851 169.528 89.4C169.649 88.9166 169.71 88.291 169.71 87.5282V84.5658H169.709Z" fill="#CFD8D8"/>
<path d="M183.234 97.7836V56.7921C183.234 56.4023 183.515 56.0711 183.9 56.0076L189.239 55.1244C189.724 55.0441 190.164 55.4188 190.164 55.9089V97.7836H183.234Z" fill="#CFD8D8"/>
<path d="M197.151 97.7836V56.7921C197.151 56.4023 197.432 56.0711 197.817 56.0076L203.156 55.1244C203.642 55.0441 204.081 55.4188 204.081 55.9089V97.7836H197.151Z" fill="#CFD8D8"/>
<path d="M250.138 85.2366C250.554 85.2366 250.879 85.5895 250.854 86.0061C250.794 86.9645 250.705 87.8026 250.586 88.5201C250.437 89.4234 250.242 90.2062 249.999 90.8686C249.757 91.5294 249.454 92.1115 249.091 92.615C248.728 93.1184 248.313 93.6203 247.848 94.1237C247.308 94.7192 246.669 95.2595 245.934 95.7446C245.198 96.2297 244.345 96.6479 243.377 97.0025C242.408 97.3554 241.313 97.6314 240.093 97.8271C238.872 98.0229 237.507 98.1199 235.999 98.1199C234.49 98.1199 233.13 98.0178 231.919 97.8121C230.708 97.608 229.622 97.3287 228.664 96.9741C227.704 96.6211 226.857 96.2013 226.121 95.7162C225.385 95.2328 224.738 94.7008 224.179 94.1237C223.508 93.453 222.953 92.6467 222.516 91.7067C222.078 90.7666 221.729 89.6292 221.468 88.2977C221.207 86.9662 221.021 85.4106 220.909 83.6308C220.797 81.8527 220.742 79.7785 220.742 77.4133C220.742 75.0481 220.802 72.9605 220.924 71.154C221.044 69.3475 221.245 67.7584 221.524 66.3901C221.804 65.0202 222.167 63.8526 222.615 62.8824C223.062 61.9139 223.62 61.0943 224.291 60.4235C224.85 59.8464 225.487 59.3296 226.205 58.8729C226.922 58.4163 227.755 58.0299 228.705 57.7137C229.656 57.3976 230.731 57.15 231.934 56.9727C233.135 56.7971 234.491 56.7068 236 56.7068C237.509 56.7068 238.874 56.8038 240.095 57.0012C241.314 57.1969 242.41 57.4712 243.379 57.8258C244.347 58.1804 245.198 58.6036 245.936 59.0971C246.672 59.5905 247.309 60.1258 247.85 60.7045C248.241 61.1144 248.591 61.5292 248.898 61.9474C249.206 62.3656 249.481 62.8272 249.723 63.3307C249.966 63.8342 250.165 64.4029 250.324 65.0352C250.427 65.4517 250.521 65.9167 250.606 66.4303C250.678 66.8685 250.342 67.27 249.897 67.27H243.86C243.556 67.27 243.295 67.0692 243.188 66.7849C242.701 65.4919 241.922 64.5551 240.851 63.973C239.65 63.3207 238.033 62.9945 236.002 62.9945C234.455 62.9945 233.188 63.2036 232.201 63.6234C231.215 64.0416 230.403 64.6522 229.769 65.4534C229.49 65.7879 229.257 66.1977 229.072 66.6828C228.884 67.1679 228.727 67.847 228.597 68.7235C228.466 69.6001 228.373 70.7325 228.317 72.1192C228.262 73.5075 228.234 75.2722 228.234 77.415C228.234 79.5577 228.262 81.3224 228.317 82.7108C228.374 84.0992 228.466 85.2299 228.597 86.1064C228.727 86.9829 228.886 87.662 229.072 88.1471C229.257 88.6322 229.492 89.042 229.769 89.3766C230.403 90.1778 231.213 90.7884 232.201 91.2065C233.188 91.6264 234.455 91.8355 236.002 91.8355C236.84 91.8355 237.706 91.7184 238.601 91.4859C239.496 91.2534 240.314 90.8753 241.06 90.3534C241.805 89.8316 242.425 89.1524 242.919 88.3127C243.32 87.6303 243.578 86.8257 243.688 85.8973C243.733 85.5277 244.029 85.2399 244.401 85.2399H250.14L250.138 85.2366Z" fill="#CFD8D8"/>
<path d="M272.524 97.7836V95.38C271.965 95.8266 271.402 96.218 270.833 96.5542C270.264 96.8904 269.669 97.1748 269.045 97.4073C268.421 97.6398 267.763 97.8171 267.074 97.9392C266.385 98.0596 265.631 98.1199 264.811 98.1199C263.451 98.1199 262.16 97.9007 260.94 97.4625C259.719 97.0259 258.654 96.397 257.74 95.5757C256.827 94.756 256.101 93.7457 255.561 92.543C255.021 91.342 254.751 89.9771 254.751 88.4482C254.751 86.9194 255.049 85.6347 255.646 84.4237C256.242 83.2126 257.043 82.1789 258.05 81.3224C259.055 80.466 260.216 79.8003 261.529 79.3235C262.842 78.8485 264.226 78.611 265.679 78.611C267.133 78.611 268.483 78.6712 269.62 78.7933C270.756 78.9137 271.724 79.0593 272.526 79.2265V76.4883C272.526 75.6871 272.338 75.0347 271.967 74.5329C271.594 74.0294 271.124 73.6346 270.555 73.3453C269.986 73.0559 269.363 72.8618 268.683 72.7581C268.003 72.6561 267.365 72.6042 266.77 72.6042C265.857 72.6042 265.047 72.7163 264.338 72.9405C263.63 73.1646 263.028 73.4523 262.534 73.8069C262.041 74.1615 261.645 74.5429 261.347 74.9527C261.226 75.1167 261.124 75.2806 261.037 75.4412C260.85 75.7891 260.418 75.9095 260.097 75.6804L256.437 73.0626C256.165 72.8669 256.083 72.4922 256.257 72.2061C256.581 71.6759 256.926 71.1573 257.294 70.6488C257.777 69.9781 258.435 69.3859 259.264 68.8741C260.092 68.3622 261.17 67.9474 262.491 67.6313C263.814 67.3151 265.519 67.1562 267.604 67.1562C268.797 67.1562 269.854 67.2164 270.776 67.3369C271.698 67.459 272.509 67.6262 273.208 67.8404C273.907 68.0545 274.521 68.3104 275.053 68.6081C275.585 68.9059 276.063 69.222 276.493 69.5582C276.997 69.968 277.43 70.4063 277.793 70.8713C278.156 71.338 278.464 71.8816 278.715 72.5056C278.966 73.1295 279.153 73.8705 279.273 74.7269C279.394 75.5834 279.456 76.6087 279.456 77.8014V97.782H272.526L272.524 97.7836ZM272.524 84.5658C271.78 84.417 270.932 84.3049 269.981 84.2313C269.031 84.1577 268.034 84.1192 266.992 84.1192C265.893 84.1192 264.975 84.2413 264.239 84.4822C263.503 84.7247 262.916 85.0459 262.479 85.4457C262.041 85.8471 261.73 86.3071 261.543 86.829C261.355 87.3509 261.263 87.8912 261.263 88.4499C261.263 88.9718 261.357 89.4836 261.543 89.9871C261.728 90.4906 262.036 90.9422 262.464 91.342C262.892 91.7435 263.451 92.068 264.14 92.3205C264.829 92.5715 265.686 92.6986 266.711 92.6986C267.847 92.6986 268.826 92.5263 269.645 92.1817C270.465 91.8371 271.144 91.3387 271.686 90.6863C272.002 90.3133 272.221 89.8851 272.343 89.4C272.464 88.9166 272.526 88.291 272.526 87.5282V84.5658H272.524Z" fill="#CFD8D8"/>
<path d="M286.05 97.7837V67.9792C286.05 67.755 286.23 67.5744 286.454 67.5744H292.576C292.801 67.5744 292.981 67.755 292.981 67.9792V71.5521C293.334 71.0503 293.777 70.5418 294.309 70.0216C294.841 69.503 295.445 69.0297 296.126 68.6031C296.805 68.1766 297.541 67.8286 298.334 67.5593C299.125 67.29 299.968 67.1562 300.863 67.1562C301.291 67.1562 301.72 67.1796 302.149 67.2265C302.578 67.2733 302.977 67.3235 303.35 67.3804C303.779 67.4556 304.475 67.6329 304.543 67.9156C304.884 69.2906 304.177 72.6528 303.735 73.9792C303.596 74.3974 303.225 74.1632 302.317 73.9491C301.982 73.8705 301.572 73.8086 301.087 73.7534C300.602 73.6982 300.035 73.6698 299.383 73.6698C298.563 73.6698 297.804 73.8571 297.105 74.2301C296.407 74.6031 295.781 75.0498 295.233 75.5733C294.682 76.0952 294.217 76.6221 293.836 77.154C293.455 77.686 293.17 78.1108 292.983 78.427V97.787H286.053L286.05 97.7837Z" fill="#CFD8D8"/>
<path d="M313.407 85.1814C313.425 86.1683 313.467 86.9645 313.532 87.5701C313.597 88.1756 313.681 88.669 313.783 89.0504C313.885 89.4318 314.007 89.7446 314.146 89.9871C314.287 90.2297 314.439 90.4622 314.608 90.6863C315.018 91.2266 315.605 91.6782 316.367 92.0412C317.132 92.4042 318.147 92.5865 319.414 92.5865C320.494 92.5865 321.397 92.4694 322.125 92.2369C322.851 92.0044 323.448 91.6833 323.913 91.2734C324.378 90.8636 324.733 90.3836 324.975 89.8332C325.149 89.4368 325.295 89.0186 325.412 88.5787C325.482 88.3127 325.768 88.1672 326.017 88.2843L331.301 90.7449C331.502 90.8385 331.604 91.0727 331.529 91.2801C331.32 91.8539 331.056 92.4009 330.733 92.9227C330.341 93.5567 329.848 94.1622 329.252 94.7393C328.655 95.3164 328.041 95.8149 327.407 96.2347C326.773 96.6546 326.071 97.0025 325.298 97.2835C324.525 97.5629 323.659 97.7719 322.699 97.9125C321.739 98.053 320.645 98.1215 319.415 98.1215C318.186 98.1215 317.09 98.0513 316.132 97.9125C315.172 97.7719 314.305 97.5629 313.532 97.2835C312.759 97.0042 312.05 96.6546 311.408 96.2347C310.766 95.8149 310.155 95.3164 309.578 94.7393C308.814 94.0134 308.223 93.2489 307.803 92.4477C307.383 91.6465 307.077 90.7616 306.882 89.7931C306.686 88.8246 306.569 87.7524 306.532 86.5798C306.495 85.4056 306.475 84.0841 306.475 82.6121C306.475 81.1401 306.493 79.8455 306.532 78.6712C306.569 77.497 306.686 76.4264 306.882 75.4579C307.077 74.4894 307.385 73.5995 307.803 72.7899C308.223 71.9803 308.814 71.2109 309.578 70.4849C310.155 69.9078 310.766 69.4094 311.408 68.9895C312.05 68.5697 312.758 68.2251 313.532 67.9558C314.305 67.6848 315.172 67.4858 316.132 67.3553C317.09 67.2248 318.186 67.1596 319.415 67.1596C320.645 67.1596 321.739 67.2248 322.699 67.3553C323.659 67.4858 324.525 67.6865 325.298 67.9558C326.071 68.2268 326.775 68.5697 327.407 68.9895C328.04 69.4094 328.655 69.9078 329.252 70.4849C329.978 71.1925 330.547 71.9753 330.957 72.8318C331.367 73.6882 331.675 74.7002 331.879 75.8644C332.083 77.0286 332.215 78.3701 332.27 79.8889C332.317 81.1435 332.344 82.5653 332.352 84.156C332.355 84.7231 331.895 85.1864 331.328 85.1864H313.407V85.1814ZM325.424 79.8705C325.424 78.9756 325.405 78.2413 325.367 77.6626C325.33 77.0855 325.273 76.6054 325.199 76.224C325.124 75.8426 325.022 75.5248 324.892 75.2739C324.761 75.023 324.612 74.7855 324.445 74.5613C324.054 74.0211 323.435 73.5795 322.587 73.2332C321.739 72.8886 320.681 72.7163 319.415 72.7163C318.149 72.7163 317.095 72.8886 316.257 73.2332C315.419 73.5778 314.793 74.0211 314.385 74.5613C314.218 74.7855 314.067 75.023 313.939 75.2739C313.808 75.5248 313.706 75.8426 313.631 76.224C313.556 76.6054 313.5 77.0855 313.464 77.6626C313.427 78.2413 313.407 78.9756 313.407 79.8705H325.424Z" fill="#CFD8D8"/>
</g>
<defs>
<clipPath id="clip0_404_260">
<rect width="332.352" height="100" fill="white"/>
</clipPath>
</defs>
</svg>
