<svg viewBox="0 0 501 104" fill="none" xmlns="http://www.w3.org/2000/svg">
<g clip-path="url(#clip0_103_3)">
<path d="M215.2 75.5509C218.517 58.3682 222.768 41.379 227.934 24.659C233.838 7.1975 241.097 2.74554 241.097 1.31928C241.097 -0.106973 239.951 0.0662156 239.13 0.0662156H234.51H234.459H218.292C216.886 0.0662156 214.497 2.6131 216.04 3.72355C220.543 6.9581 212.246 40.139 207.468 57.8551L200.729 9.74439C200.586 5.94443 203.82 3.83561 205.226 2.14957C205.929 1.44663 205.506 -0.00509743 204.661 -0.00509743H173.253C172.55 -0.00509743 170.487 0.0407468 170.767 1.86941C171.612 5.38412 176.11 4.96134 176.11 11.9907C175.27 21.5518 171.19 41.9422 166.972 57.8347L160.08 2.15466C160.08 0.626531 159.097 0.188466 157.971 0.188466L148.609 0.137529C143.653 0.0967785 138.421 0.0458405 134.346 0.0458405H134.02L83.5411 -0.00509743H2.71815C1.87258 -0.00509743 0.751953 -0.147723 0.751953 1.25816C0.751953 2.78629 5.81007 7.64066 5.81007 24.9289V80.4002C5.5401 85.0406 3.37525 86.5127 1.10342 88.7845C0.982655 88.8981 0.898905 89.0455 0.863087 89.2073C0.82727 89.3692 0.841046 89.5381 0.902622 89.6921C0.964197 89.846 1.07072 89.9778 1.20829 90.0704C1.34587 90.1629 1.50813 90.2118 1.67393 90.2108H31.3452C31.5046 90.1986 31.6575 90.142 31.7865 90.0474C31.9154 89.9527 32.0152 89.8238 32.0746 89.6753C32.134 89.5268 32.1506 89.3647 32.1225 89.2072C32.0944 89.0498 32.0228 88.9033 31.9157 88.7845C29.3688 86.3599 27.3313 85.0151 27.3313 79.3101V55.6139C27.6675 51.8852 29.3229 50.5201 31.7985 50.5201H50.3297C54.1245 50.5201 55.5355 54.5951 57.2165 56.7039C57.3006 56.7778 57.4039 56.8264 57.5145 56.8442C57.625 56.8621 57.7383 56.8484 57.8415 56.8048C57.9446 56.7612 58.0334 56.6895 58.0976 56.5977C58.1619 56.506 58.1989 56.3981 58.2047 56.2862V33.6546C58.19 33.5465 58.1441 33.4451 58.0726 33.3628C58.0011 33.2804 57.9072 33.2207 57.8023 33.191C57.6974 33.1613 57.5861 33.1628 57.482 33.1953C57.378 33.2279 57.2857 33.2902 57.2165 33.3744C55.5355 35.4832 54.1245 39.4207 50.3297 39.4207H31.8189C29.272 39.4207 27.6012 38.0149 27.316 34.22V14.5376C27.316 10.1825 29.5674 7.22807 33.5049 7.22807C57.5577 7.22807 66.3802 11.517 70.6284 15.8875C71.0086 18.8997 71.1924 21.9336 71.1785 24.9697V80.4919C71.1785 85.9728 69.141 86.4363 66.7316 88.8253C66.614 88.9355 66.5319 89.0784 66.4959 89.2356C66.4599 89.3928 66.4717 89.5571 66.5297 89.7076C66.5877 89.858 66.6893 89.9878 66.8214 90.0801C66.9536 90.1725 67.1104 90.2233 67.2716 90.2261H136.598L138.376 68.8322C138.374 68.4886 138.265 68.1542 138.063 67.8759C137.862 67.5975 137.578 67.3893 137.252 67.2803C136.926 67.1713 136.575 67.167 136.246 67.2682C135.918 67.3693 135.629 67.5706 135.421 67.844C131.769 72.9072 135.564 82.7484 98.8734 82.7484C94.9359 82.7484 92.6844 79.794 92.6844 75.4388V55.8736C92.9697 51.9361 94.6557 50.5303 97.1873 50.5303H110.681C114.476 50.5303 115.881 54.6053 117.568 56.7141C117.652 56.7866 117.755 56.834 117.866 56.8508C117.976 56.8676 118.088 56.8531 118.191 56.8091C118.293 56.7651 118.381 56.6932 118.445 56.6017C118.508 56.5102 118.545 56.4026 118.551 56.2913V33.6851C118.537 33.577 118.492 33.4752 118.421 33.3924C118.35 33.3096 118.257 33.2495 118.152 33.2197C118.047 33.1898 117.936 33.1914 117.832 33.2244C117.728 33.2573 117.636 33.3202 117.568 33.405C115.881 35.5138 114.476 39.4513 110.681 39.4513H97.1873C94.6404 39.4513 92.9697 38.0454 92.6844 34.2506V14.5427C92.6844 10.1825 94.9359 7.23316 98.8734 7.23316C117.995 7.23316 130.867 9.94814 139.369 13.2387C140.51 16.295 141.605 20.584 142.507 26.9002L149.399 77.5171C150.239 84.2663 149.286 85.01 146.755 88.3821C146.195 89.0851 146.617 90.2108 147.32 90.2108H177.409C178.112 90.2108 178.392 89.0851 177.97 88.3821C175.423 85.01 174.144 84.9693 175.83 75.5509C177.939 65.0017 180.471 54.157 183.002 44.1936L188.906 82.1575C188.763 85.1119 187.811 85.9931 185.987 88.3821C185.564 89.0851 185.844 90.2108 186.547 90.2108H216.636C217.339 90.2108 217.762 89.0851 217.197 88.3821C214.665 85.01 213.371 84.9693 215.2 75.5509Z" fill="white"/>
<path d="M269.199 23.4976C269.199 25.0767 268.634 25.2346 267.946 25.9222C267.911 25.9544 267.886 25.9965 267.875 26.043C267.865 26.0895 267.868 26.1382 267.886 26.1825C267.904 26.2268 267.935 26.2647 267.975 26.291C268.014 26.3173 268.061 26.3308 268.109 26.3297H276.514C276.559 26.3263 276.603 26.3101 276.64 26.283C276.677 26.256 276.705 26.2192 276.722 26.1767C276.739 26.1343 276.744 26.088 276.736 26.043C276.728 25.998 276.707 25.9562 276.677 25.9222C275.948 25.2346 275.383 25.0767 275.383 23.4568V14.3288C275.464 13.198 275.948 12.8007 276.677 12.8007H280.553C281.643 12.8007 282.051 13.9722 282.535 14.5784C282.555 14.6022 282.582 14.6197 282.612 14.6287C282.641 14.6377 282.673 14.638 282.703 14.6294C282.733 14.6208 282.76 14.6037 282.781 14.5802C282.802 14.5568 282.815 14.5278 282.82 14.4969V7.95648C282.815 7.92556 282.802 7.89662 282.781 7.87313C282.76 7.84963 282.733 7.83257 282.703 7.82398C282.673 7.81539 282.641 7.81563 282.612 7.82467C282.582 7.83372 282.555 7.85118 282.535 7.87498C282.025 8.48114 281.643 9.65271 280.553 9.65271H276.677C275.948 9.65271 275.464 9.24521 275.383 8.12458V4.51818C275.383 3.30587 276.03 2.48067 277.161 2.48067C284.918 2.48067 284.715 5.30772 285.82 6.72379C285.872 6.80316 285.948 6.86358 286.037 6.89597C286.126 6.92836 286.223 6.93097 286.314 6.90341C286.405 6.87586 286.484 6.81962 286.54 6.74314C286.596 6.66667 286.626 6.57408 286.625 6.47929L286.182 0.295443H268.308C268.068 0.295443 267.742 0.254693 267.742 0.662196C267.742 1.0697 269.199 2.59783 269.199 7.52861V23.4976Z" fill="white"/>
<path d="M290.333 6.90207C292.921 6.90207 295.182 4.96134 295.182 2.4603C295.182 1.16648 294.459 0.27507 292.921 0.27507C291.265 0.27507 288.433 1.8898 288.433 4.55894C288.433 5.89351 289.406 6.90207 290.333 6.90207Z" fill="white"/>
<path d="M288.963 23.4314C288.963 25.0512 288.454 25.2091 287.71 25.8968C287.675 25.9286 287.65 25.9703 287.64 26.0163C287.629 26.0623 287.632 26.1105 287.649 26.1546C287.666 26.1987 287.696 26.2366 287.735 26.2633C287.774 26.29 287.821 26.3043 287.868 26.3043H296.278C296.323 26.2999 296.366 26.2831 296.402 26.2558C296.438 26.2284 296.466 26.1915 296.482 26.1492C296.499 26.1069 296.503 26.0609 296.495 26.0164C296.486 25.9718 296.466 25.9304 296.435 25.8968C295.712 25.2091 295.142 25.0512 295.142 23.4721V7.39107C295.145 7.30986 295.126 7.22935 295.087 7.15796C295.048 7.08657 294.991 7.02692 294.921 6.98527C294.851 6.94361 294.772 6.92147 294.69 6.92118C294.609 6.92088 294.529 6.94243 294.459 6.98357C293.237 7.74667 291.825 8.15249 290.384 8.15514C287.796 8.15514 287.272 7.18732 287.272 7.95648C287.272 8.8428 288.973 9.24521 288.973 13.0859L288.963 23.4314Z" fill="white"/>
<path d="M298.819 23.6351C298.784 25.0512 298.254 25.2091 297.531 25.8968C297.5 25.9304 297.48 25.9718 297.471 26.0164C297.463 26.0609 297.468 26.1069 297.484 26.1492C297.5 26.1915 297.528 26.2284 297.564 26.2558C297.6 26.2831 297.643 26.2999 297.689 26.3043H306.098C306.144 26.3016 306.189 26.2868 306.228 26.2612C306.266 26.2356 306.297 26.2003 306.317 26.1587C306.337 26.1172 306.346 26.0711 306.343 26.025C306.339 25.979 306.323 25.9347 306.297 25.8968C305.569 25.2091 305.003 25.0512 305.003 23.4314V14.0588C305.003 12.602 305.813 11.0026 307.469 11.0026C308.487 11.0026 309.572 11.8481 309.572 13.9926V23.4314C309.572 25.0512 309.063 25.2091 308.319 25.8968C308.284 25.9289 308.259 25.971 308.249 26.0175C308.238 26.0641 308.242 26.1127 308.259 26.157C308.277 26.2013 308.308 26.2392 308.348 26.2655C308.388 26.2918 308.435 26.3053 308.482 26.3043H316.867C316.914 26.3053 316.961 26.2918 317.001 26.2655C317.041 26.2392 317.072 26.2013 317.089 26.157C317.107 26.1127 317.111 26.0641 317.1 26.0175C317.09 25.971 317.065 25.9289 317.03 25.8968C316.301 25.2091 315.736 25.0512 315.736 23.4314V12.9637C315.736 7.46748 313.107 6.90207 310.805 6.90207C308.503 6.90207 306.119 8.80205 304.983 10.3404V7.39107C304.984 7.31329 304.966 7.23641 304.931 7.16721C304.895 7.09802 304.843 7.03865 304.779 6.99435C304.715 6.95004 304.641 6.92216 304.564 6.91318C304.487 6.90419 304.408 6.91437 304.336 6.94282C303.29 7.46176 302.15 7.76491 300.984 7.83423C298.56 7.83423 297.872 6.94282 297.307 7.50823C296.741 8.07364 298.799 8.35889 298.799 13.2897L298.819 23.6351Z" fill="white"/>
<path d="M324.202 14.176C319.678 14.176 317.901 18.6228 317.901 20.8896C317.901 24.2413 319.352 26.3043 322.383 26.3043C325.618 26.3043 328.526 22.7081 328.526 22.7081C329.092 24.7456 330.345 26.3043 333.055 26.3043H335.357C335.404 26.3025 335.449 26.2883 335.488 26.263C335.527 26.2378 335.559 26.2025 335.58 26.1608C335.6 26.1192 335.61 26.0727 335.606 26.0262C335.603 25.9798 335.587 25.935 335.561 25.8968C334.832 25.1734 334.185 25.0512 334.185 23.4314V13.1674C334.185 8.9243 330.548 6.90207 327.839 6.90207C326.265 6.90207 325.012 7.92082 322.302 7.92082C321.216 7.83252 320.167 7.48301 319.245 6.90207C318.838 7.47973 318.639 8.17815 318.68 8.88355C318.639 10.6205 320.458 13.1674 322.882 13.1674C324.543 13.1674 325.837 11.8328 326.682 10.6613H326.642C326.642 10.6613 327.09 10.0551 327.288 10.2996C327.574 10.539 327.935 11.0688 328.017 12.2811V15.3883C327.564 14.7821 326.545 14.176 324.202 14.176ZM328.205 21.2105C327.928 21.6517 327.548 22.0186 327.097 22.2796C326.646 22.5406 326.138 22.6876 325.618 22.7081C324.202 22.7081 323.234 21.455 323.234 19.5143C323.234 17.5735 324.568 15.8569 325.862 15.8569C326.153 15.8477 326.442 15.8995 326.711 16.0089C326.98 16.1183 327.223 16.283 327.425 16.4923C327.627 16.7016 327.782 16.9508 327.881 17.2239C327.981 17.497 328.022 17.7879 328.002 18.0778C328.042 19.1068 328.073 20.2019 328.205 21.2105Z" fill="white"/>
<path d="M337.863 23.6351C337.822 25.0512 337.298 25.2091 336.569 25.8968C336.539 25.9307 336.518 25.9725 336.51 26.0175C336.502 26.0625 336.507 26.1088 336.524 26.1513C336.541 26.1937 336.569 26.2305 336.606 26.2576C336.643 26.2846 336.687 26.3008 336.732 26.3043H345.137C345.184 26.3025 345.229 26.2883 345.268 26.263C345.307 26.2378 345.339 26.2025 345.36 26.1608C345.38 26.1192 345.39 26.0727 345.386 26.0262C345.383 25.9798 345.367 25.9351 345.341 25.8968C344.612 25.2091 344.047 25.0512 344.047 23.4314V14.0588C344.047 12.602 344.857 11.0026 346.512 11.0026C347.531 11.0026 348.616 11.8481 348.616 13.9926V23.4314C348.616 25.0512 348.107 25.2091 347.363 25.8968C347.328 25.9286 347.304 25.9703 347.293 26.0163C347.282 26.0623 347.285 26.1105 347.302 26.1546C347.32 26.1987 347.35 26.2366 347.389 26.2633C347.428 26.29 347.474 26.3043 347.521 26.3043H355.931C355.978 26.3043 356.024 26.29 356.063 26.2633C356.102 26.2366 356.132 26.1987 356.149 26.1546C356.166 26.1105 356.17 26.0623 356.159 26.0163C356.148 25.9703 356.124 25.9286 356.089 25.8968C355.365 25.2091 354.795 25.0512 354.795 23.4314V12.9637C354.795 7.46748 352.172 6.90207 349.864 6.90207C347.557 6.90207 345.178 8.80205 344.047 10.3404V7.39107C344.048 7.31329 344.03 7.23641 343.995 7.16721C343.959 7.09802 343.907 7.03865 343.843 6.99435C343.779 6.95004 343.705 6.92216 343.628 6.91318C343.551 6.90419 343.473 6.91437 343.4 6.94282C342.352 7.46202 341.211 7.76517 340.043 7.83423C337.619 7.83423 336.936 6.94282 336.366 7.50823C335.795 8.07364 337.863 8.35889 337.863 13.2897V23.6351Z" fill="white"/>
<path d="M365.67 26.3043C371.126 26.3043 373.469 22.6266 373.469 21.4142C373.469 20.9049 373.306 20.3955 372.959 20.3955C372.959 20.3955 372.715 23.2276 369.078 23.2276C366.577 23.2276 363.057 20.803 363.057 16.3969C363.057 11.9908 365.833 9.23502 366.439 9.23502C367.045 9.23502 369.144 11.3337 367.967 17.0743C367.96 17.2167 368.01 17.3561 368.106 17.462C368.201 17.568 368.334 17.6318 368.477 17.6397C369.934 17.6397 373.571 17.1966 373.571 12.709C373.571 9.43367 369.083 6.92754 366.577 6.92754C360.882 6.92754 356.837 12.5307 356.837 16.9521C356.837 21.3735 359.771 26.3043 365.67 26.3043Z" fill="white"/>
<path d="M375.771 23.4314C375.771 25.0512 375.262 25.2091 374.523 25.8968C374.488 25.9286 374.464 25.9703 374.453 26.0163C374.442 26.0623 374.445 26.1105 374.462 26.1546C374.48 26.1987 374.51 26.2366 374.549 26.2633C374.588 26.29 374.634 26.3043 374.681 26.3043H383.086C383.131 26.2999 383.174 26.2831 383.21 26.2558C383.246 26.2284 383.274 26.1915 383.29 26.1492C383.307 26.1069 383.311 26.0609 383.303 26.0164C383.295 25.9718 383.274 25.9304 383.244 25.8968C382.515 25.2091 381.95 25.0512 381.95 23.4721V7.39107C381.953 7.30986 381.934 7.22935 381.895 7.15796C381.856 7.08657 381.799 7.02692 381.729 6.98527C381.659 6.94361 381.58 6.92147 381.498 6.92118C381.417 6.92088 381.337 6.94243 381.267 6.98357C380.045 7.74617 378.633 8.15195 377.192 8.15514C374.605 8.15514 374.08 7.18732 374.08 7.95648C374.08 8.8428 375.776 9.24521 375.776 13.0859L375.771 23.4314Z" fill="white"/>
<path d="M377.146 6.90207C379.734 6.90207 381.996 4.96134 381.996 2.4603C381.996 1.16648 381.272 0.27507 379.734 0.27507C378.079 0.27507 375.246 1.8898 375.246 4.55894C375.246 5.89351 376.219 6.90207 377.146 6.90207Z" fill="white"/>
<path d="M390.324 14.176C385.796 14.176 384.018 18.6228 384.018 20.8896C384.018 24.2413 385.475 26.3043 388.505 26.3043C391.74 26.3043 394.649 22.7081 394.649 22.7081C395.214 24.7456 396.467 26.3043 399.177 26.3043H401.479C401.525 26.3016 401.57 26.2868 401.608 26.2612C401.647 26.2356 401.678 26.2002 401.698 26.1587C401.718 26.1172 401.727 26.0711 401.724 26.025C401.72 25.979 401.704 25.9347 401.678 25.8968C400.955 25.1734 400.308 25.0512 400.308 23.4314V13.1674C400.308 8.9243 396.671 6.90207 393.961 6.90207C392.387 6.90207 391.134 7.92082 388.424 7.92082C387.338 7.83252 386.289 7.48301 385.368 6.90207C384.961 7.47973 384.762 8.17815 384.802 8.88355C384.762 10.6205 386.58 13.1674 389.005 13.1674C390.66 13.1674 391.954 11.8328 392.805 10.6613H392.764C392.764 10.6613 393.207 10.0551 393.411 10.2996C393.696 10.539 394.058 11.0688 394.139 12.2811V15.3883C393.681 14.7821 392.667 14.176 390.324 14.176ZM394.323 21.2105C394.047 21.6506 393.668 22.0169 393.219 22.2778C392.77 22.5388 392.264 22.6864 391.745 22.7081C390.329 22.7081 389.361 21.455 389.361 19.5143C389.361 17.5735 390.686 15.8569 391.979 15.8569C392.27 15.847 392.56 15.8982 392.83 16.0073C393.1 16.1164 393.344 16.281 393.546 16.4904C393.748 16.6997 393.904 16.9492 394.003 17.2227C394.103 17.4961 394.144 17.7875 394.124 18.0778C394.165 19.1068 394.205 20.2019 394.323 21.2105Z" fill="white"/>
<path d="M411.178 25.8968C410.449 25.2091 409.884 25.0512 409.884 23.4314V0.718217C409.884 0.640864 409.866 0.564597 409.83 0.496082C409.794 0.427567 409.742 0.368887 409.678 0.325171C409.614 0.281454 409.541 0.254029 409.464 0.245294C409.387 0.236559 409.309 0.246778 409.237 0.275059C407.903 0.840468 404.714 1.97129 402.814 1.60963C402.569 1.56888 402.249 1.60963 402.249 2.01204C402.249 2.41444 403.7 2.57745 403.7 7.50822V23.4976C403.7 25.0767 403.135 25.2346 402.447 25.9222C402.412 25.9544 402.387 25.9965 402.377 26.043C402.366 26.0895 402.37 26.1382 402.387 26.1825C402.405 26.2268 402.436 26.2646 402.476 26.291C402.516 26.3173 402.562 26.3308 402.61 26.3297H411.015C411.066 26.3313 411.116 26.3168 411.158 26.2885C411.201 26.2601 411.233 26.2192 411.251 26.1715C411.269 26.1238 411.272 26.0716 411.259 26.0224C411.245 25.9731 411.217 25.9292 411.178 25.8968Z" fill="white"/>
<path d="M269.199 55.6852C269.199 57.2642 268.634 57.4221 267.946 58.1098C267.911 58.1419 267.886 58.1841 267.875 58.2306C267.865 58.2771 267.868 58.3258 267.886 58.3701C267.904 58.4144 267.935 58.4522 267.975 58.4785C268.014 58.5048 268.061 58.5184 268.109 58.5173H288.031L288.54 52.3335C288.542 52.2342 288.511 52.1371 288.454 52.0561C288.397 51.975 288.315 51.9143 288.221 51.8825C288.127 51.8508 288.026 51.8498 287.931 51.8795C287.836 51.9093 287.753 51.9684 287.695 52.0482C286.64 53.505 287.735 56.3321 277.186 56.3321C276.055 56.3321 275.408 55.4865 275.408 54.2334V48.6303C275.49 47.4995 275.974 47.1021 276.702 47.1021H280.579C281.669 47.1021 282.076 48.2737 282.56 48.8799C282.584 48.9006 282.614 48.9143 282.645 48.9193C282.677 48.9244 282.709 48.9207 282.738 48.9085C282.768 48.8964 282.794 48.8764 282.812 48.8507C282.831 48.8249 282.843 48.7945 282.845 48.7627V42.2274C282.841 42.1965 282.827 42.1675 282.807 42.144C282.786 42.1206 282.759 42.1035 282.729 42.0949C282.699 42.0863 282.667 42.0866 282.637 42.0956C282.607 42.1046 282.58 42.1221 282.56 42.1459C282.051 42.7521 281.669 43.888 280.579 43.888H276.677C275.948 43.888 275.464 43.4805 275.383 42.3904V36.7414C275.383 35.4883 276.03 34.6428 277.161 34.6428C287.71 34.6428 286.615 37.5106 287.669 38.9266C287.726 39.01 287.809 39.0725 287.905 39.1046C288 39.1366 288.104 39.1365 288.2 39.1042C288.296 39.0719 288.378 39.0092 288.435 38.9257C288.492 38.8421 288.52 38.7423 288.515 38.6414L288.005 32.4983H268.308C268.068 32.4983 267.742 32.4575 267.742 32.865C267.742 33.2725 269.199 34.7599 269.199 39.7315V55.6852Z" fill="white"/>
<path d="M292.962 40.0473C290.537 40.0473 289.849 39.1559 289.284 39.7213C288.718 40.2867 290.781 40.5719 290.781 45.5027V55.6444C290.781 57.2642 290.216 57.4221 289.488 58.1098C289.457 58.1437 289.436 58.1856 289.428 58.2306C289.42 58.2756 289.425 58.3219 289.442 58.3643C289.459 58.4067 289.488 58.4436 289.524 58.4706C289.561 58.4977 289.605 58.5138 289.651 58.5173H298.055C298.102 58.5155 298.147 58.5013 298.186 58.4761C298.225 58.4508 298.257 58.4155 298.278 58.3739C298.299 58.3322 298.308 58.2857 298.305 58.2393C298.301 58.1928 298.286 58.1481 298.259 58.1098C297.531 57.4221 296.965 57.2642 296.965 55.6444V46.2719C296.965 44.815 297.77 43.2156 299.431 43.2156C300.449 43.2156 301.529 44.0612 301.529 46.2056V55.6597C301.529 57.2795 301.02 57.4374 300.276 58.1251C300.241 58.1572 300.216 58.1994 300.206 58.2459C300.195 58.2924 300.199 58.341 300.216 58.3853C300.234 58.4297 300.265 58.4675 300.305 58.4938C300.345 58.5201 300.391 58.5337 300.439 58.5326H308.844C308.892 58.5337 308.939 58.5201 308.978 58.4938C309.018 58.4675 309.049 58.4297 309.067 58.3853C309.084 58.341 309.088 58.2924 309.078 58.2459C309.067 58.1994 309.042 58.1572 309.007 58.1251C308.279 57.4374 307.713 57.2795 307.713 55.6597V46.7965C307.713 45.3397 308.36 42.9151 310.016 42.9151C311.834 42.9151 312.119 44.5705 312.119 46.715V55.6444C312.119 57.2642 311.554 57.4221 310.825 58.1098C310.795 58.1471 310.776 58.1924 310.771 58.2402C310.765 58.2881 310.774 58.3365 310.795 58.3796C310.817 58.4226 310.85 58.4586 310.892 58.483C310.933 58.5074 310.981 58.5194 311.029 58.5173H319.414C319.459 58.5138 319.503 58.4977 319.54 58.4706C319.576 58.4436 319.605 58.4067 319.622 58.3643C319.639 58.3219 319.644 58.2756 319.636 58.2306C319.628 58.1856 319.607 58.1437 319.577 58.1098C318.848 57.4221 318.283 57.2642 318.283 55.6444V47.2397C318.283 40.9743 315.374 39.925 313.031 39.925C310.846 39.925 308.625 41.5805 307.53 43.0373C306.924 39.5634 304.743 39.1151 302.762 39.1151C300.46 39.1151 298.076 41.0151 296.945 42.5534V39.599C296.945 39.5217 296.927 39.4454 296.891 39.3769C296.855 39.3084 296.803 39.2497 296.739 39.206C296.675 39.1623 296.601 39.1348 296.525 39.1261C296.448 39.1174 296.37 39.1276 296.298 39.1559C295.256 39.6724 294.122 39.9755 292.962 40.0473Z" fill="white"/>
<path d="M327.395 40.088V39.5786C327.397 39.5009 327.379 39.4239 327.344 39.3547C327.308 39.2855 327.256 39.2262 327.192 39.1822C327.128 39.1382 327.053 39.1109 326.976 39.1028C326.899 39.0946 326.821 39.1059 326.749 39.1355C325.71 39.6745 324.566 39.9788 323.397 40.0269C320.972 40.0269 320.285 39.1355 319.719 39.7416C319.154 40.3478 321.212 40.5516 321.212 45.4823V67.1462C321.013 67.8695 320.565 68.114 320.04 68.6386C320.007 68.6711 319.984 68.7128 319.974 68.7584C319.964 68.8041 319.969 68.8515 319.986 68.8947C320.004 68.9379 320.034 68.9749 320.072 69.001C320.111 69.0271 320.156 69.041 320.203 69.041H328.486C328.532 69.0404 328.577 69.027 328.617 69.0024C328.656 68.9778 328.688 68.9429 328.709 68.9014C328.73 68.86 328.739 68.8136 328.736 68.7673C328.732 68.721 328.716 68.6765 328.689 68.6386C327.961 67.9102 327.395 67.788 327.395 66.1733V57.8296C328.285 58.2785 329.267 58.514 330.263 58.5173C334.267 58.5173 338.755 54.9975 338.755 48.5743C338.755 42.151 334.226 39.1151 330.263 39.1151C329.239 39.1839 328.25 39.5192 327.395 40.088ZM330.992 41.7842C331.842 42.8539 333.167 45.1767 333.167 48.8137C333.2 51.4498 332.454 54.037 331.022 56.2506C330.94 56.3789 330.827 56.4845 330.694 56.5576C330.56 56.6308 330.41 56.6691 330.258 56.6691C330.106 56.6691 329.956 56.6308 329.823 56.5576C329.689 56.4845 329.576 56.3789 329.494 56.2506C328.162 54.1444 327.434 51.7128 327.39 49.2212V48.4571C327.393 46.0533 328.168 43.7139 329.601 41.7842C329.682 41.6757 329.787 41.5876 329.907 41.5268C330.028 41.4661 330.161 41.4345 330.296 41.4345C330.432 41.4345 330.565 41.4661 330.686 41.5268C330.806 41.5876 330.911 41.6757 330.992 41.7842Z" fill="white"/>
<path d="M339.238 48.5743C339.187 49.8698 339.397 51.1624 339.858 52.3745C340.318 53.5867 341.018 54.6934 341.916 55.6283C342.815 56.5631 343.893 57.3069 345.085 57.815C346.278 58.3231 347.562 58.585 348.858 58.585C350.155 58.585 351.438 58.3231 352.631 57.815C353.824 57.3069 354.901 56.5631 355.8 55.6283C356.698 54.6934 357.398 53.5867 357.859 52.3745C358.319 51.1624 358.529 49.8698 358.478 48.5743C358.478 42.1052 351.647 39.1151 348.856 39.1151C346.064 39.1151 339.238 42.1052 339.238 48.5743ZM352.172 48.8137C352.183 51.4951 351.317 54.1067 349.706 56.2506C349.603 56.3828 349.472 56.4898 349.321 56.5635C349.171 56.6371 349.005 56.6753 348.838 56.6753C348.67 56.6753 348.505 56.6371 348.354 56.5635C348.204 56.4898 348.072 56.3828 347.969 56.2506C346.39 54.093 345.54 51.4876 345.545 48.8137C345.48 46.241 346.373 43.736 348.051 41.7842C348.146 41.668 348.266 41.5743 348.403 41.5101C348.539 41.4458 348.687 41.4124 348.838 41.4124C348.988 41.4124 349.137 41.4458 349.273 41.5101C349.409 41.5743 349.529 41.668 349.625 41.7842C351.334 43.7199 352.244 46.2324 352.172 48.8137Z" fill="white"/>
<path d="M368.176 39.5226C368.421 40.2867 369.704 40.2103 369.704 41.7027C369.419 44.0051 368.288 47.3619 367.035 50.2297L365.105 39.599C365.105 39.2374 364.825 39.1559 364.499 39.1559C362.599 39.1559 359.69 39.1151 357.709 39.1151C357.51 39.1151 356.904 39.1559 356.98 39.5634C357.347 40.7757 359.084 39.8435 360.036 44.8965L362.018 55.7259C362.262 57.1827 361.977 57.4221 361.249 58.1098C361.213 58.1419 361.189 58.1841 361.178 58.2306C361.167 58.2771 361.171 58.3258 361.189 58.3701C361.207 58.4144 361.237 58.4522 361.277 58.4785C361.317 58.5048 361.364 58.5184 361.412 58.5173H370.071C370.117 58.5138 370.16 58.4977 370.197 58.4706C370.234 58.4436 370.263 58.4067 370.28 58.3643C370.296 58.3219 370.301 58.2756 370.293 58.2306C370.285 58.1856 370.265 58.1437 370.234 58.1098C369.506 57.4221 369.144 57.305 369.628 55.2828C370.234 53.0619 370.963 50.6984 371.665 48.5743L373.367 56.7243C373.326 57.3305 373.041 57.6106 372.516 58.0945C372.486 58.1285 372.465 58.1703 372.457 58.2153C372.449 58.2603 372.454 58.3066 372.471 58.349C372.488 58.3915 372.516 58.4283 372.553 58.4553C372.59 58.4824 372.634 58.4985 372.679 58.502H381.339C381.386 58.502 381.432 58.4878 381.471 58.461C381.51 58.4343 381.54 58.3965 381.557 58.3524C381.574 58.3083 381.578 58.2601 381.567 58.2141C381.556 58.168 381.531 58.1264 381.496 58.0945C380.773 57.4069 380.406 57.2897 380.931 55.2675C382.551 49.0429 385.174 42.2936 386.875 39.9861C386.943 39.9112 386.988 39.8177 387.002 39.7175C387.017 39.6174 387.001 39.5152 386.957 39.4239C386.914 39.3326 386.844 39.2565 386.757 39.2051C386.669 39.1537 386.569 39.1295 386.468 39.1355H381.822C381.726 39.1347 381.631 39.1551 381.544 39.1952C381.457 39.2354 381.38 39.2943 381.318 39.3678C381.256 39.4413 381.211 39.5275 381.187 39.6203C381.162 39.7131 381.158 39.8102 381.176 39.9046C381.42 41.6009 379.439 47.7032 378.506 50.4539L376.769 41.1985C376.729 40.3886 377.661 39.9454 378.063 39.5786C378.107 39.5476 378.14 39.5029 378.156 39.4516C378.172 39.4002 378.17 39.3451 378.152 39.2946C378.133 39.2441 378.098 39.2012 378.053 39.1724C378.007 39.1437 377.954 39.1307 377.9 39.1355H373.983C372.323 39.0947 370.305 39.0947 368.889 39.0947C368.701 39.1151 368.095 39.1151 368.176 39.5226Z" fill="white"/>
<path d="M395.662 51.279C396.469 51.2872 397.269 51.1348 398.016 50.8309C398.763 50.527 399.442 50.0775 400.013 49.5087C400.585 48.9399 401.038 48.2631 401.345 47.5176C401.653 46.7721 401.809 45.9729 401.805 45.1665C401.805 42.2172 398.163 39.1049 394.608 39.1049C388.832 39.1049 385.475 45.9764 385.475 49.6541C385.475 52.1195 387.13 58.5071 394.205 58.5071C397.522 58.5071 401.561 55.2318 401.561 53.2911C401.561 52.8887 401.52 52.4048 401.158 52.8479C399.498 54.8854 398.102 55.3541 396.793 55.3541C394.165 55.3541 391.985 52.4048 391.496 49.6134C391.944 50.189 393.115 51.279 395.662 51.279ZM391.455 49.3434C391.421 49.0885 391.407 48.8313 391.414 48.5743C391.414 45.518 393.681 41.3818 394.812 41.3818C395.942 41.3818 396.309 43.5212 396.309 44.7335C396.33 46.9595 394.328 50.2705 391.455 49.3434Z" fill="white"/>
<path d="M415.268 39.5328C413.195 39.5328 411.733 40.7196 410.989 42.7572V41.229C410.994 41.0981 410.972 40.9676 410.924 40.8457C410.876 40.7238 410.804 40.6132 410.711 40.5208C410.618 40.4284 410.507 40.3563 410.385 40.309C410.263 40.2617 410.132 40.2402 410.001 40.2459H403.313C403.263 40.2411 403.212 40.2475 403.164 40.2649C403.116 40.2822 403.073 40.3099 403.038 40.346C403.002 40.3821 402.975 40.4257 402.958 40.4736C402.941 40.5215 402.936 40.5725 402.941 40.6229V40.6534C402.938 40.8578 402.997 41.0584 403.109 41.229C404.145 42.9692 404.718 44.9454 404.775 46.9697V51.7579C404.714 53.7911 404.141 55.7762 403.109 57.5291C403.002 57.713 402.948 57.9226 402.951 58.1353C402.949 58.1851 402.956 58.235 402.974 58.2817C402.991 58.3284 403.019 58.3709 403.054 58.4064C403.089 58.4419 403.131 58.4697 403.177 58.4879C403.224 58.5062 403.273 58.5144 403.323 58.5122H412.456C412.504 58.511 412.551 58.5001 412.594 58.4802C412.637 58.4604 412.676 58.432 412.708 58.3968C412.74 58.3615 412.764 58.3202 412.78 58.2752C412.795 58.2303 412.801 58.1827 412.798 58.1353C412.789 57.9347 412.743 57.7376 412.66 57.5546C411.615 55.8078 411.042 53.8187 411 51.7833V47.5402C410.928 44.0764 411.815 42.1052 413.409 42.1052C414.871 42.1052 415.548 43.8014 414.122 47.6421C414.362 48.4877 415.243 48.9308 416.261 48.9308C418.029 48.9308 420.235 47.5708 420.235 44.6164C420.263 43.9513 420.154 43.2875 419.916 42.6658C419.678 42.0442 419.315 41.4779 418.85 41.0017C418.384 40.5255 417.827 40.1495 417.211 39.8969C416.595 39.6443 415.934 39.5204 415.268 39.5328Z" fill="white"/>
<path d="M450.069 55.6444V47.2397C450.069 40.9743 447.16 39.925 444.817 39.925C442.632 39.925 440.411 41.5805 439.321 43.0373C438.715 39.5634 436.53 39.1151 434.548 39.1151C432.246 39.1151 429.862 41.0151 428.731 42.5534V39.599C428.733 39.5212 428.715 39.4443 428.679 39.375C428.644 39.3058 428.592 39.2466 428.527 39.2026C428.463 39.1586 428.389 39.1313 428.312 39.1232C428.234 39.115 428.156 39.1262 428.084 39.1559C427.036 39.6751 425.895 39.9782 424.727 40.0473C422.303 40.0473 421.62 39.1559 421.05 39.7213C420.479 40.2867 422.547 40.5719 422.547 45.5027V55.6444C422.547 57.2642 421.982 57.4221 421.253 58.1098C421.223 58.1437 421.202 58.1856 421.194 58.2306C421.186 58.2756 421.191 58.3219 421.208 58.3643C421.225 58.4067 421.253 58.4436 421.29 58.4706C421.327 58.4977 421.371 58.5138 421.416 58.5173H429.821C429.868 58.5155 429.913 58.5013 429.952 58.4761C429.991 58.4508 430.023 58.4156 430.044 58.3739C430.064 58.3322 430.074 58.2857 430.07 58.2393C430.067 58.1928 430.051 58.1481 430.025 58.1098C429.296 57.4221 428.731 57.2642 428.731 55.6444V46.2719C428.731 44.815 429.541 43.2156 431.196 43.2156C432.215 43.2156 433.295 44.0612 433.295 46.2056V55.6597C433.295 57.2795 432.786 57.4374 432.047 58.1251C432.012 58.1569 431.988 58.1986 431.977 58.2446C431.966 58.2906 431.969 58.3389 431.986 58.3829C432.003 58.427 432.034 58.4649 432.073 58.4916C432.112 58.5183 432.158 58.5326 432.205 58.5326H440.615C440.662 58.5326 440.708 58.5183 440.747 58.4916C440.786 58.4649 440.816 58.427 440.833 58.3829C440.85 58.3389 440.854 58.2906 440.843 58.2446C440.832 58.1986 440.808 58.1569 440.773 58.1251C440.044 57.4374 439.479 57.2795 439.479 55.6597V46.7965C439.479 45.3397 440.126 42.9151 441.786 42.9151C443.605 42.9151 443.885 44.5705 443.885 46.715V55.6444C443.885 57.2642 443.32 57.4221 442.591 58.1098C442.561 58.1471 442.542 58.1924 442.536 58.2402C442.531 58.2881 442.54 58.3365 442.561 58.3796C442.583 58.4226 442.616 58.4586 442.658 58.483C442.699 58.5074 442.747 58.5194 442.795 58.5173H451.2C451.245 58.5138 451.289 58.4977 451.326 58.4706C451.363 58.4436 451.391 58.4067 451.408 58.3643C451.425 58.3219 451.43 58.2756 451.422 58.2306C451.414 58.1856 451.393 58.1437 451.363 58.1098C450.634 57.4221 450.069 57.2642 450.069 55.6444Z" fill="white"/>
<path d="M461.83 51.279C462.637 51.2872 463.437 51.1348 464.184 50.8309C464.931 50.527 465.61 50.0775 466.181 49.5087C466.753 48.9399 467.206 48.2631 467.514 47.5176C467.821 46.7721 467.978 45.9729 467.973 45.1665C467.973 42.2172 464.337 39.1049 460.781 39.1049C455 39.1049 451.648 45.9764 451.648 49.6541C451.648 52.1195 453.303 58.5071 460.374 58.5071C463.69 58.5071 467.729 55.2318 467.729 53.2911C467.729 52.8887 467.688 52.4048 467.327 52.8479C465.671 54.8854 464.27 55.3541 462.961 55.3541C460.333 55.3541 458.153 52.4048 457.669 49.6134C458.112 50.189 459.284 51.279 461.83 51.279ZM457.628 49.3434C457.594 49.0885 457.581 48.8313 457.587 48.5743C457.587 45.518 459.849 41.3818 460.98 41.3818C462.111 41.3818 462.477 43.5212 462.477 44.7335C462.477 46.9595 460.511 50.2705 457.628 49.3434Z" fill="white"/>
<path d="M486.927 55.6444V45.1767C486.927 39.6805 484.304 39.1151 481.997 39.1151C479.689 39.1151 477.31 41.0151 476.18 42.5534V39.599C476.18 39.5217 476.161 39.4454 476.125 39.3769C476.09 39.3084 476.037 39.2497 475.974 39.206C475.91 39.1623 475.836 39.1348 475.759 39.1261C475.682 39.1174 475.605 39.1276 475.533 39.1559C474.485 39.6751 473.343 39.9782 472.176 40.0473C469.751 40.0473 469.064 39.1559 468.498 39.7213C467.933 40.2867 469.996 40.5719 469.996 45.5027V55.8482C469.955 57.2642 469.43 57.4221 468.702 58.1098C468.671 58.1437 468.651 58.1856 468.643 58.2306C468.635 58.2756 468.64 58.3219 468.656 58.3643C468.673 58.4067 468.702 58.4436 468.739 58.4706C468.776 58.4977 468.819 58.5138 468.865 58.5173H477.27C477.316 58.5155 477.361 58.5013 477.401 58.4761C477.44 58.4508 477.471 58.4155 477.492 58.3739C477.513 58.3322 477.522 58.2857 477.519 58.2393C477.516 58.1928 477.5 58.1481 477.473 58.1098C476.745 57.4221 476.18 57.2642 476.18 55.6444V46.2719C476.18 44.815 476.989 43.2156 478.645 43.2156C479.664 43.2156 480.744 44.0612 480.744 46.2056V55.6597C480.744 57.2795 480.234 57.4374 479.491 58.1251C479.455 58.1572 479.431 58.1994 479.42 58.2459C479.409 58.2924 479.413 58.341 479.431 58.3853C479.448 58.4297 479.479 58.4675 479.519 58.4938C479.559 58.5201 479.606 58.5337 479.654 58.5326H488.058C488.106 58.5337 488.153 58.5201 488.193 58.4938C488.232 58.4675 488.263 58.4297 488.281 58.3853C488.299 58.341 488.303 58.2924 488.292 58.2459C488.281 58.1994 488.257 58.1572 488.221 58.1251C487.508 57.4221 486.927 57.2642 486.927 55.6444Z" fill="white"/>
<path d="M500.752 40.7349H497.319V32.8905C497.32 32.8137 497.302 32.7378 497.265 32.6703C497.229 32.6027 497.175 32.5459 497.11 32.5053C497.045 32.4647 496.97 32.4418 496.893 32.4388C496.816 32.4358 496.74 32.4528 496.672 32.4881C495.638 32.9992 494.508 33.2889 493.356 33.3388C490.931 33.3388 490.203 32.4881 489.637 33.0535C489.072 33.6189 491.135 33.8634 491.135 38.7942V40.7349H488.425V43.0373H489.841C490.61 43.0373 491.135 43.399 491.135 44.7743H491.176V58.5275H498.45C498.497 58.5275 498.543 58.5132 498.582 58.4865C498.621 58.4598 498.651 58.4219 498.668 58.3778C498.685 58.3338 498.689 58.2855 498.678 58.2395C498.667 58.1935 498.642 58.1518 498.607 58.12C497.884 57.4323 497.319 57.2744 497.319 55.6546V44.5298C497.395 43.399 497.925 43.0781 498.648 43.0781L498.572 43.0373H500.752V40.7349Z" fill="white"/>
<path d="M489.882 58.1353C489.847 58.1671 489.822 58.2088 489.812 58.2548C489.801 58.3008 489.804 58.349 489.821 58.3931C489.838 58.4372 489.868 58.4751 489.907 58.5018C489.946 58.5285 489.992 58.5428 490.04 58.5428H491.135V55.6699C491.135 57.2642 490.61 57.4221 489.882 58.1353Z" fill="white"/>
<path d="M291.464 86.4057C292.441 81.3472 293.701 76.3474 295.238 71.43C296.924 66.6979 298.916 65.4703 298.916 65.0679C298.916 64.6655 298.59 64.7011 298.341 64.7011H292.355C291.953 64.7011 291.265 65.4296 291.708 65.7505C293.002 66.6826 290.618 76.2182 289.243 81.3119L287.323 67.4874C287.282 66.3974 288.214 65.7912 288.617 65.3073C288.82 65.1036 288.698 64.7419 288.454 64.7419H285.708V64.7011H284.536C282.876 64.7011 280.859 64.6604 279.443 64.6604C279.239 64.6604 278.633 64.7011 278.714 65.2258C278.959 66.2446 280.242 66.1172 280.242 68.1344C279.998 70.885 278.826 76.7428 277.614 81.3119L275.607 65.3073C275.607 64.8641 275.327 64.7419 275.001 64.7419C273.101 64.7419 270.192 64.7011 268.211 64.7011C268.012 64.7011 267.406 64.7419 267.488 65.2666C267.849 66.8813 269.586 65.6282 270.544 72.3978L272.551 86.9711C272.795 88.9068 272.51 89.2328 271.787 90.2006C271.624 90.4043 271.746 90.71 271.945 90.71H280.604C280.808 90.71 280.889 90.384 280.767 90.2006C280.039 89.2328 279.677 89.1105 280.161 86.4057C280.767 83.3495 281.495 80.2626 282.224 77.3897L283.92 88.3006C283.879 89.1513 283.594 89.5129 283.069 90.2006C282.947 90.4043 283.029 90.71 283.232 90.71H291.892C292.09 90.71 292.213 90.384 292.055 90.2006C291.306 89.2328 290.939 89.1105 291.464 86.4057Z" fill="white"/>
<path d="M305.151 71.3281C302.365 71.3281 295.534 74.3182 295.534 80.7873C295.482 82.0828 295.693 83.3754 296.153 84.5876C296.613 85.7997 297.313 86.9064 298.212 87.8413C299.11 88.7762 300.188 89.52 301.381 90.028C302.574 90.5361 303.857 90.798 305.154 90.798C306.45 90.798 307.733 90.5361 308.926 90.028C310.119 89.52 311.197 88.7762 312.095 87.8413C312.994 86.9064 313.694 85.7997 314.154 84.5876C314.614 83.3754 314.825 82.0828 314.773 80.7873C314.788 74.3182 307.958 71.3281 305.151 71.3281ZM306.002 88.4636C305.899 88.5959 305.767 88.7029 305.617 88.7765C305.466 88.8501 305.301 88.8884 305.133 88.8884C304.966 88.8884 304.8 88.8501 304.65 88.7765C304.499 88.7029 304.368 88.5959 304.265 88.4636C302.686 86.3057 301.836 83.7005 301.84 81.0267C301.776 78.454 302.669 75.949 304.346 73.9973C304.442 73.881 304.562 73.7874 304.698 73.7231C304.834 73.6588 304.983 73.6255 305.133 73.6255C305.284 73.6255 305.432 73.6588 305.568 73.7231C305.704 73.7874 305.825 73.881 305.92 73.9973C307.629 75.933 308.54 78.4455 308.467 81.0267C308.482 83.7063 307.621 86.3175 306.017 88.4636H306.002Z" fill="white"/>
<path d="M344.292 87.8575V79.4527C344.292 73.1874 341.378 72.1381 339.035 72.1381C336.855 72.1381 334.629 73.7935 333.539 75.2504C332.932 71.7713 330.752 71.3281 328.771 71.3281C326.468 71.3281 324.084 73.2281 322.949 74.7664V71.8121C322.95 71.7343 322.932 71.6573 322.897 71.5881C322.861 71.5189 322.809 71.4596 322.745 71.4156C322.681 71.3717 322.607 71.3444 322.529 71.3362C322.452 71.328 322.374 71.3393 322.302 71.3689C321.256 71.8878 320.116 72.191 318.95 72.2603C316.525 72.2603 315.838 71.3689 315.272 71.9343C314.707 72.4997 316.765 72.785 316.765 77.7157V87.8575C316.765 89.4773 316.199 89.6352 315.476 90.3228C315.446 90.3564 315.425 90.3979 315.417 90.4424C315.409 90.487 315.413 90.533 315.429 90.5753C315.446 90.6176 315.473 90.6545 315.51 90.6818C315.546 90.7092 315.589 90.726 315.634 90.7303H324.044C324.09 90.7277 324.134 90.7129 324.173 90.6873C324.211 90.6617 324.242 90.6263 324.263 90.5848C324.283 90.5433 324.292 90.4971 324.288 90.4511C324.284 90.405 324.269 90.3608 324.242 90.3228C323.514 89.6352 322.949 89.4773 322.949 87.8575V78.4798C322.949 77.0281 323.759 75.4235 325.414 75.4235C326.433 75.4235 327.518 76.2742 327.518 78.4187V87.8727C327.518 89.4926 327.008 89.6505 326.265 90.3381C326.229 90.3703 326.205 90.4124 326.194 90.4589C326.183 90.5054 326.187 90.5541 326.205 90.5984C326.223 90.6427 326.253 90.6805 326.293 90.7069C326.333 90.7332 326.38 90.7467 326.428 90.7456H334.832C334.88 90.7467 334.927 90.7332 334.967 90.7069C335.007 90.6805 335.037 90.6427 335.055 90.5984C335.073 90.5541 335.077 90.5054 335.066 90.4589C335.055 90.4124 335.031 90.3703 334.995 90.3381C334.267 89.6505 333.702 89.4926 333.702 87.8727V79.0198C333.702 77.5629 334.348 75.1383 336.004 75.1383C337.822 75.1383 338.108 76.7938 338.108 78.9382V87.8676C338.108 89.4875 337.542 89.6454 336.814 90.333C336.784 90.37 336.765 90.4148 336.759 90.4621C336.754 90.5095 336.762 90.5575 336.783 90.6004C336.804 90.6432 336.836 90.6792 336.877 90.7041C336.918 90.7289 336.965 90.7416 337.012 90.7405H345.422C345.467 90.7362 345.51 90.7194 345.547 90.692C345.583 90.6647 345.611 90.6278 345.627 90.5855C345.643 90.5432 345.648 90.4972 345.639 90.4526C345.631 90.408 345.611 90.3666 345.58 90.333C344.882 89.6352 344.292 89.4773 344.292 87.8575Z" fill="white"/>
<path d="M356.089 83.4921C356.895 83.5002 357.695 83.3479 358.442 83.0439C359.189 82.74 359.868 82.2906 360.44 81.7217C361.011 81.1529 361.464 80.4761 361.772 79.7306C362.08 78.9852 362.236 78.186 362.232 77.3796C362.232 74.4303 358.59 71.318 355.034 71.318C349.258 71.318 345.901 78.1895 345.901 81.8672C345.901 84.3326 347.557 90.7202 354.632 90.7202C357.948 90.7202 361.987 87.4449 361.987 85.5041C361.987 85.1017 361.947 84.6127 361.585 85.061C359.924 87.0985 358.554 87.5671 357.219 87.5671C354.591 87.5671 352.411 84.6127 351.922 81.8264C352.375 82.402 353.542 83.4921 356.089 83.4921ZM351.886 81.5666C351.852 81.3134 351.839 81.0579 351.846 80.8026C351.846 77.7718 354.112 73.6051 355.243 73.6051C356.374 73.6051 356.741 75.7496 356.741 76.9619C356.741 79.1675 354.759 82.4835 351.886 81.5666Z" fill="white"/>
<path d="M381.232 87.8575V77.3897C381.232 71.8936 378.603 71.3281 376.301 71.3281C373.998 71.3281 371.615 73.2281 370.479 74.7664V71.8121C370.478 71.7364 370.459 71.662 370.423 71.5953C370.387 71.5286 370.336 71.4716 370.274 71.429C370.211 71.3865 370.139 71.3597 370.064 71.351C369.989 71.3423 369.913 71.3519 369.842 71.3791C368.796 71.898 367.656 72.2012 366.49 72.2705C364.066 72.2705 363.378 71.3791 362.812 71.9445C362.247 72.5099 364.305 72.7952 364.305 77.7259V88.0714C364.269 89.4875 363.74 89.6454 363.016 90.333C362.986 90.3666 362.965 90.408 362.957 90.4526C362.949 90.4972 362.953 90.5432 362.969 90.5855C362.986 90.6278 363.014 90.6647 363.05 90.692C363.086 90.7194 363.129 90.7362 363.174 90.7405H371.574C371.62 90.7379 371.664 90.723 371.703 90.6975C371.741 90.6719 371.772 90.6365 371.793 90.595C371.813 90.5535 371.822 90.5073 371.818 90.4613C371.815 90.4152 371.799 90.371 371.772 90.333C371.044 89.6454 370.479 89.4875 370.479 87.8676V78.4798C370.479 77.0281 371.289 75.4235 372.944 75.4235C373.963 75.4235 375.048 76.2742 375.048 78.4187V87.8727C375.048 89.4926 374.538 89.6505 373.795 90.3381C373.759 90.3703 373.735 90.4124 373.724 90.4589C373.713 90.5054 373.717 90.5541 373.735 90.5984C373.753 90.6427 373.783 90.6805 373.823 90.7069C373.863 90.7332 373.91 90.7467 373.958 90.7456H382.362C382.41 90.7467 382.457 90.7332 382.497 90.7069C382.537 90.6805 382.567 90.6427 382.585 90.5984C382.603 90.5541 382.607 90.5054 382.596 90.4589C382.585 90.4124 382.561 90.3703 382.525 90.3381C381.797 89.6352 381.232 89.4773 381.232 87.8575Z" fill="white"/>
<path d="M259.883 84.1696L259.704 84.4141C257.285 87.7301 254.519 90.1802 253.5 90.6488C253.673 88.866 256.016 86.0644 257.743 84.0269C258.288 83.3902 258.792 82.7892 259.21 82.2543C259.72 81.5666 260.27 80.5988 259.908 79.8602C259.787 79.6427 259.605 79.4658 259.384 79.3516C259.162 79.2374 258.912 79.1911 258.665 79.2184C258.146 79.2489 257.632 79.3448 257.137 79.5037C256.76 79.6055 256.368 79.7125 255.95 79.794C256.147 79.4188 256.26 79.0051 256.281 78.5817C256.281 78.3007 256.17 78.0312 255.971 77.8325C255.772 77.6338 255.503 77.5222 255.222 77.5222C254.941 77.5222 254.671 77.6338 254.473 77.8325C254.274 78.0312 254.162 78.3007 254.162 78.5817C254.164 78.8101 254.181 79.0381 254.213 79.2643C254.286 79.6066 254.249 79.9634 254.106 80.283C253.222 81.6992 252.253 83.0601 251.203 84.358C250.801 84.8602 250.323 85.2967 249.787 85.6519C250.729 84.3224 251.743 82.5956 251.743 81.205C251.757 80.9263 251.712 80.6478 251.611 80.3878C251.51 80.1278 251.355 79.8921 251.156 79.6962C250.957 79.5004 250.719 79.3488 250.458 79.2516C250.196 79.1543 249.917 79.1135 249.639 79.1318C246.863 79.1318 243.939 81.8417 242.217 84.2256L242.11 84.3682C241.448 85.2216 240.615 85.927 239.664 86.4393C238.713 86.9516 237.666 87.2594 236.589 87.343C237.348 86.3242 238.091 85.2749 238.804 84.2867C240.002 82.6312 241.112 81.1031 242.039 79.85C246.786 78.2913 250.337 73.4319 250.337 70.9869C250.342 70.7739 250.303 70.5621 250.222 70.3651C250.141 70.1681 250.019 69.9903 249.865 69.8431C249.711 69.6958 249.528 69.5824 249.328 69.51C249.128 69.4377 248.914 69.4081 248.702 69.4231C247.133 69.4231 245.854 70.5437 243.002 74.4252C242.411 75.2351 241.26 76.7989 239.803 78.76C238.04 81.149 235.83 84.1339 233.66 87.0985L233.41 87.0221C232.96 86.8549 232.492 86.7437 232.014 86.691C231.885 86.6834 231.755 86.7022 231.632 86.7462C231.51 86.7902 231.398 86.8586 231.303 86.9471C231.208 87.0356 231.131 87.1425 231.078 87.2613C231.026 87.3802 230.998 87.5084 230.996 87.6384C230.996 87.7621 231.022 87.8842 231.072 87.9973C231.122 88.1104 231.195 88.2119 231.286 88.2955C231.446 88.4362 231.645 88.5235 231.857 88.5451C231.541 89.6422 231.023 90.6703 230.328 91.5759L222.392 102.451L224.71 101.346C226.456 100.515 227.967 99.2615 229.106 97.6986L230.339 95.9973C231.867 93.9089 233.741 91.3212 235.641 88.7285C237.317 88.7747 238.975 88.3682 240.44 87.5518C240.163 88.2521 240.01 88.9948 239.986 89.7472C239.986 90.9545 240.557 92.2483 241.8 92.2483C243.547 92.2483 246.303 89.9408 248.325 87.5875C250.215 87.4296 251.498 86.1358 252.313 85.1527L253.108 84.1848H253.047C253.877 83.0744 254.656 81.9741 255.11 81.2508C255.652 81.2317 256.193 81.167 256.724 81.0573L256.449 81.3425C255.332 82.478 254.298 83.6936 253.357 84.9795C251.926 87.017 251.228 88.6164 251.228 89.8237C251.228 90.929 251.906 92.1057 253.154 92.1057C254.631 92.1057 258.008 89.0494 260.84 85.1221L261.518 84.1848L259.883 84.1696ZM248.722 70.8697L248.819 70.9971C248.819 72.3775 246.898 75.8412 243.638 77.7259L244.341 76.7479C244.606 76.3914 244.973 75.831 245.401 75.1892C246.221 73.926 248.136 71.0378 248.722 70.8697ZM246.812 87.1698C244.927 89.2786 243.027 90.7354 241.963 90.929C242.136 88.7642 247.479 80.5173 249.695 80.5173C250.204 80.5173 250.439 80.7313 250.439 81.1897C250.439 81.7806 250.006 82.7841 249.262 83.9352C249.099 83.8749 248.926 83.8439 248.753 83.8436C248.174 83.8639 247.623 84.0953 247.204 84.4941C246.784 84.893 246.525 85.4317 246.476 86.0084C246.455 86.209 246.474 86.4117 246.531 86.6049C246.589 86.7981 246.684 86.978 246.812 87.1341V87.1698Z" fill="white"/>
<path d="M232.269 93.3333L228.194 96.1603C227.354 96.7817 226.371 97.0874 226.182 97.337C223.289 101.086 221.878 100.775 221.511 100.775C219.845 100.775 220.141 99.7158 219.81 100.454C219.519 101.096 219.255 102.904 221.149 103.45C221.774 103.591 222.422 103.582 223.042 103.423C223.662 103.265 224.235 102.961 224.715 102.538C227.68 99.9603 232.269 93.3333 232.269 93.3333Z" fill="white"/>
</g>
<defs>
<clipPath id="clip0_103_3">
<rect width="500" height="103.551" fill="white" transform="translate(0.751953)"/>
</clipPath>
</defs>
</svg>
