<svg width="310" height="201" viewBox="0 0 310 201" fill="none" xmlns="http://www.w3.org/2000/svg">
<g clip-path="url(#clip0_103_68)">
<path d="M215.308 59.1774C218.01 45.2614 221.717 30.6229 225.266 19.4398C229.884 5.77509 235.539 2.31965 235.539 1.22019C235.539 0.120732 234.659 0.246384 233.999 0.246384C233.057 0.246384 231.8 0.246384 230.387 0.246384H230.355H217.727C216.628 0.246384 214.774 2.22541 215.968 3.10498C219.486 5.61803 213.015 31.5653 209.277 45.387L204 7.78553C203.906 4.8327 206.419 3.1678 207.518 1.84845C208.052 1.31443 207.738 0.152145 207.078 0.152145H196.429C191.937 0.152145 186.377 0.152145 182.545 0.152145C182.011 0.152145 180.377 0.183558 180.597 1.62856C181.257 4.3615 184.775 4.04737 184.775 9.54467C184.115 17.021 180.943 32.9474 177.644 45.3556L172.241 1.84845C172.241 0.654755 171.487 0.30921 170.608 0.30921L163.288 0.277797C159.425 0.246384 155.341 0.214971 152.168 0.214971C152.105 0.214971 152.011 0.214971 151.917 0.214971L112.462 0.152145C110.734 0.152145 108.787 0.152145 106.839 0.152145H106.493H61.5099C61.4785 0.152145 61.4471 0.152145 61.4156 0.152145C57.5832 0.152145 52.5886 0.152145 49.3216 0.152145C48.6619 0.152145 47.7823 0.0579053 47.7823 1.12595C47.7823 2.31965 51.7404 6.12064 51.7404 19.6283V62.947C51.5205 66.5595 49.8242 67.7218 48.0651 69.4809C47.6253 69.9207 47.9394 70.5803 48.5049 70.5803H71.6877C72.2532 70.5803 72.4731 69.9207 72.1275 69.4809C70.1171 67.5961 68.5464 66.5281 68.5464 62.0674V43.5651C68.7977 40.6437 70.1171 39.5756 72.0333 39.5756H86.5147C89.4676 39.5756 90.567 42.7483 91.8864 44.4132C92.1063 44.6331 92.6403 44.5075 92.6403 44.0991V26.4449C92.6403 26.1308 92.1063 25.9109 91.8864 26.225C90.567 27.8585 89.4676 30.937 86.5147 30.937H72.0333C70.0542 30.937 68.7349 29.8375 68.515 26.8847V11.5237C68.515 8.13108 70.2741 5.80651 73.3526 5.80651C92.1377 5.80651 99.0485 9.16771 102.347 12.5603C102.598 14.5708 102.787 16.8953 102.787 19.6597V63.0412C102.787 67.3134 101.185 67.6903 99.2999 69.5437C98.8601 69.9835 99.1742 70.6432 99.7396 70.6432H112.368H112.462H153.864L155.247 53.9314C155.247 52.7377 153.707 52.1723 152.953 53.1775C150.095 57.1355 153.048 64.8317 124.399 64.8317C121.32 64.8317 119.561 62.5386 119.561 59.1146V43.8478C119.781 40.7693 121.101 39.6698 123.08 39.6698H133.634C136.587 39.6698 137.687 42.8426 139.006 44.5075C139.226 44.7274 139.76 44.6017 139.76 44.1933V26.4449C139.76 26.1308 139.226 25.9109 139.006 26.225C137.687 27.8585 136.587 30.937 133.634 30.937H123.08C121.101 30.937 119.781 29.8375 119.561 26.8847V11.5237C119.561 8.13108 121.32 5.80651 124.399 5.80651C139.352 5.80651 149.404 7.9426 156.032 10.4871C156.911 12.8745 157.791 16.2357 158.482 21.1675L163.854 60.7166C164.513 65.994 163.76 66.5595 161.781 69.1982C161.341 69.7322 161.655 70.6118 162.22 70.6118H185.78C186.314 70.6118 186.534 69.7322 186.22 69.1982C184.241 66.5595 183.236 66.5281 184.555 59.1774C186.189 50.9472 188.168 42.497 190.147 34.6752L194.764 64.3291C194.639 66.6223 193.916 67.3134 192.471 69.1982C192.157 69.7322 192.346 70.6118 192.911 70.6118H195.864H212.795H216.408C216.942 70.6118 217.288 69.7322 216.848 69.1982C214.9 66.5595 213.863 66.5281 215.308 59.1774Z" fill="white"/>
<path d="M49.0703 110.318C49.0703 112.077 48.4421 112.266 47.6567 113.051C47.4683 113.239 47.6253 113.491 47.8452 113.491H57.2692C57.489 113.491 57.5833 113.208 57.4576 113.051C56.6409 112.266 56.0126 112.109 56.0126 110.287V100.077C56.1069 98.8208 56.6409 98.3496 57.4576 98.3496H61.8241C63.0492 98.3496 63.489 99.6689 64.0544 100.36C64.1486 100.486 64.3685 100.391 64.3685 100.266V92.9151C64.3685 92.7894 64.1486 92.6952 64.0544 92.8209C63.5204 93.5119 63.0492 94.8313 61.8241 94.8313H57.4576C56.6409 94.8313 56.1069 94.3915 56.0126 93.1036V89.0827C56.0126 87.7319 56.7351 86.7581 58.0231 86.7581C66.7245 86.7581 66.5046 89.9308 67.7297 91.5329C68.0124 91.9413 68.6407 91.7528 68.6407 91.2502L68.1381 84.3079H53.1226H53.0912C51.5206 84.3079 49.4473 84.3079 48.0965 84.3079C47.8138 84.3079 47.4683 84.2765 47.4683 84.7163C47.4683 85.2189 49.1017 86.8838 49.1017 92.4125V110.318H49.0703Z" fill="white"/>
<path d="M72.7873 91.7214C75.6773 91.7214 78.2218 89.5539 78.2218 86.7267C78.2218 85.2817 77.4051 84.2765 75.6773 84.2765C73.824 84.2765 70.6512 86.0984 70.6512 89.0827C70.6827 90.5905 71.7507 91.7214 72.7873 91.7214Z" fill="white"/>
<path d="M71.248 110.287C71.248 112.108 70.6511 112.297 69.8344 113.051C69.6459 113.239 69.803 113.491 70.0229 113.491H71.248H79.4468C79.6667 113.491 79.7609 113.208 79.6353 113.051C78.8185 112.266 78.1903 112.108 78.1903 110.318V92.2554C78.1903 91.847 77.7505 91.5643 77.405 91.8156C75.7715 92.8522 74.0123 93.135 72.8186 93.135C69.9286 93.135 69.3318 92.0355 69.3318 92.9151C69.3318 93.9203 71.248 94.3601 71.248 98.6637V110.287Z" fill="white"/>
<path d="M82.3368 110.506C82.3053 112.108 81.7085 112.266 80.8918 113.051C80.7661 113.239 80.8603 113.491 81.0802 113.491H90.5042C90.7241 113.491 90.8811 113.208 90.7241 113.051C89.9073 112.266 89.2791 112.108 89.2791 110.287V99.7631C89.2791 98.1297 90.19 96.3077 92.0434 96.3077C93.1743 96.3077 94.3994 97.2501 94.3994 99.6689V110.287C94.3994 112.108 93.8025 112.297 92.9858 113.051C92.7973 113.239 92.9544 113.491 93.1743 113.491H102.598C102.818 113.491 102.975 113.208 102.787 113.051C101.97 112.266 101.342 112.108 101.342 110.287V98.538C101.342 92.381 98.3889 91.7214 95.813 91.7214C93.2371 91.7214 90.567 93.8575 89.2791 95.5852V92.2868C89.2791 91.8784 88.8707 91.6585 88.5566 91.7842C86.6404 92.6009 85.5095 92.7894 84.787 92.7894C82.054 92.7894 81.3001 91.7842 80.6719 92.4125C79.9808 93.1035 82.3368 93.3549 82.3368 98.8836V110.506Z" fill="white"/>
<path d="M110.797 99.8888C105.708 99.8888 103.729 104.883 103.729 107.428C103.729 111.198 105.363 113.491 108.755 113.491C112.368 113.491 115.635 109.47 115.635 109.47C116.263 111.732 117.677 113.491 120.724 113.491H123.3C123.519 113.491 123.676 113.208 123.519 113.051C122.703 112.234 121.98 112.108 121.98 110.287V98.7579C121.98 93.9831 117.896 91.7214 114.849 91.7214C113.09 91.7214 111.677 92.8522 108.63 92.8522C106.965 92.8522 105.174 91.7214 105.174 91.7214C105.174 91.7214 104.546 92.4439 104.546 93.9517C104.514 95.8993 106.556 98.7579 109.258 98.7579C111.111 98.7579 112.556 97.2501 113.53 95.9307C113.53 95.9307 114.033 95.2396 114.253 95.5224C114.567 95.8051 114.975 96.3705 115.069 97.7527V101.24C114.567 100.58 113.436 99.8888 110.797 99.8888ZM115.289 107.773C114.692 108.81 113.373 109.438 112.399 109.438C110.797 109.438 109.729 108.025 109.729 105.857C109.729 103.69 111.237 101.742 112.682 101.742C114.095 101.742 115.101 102.747 115.101 104.224C115.101 105.417 115.164 106.643 115.289 107.773Z" fill="white"/>
<path d="M126.127 110.506C126.095 112.108 125.499 112.266 124.682 113.051C124.556 113.239 124.65 113.491 124.87 113.491H134.294C134.514 113.491 134.671 113.208 134.514 113.051C133.697 112.266 133.069 112.108 133.069 110.287V99.7631C133.069 98.1297 133.98 96.3077 135.833 96.3077C136.964 96.3077 138.189 97.2501 138.189 99.6689V110.287C138.189 112.108 137.593 112.297 136.776 113.051C136.587 113.239 136.744 113.491 136.964 113.491H146.388C146.608 113.491 146.765 113.208 146.577 113.051C145.76 112.266 145.132 112.108 145.132 110.287V98.538C145.132 92.381 142.179 91.7214 139.603 91.7214C137.027 91.7214 134.357 93.8575 133.069 95.5852V92.2868C133.069 91.8784 132.661 91.6585 132.347 91.7842C130.43 92.6009 129.3 92.7894 128.577 92.7894C125.844 92.7894 125.09 91.7842 124.462 92.4125C123.771 93.1035 126.127 93.3549 126.127 98.8836V110.506Z" fill="white"/>
<path d="M157.351 113.491C163.477 113.491 166.116 109.376 166.116 107.993C166.116 107.459 165.927 106.862 165.519 106.862C165.519 106.862 165.236 110.035 161.152 110.035C158.325 110.035 154.399 107.302 154.399 102.37C154.399 97.4386 157.54 94.2972 158.2 94.2972C158.828 94.2972 161.247 96.6532 159.927 103.093C159.896 103.407 160.147 103.69 160.524 103.721C162.158 103.721 166.241 103.219 166.241 98.1925C166.241 94.5171 161.215 91.7214 158.388 91.7214C151.98 91.7214 147.456 98.0354 147.456 102.967C147.456 107.899 150.723 113.491 157.351 113.491Z" fill="white"/>
<path d="M168.692 110.287C168.692 112.108 168.095 112.297 167.278 113.051C167.09 113.239 167.247 113.491 167.466 113.491H168.692H176.89C177.11 113.491 177.205 113.208 177.079 113.051C176.262 112.266 175.634 112.108 175.634 110.318V92.2554C175.634 91.847 175.194 91.5643 174.849 91.8156C173.215 92.8522 171.456 93.135 170.262 93.135C167.372 93.135 166.775 92.0355 166.775 92.9151C166.775 93.9203 168.692 94.3601 168.692 98.6637V110.287Z" fill="white"/>
<path d="M170.231 91.7214C173.121 91.7214 175.665 89.5539 175.665 86.7267C175.665 85.2817 174.848 84.2765 173.121 84.2765C171.267 84.2765 168.095 86.0984 168.095 89.0827C168.095 90.5905 169.163 91.7214 170.231 91.7214Z" fill="white"/>
<path d="M184.995 99.8888C179.906 99.8888 177.927 104.883 177.927 107.428C177.927 111.198 179.56 113.491 182.953 113.491C186.566 113.491 189.833 109.47 189.833 109.47C190.461 111.732 191.874 113.491 194.921 113.491H197.497C197.717 113.491 197.874 113.208 197.717 113.051C196.901 112.234 196.178 112.108 196.178 110.287V98.7579C196.178 93.9831 192.094 91.7214 189.047 91.7214C187.288 91.7214 185.875 92.8522 182.827 92.8522C181.163 92.8522 179.372 91.7214 179.372 91.7214C179.372 91.7214 178.744 92.4439 178.744 93.9517C178.712 95.8993 180.754 98.7579 183.456 98.7579C185.309 98.7579 186.754 97.2501 187.728 95.9307H187.696C187.696 95.9307 188.199 95.2396 188.419 95.5224C188.733 95.8051 189.141 96.3705 189.236 97.7527V101.24C188.765 100.58 187.634 99.8888 184.995 99.8888ZM189.487 107.773C188.89 108.81 187.571 109.438 186.597 109.438C184.995 109.438 183.927 108.025 183.927 105.857C183.927 103.69 185.435 101.742 186.88 101.742C188.293 101.742 189.299 102.747 189.299 104.224C189.299 105.417 189.361 106.643 189.487 107.773Z" fill="white"/>
<path d="M208.398 113.051C207.581 112.266 206.953 112.108 206.953 110.287V84.7791C206.953 84.4021 206.576 84.1508 206.23 84.2765C204.722 84.9047 201.141 86.1927 199.005 85.7843C198.722 85.7529 198.377 85.7843 198.377 86.2241C198.377 86.7267 200.01 86.8523 200.01 92.381V110.287C200.01 112.046 199.382 112.234 198.597 113.019C198.408 113.208 198.565 113.459 198.785 113.459H208.209C208.461 113.491 208.555 113.208 208.398 113.051Z" fill="white"/>
<path d="M49.0704 146.474C49.0704 148.234 48.4421 148.422 47.6568 149.207C47.4683 149.396 47.6254 149.647 47.8453 149.647H53.0598H53.0913H70.18L70.714 142.705C70.714 142.202 70.0857 141.982 69.7716 142.391C68.5779 144.024 69.803 147.197 57.9917 147.197C56.7352 147.197 55.9813 146.255 55.9813 144.841V138.527C56.0755 137.27 56.6095 136.799 57.4263 136.799H61.7927C63.0178 136.799 63.4576 138.119 64.023 138.81C64.1172 138.904 64.3371 138.841 64.3371 138.684V131.396C64.3371 131.27 64.1172 131.176 64.023 131.302C63.489 131.993 63.0178 133.25 61.7927 133.25H57.4263C56.6095 133.25 56.0755 132.81 55.9813 131.585V125.239C55.9813 123.826 56.7038 122.883 57.9917 122.883C69.8344 122.883 68.6093 126.119 69.7716 127.689C70.0857 128.098 70.714 127.909 70.714 127.375L70.18 120.496H53.0913H53.0598C51.4892 120.496 49.4159 120.496 48.0652 120.496C47.7824 120.496 47.4369 120.464 47.4369 120.904C47.4369 121.407 49.0704 123.04 49.0704 128.6V146.474Z" fill="white"/>
<path d="M75.7401 128.915C73.0072 128.915 72.2532 127.909 71.625 128.538C70.9339 129.229 73.2899 129.48 73.2899 135.009V146.38C73.2899 148.202 72.6616 148.391 71.8449 149.145C71.7192 149.333 71.8135 149.584 72.0334 149.584H73.2899H81.4573C81.6772 149.584 81.8342 149.302 81.6772 149.145C80.8604 148.359 80.2322 148.202 80.2322 146.38V135.857C80.2322 134.223 81.1432 132.401 82.9965 132.401C84.1274 132.401 85.3525 133.344 85.3525 135.763V146.38C85.3525 148.202 84.7557 148.391 83.9389 149.145C83.7504 149.333 83.9075 149.584 84.1274 149.584H93.5513C93.7712 149.584 93.9283 149.302 93.7398 149.145C92.9231 148.359 92.2948 148.202 92.2948 146.38V136.454C92.2948 134.82 93.0173 132.087 94.8707 132.087C96.9125 132.087 97.2267 133.941 97.2267 136.359V146.38C97.2267 148.202 96.5984 148.391 95.7817 149.145C95.656 149.333 95.7503 149.584 96.0016 149.584H105.425C105.645 149.584 105.74 149.302 105.614 149.145C104.797 148.359 104.169 148.202 104.169 146.38V136.956C104.169 129.92 100.902 128.757 98.2633 128.757C95.8131 128.757 93.3314 130.611 92.1063 132.244C91.4152 128.349 88.965 127.846 86.7661 127.846C84.1902 127.846 81.5201 129.983 80.2322 131.71V128.412C80.2322 128.004 79.8238 127.784 79.5097 127.909C77.6249 128.726 76.4626 128.915 75.7401 128.915Z" fill="white"/>
<path d="M114.378 128.946V128.412C114.378 128.004 113.97 127.784 113.656 127.909C111.74 128.757 110.609 128.914 109.886 128.914C107.153 128.914 106.399 127.909 105.771 128.6C105.08 129.229 107.436 129.511 107.436 135.04V159.354C107.216 160.171 106.713 160.453 106.117 161.019C105.928 161.207 106.085 161.458 106.305 161.458H115.603C115.823 161.458 115.98 161.176 115.823 161.019C115.007 160.202 114.378 160.076 114.378 158.254V148.862C115.384 149.364 116.452 149.647 117.614 149.647C122.106 149.647 127.132 145.689 127.132 138.495C127.132 131.239 122.043 127.878 117.614 127.878C116.734 127.878 115.572 128.223 114.378 128.946ZM118.431 130.862C119.373 132.087 120.881 134.663 120.881 138.747C120.881 142.736 119.467 145.595 118.462 147.103C118.054 147.731 117.205 147.731 116.734 147.103C115.823 145.689 114.473 142.988 114.378 139.218V138.37C114.473 134.506 115.918 132.056 116.829 130.894C117.237 130.328 117.959 130.328 118.431 130.862Z" fill="white"/>
<path d="M127.666 138.495C127.666 145.721 133.383 149.647 138.472 149.647C143.561 149.647 149.278 145.689 149.278 138.495C149.278 131.239 141.613 127.878 138.472 127.878C135.331 127.878 127.666 131.239 127.666 138.495ZM142.179 138.747C142.179 142.736 140.545 145.595 139.415 147.103C138.975 147.731 137.97 147.731 137.467 147.103C136.367 145.595 134.734 142.736 134.734 138.747C134.734 134.663 136.462 132.087 137.561 130.862C138.064 130.328 138.88 130.328 139.32 130.862C140.483 132.087 142.179 134.663 142.179 138.747Z" fill="white"/>
<path d="M160.147 128.318C160.43 129.166 161.875 129.103 161.875 130.768C161.561 133.344 160.273 137.113 158.891 140.349L156.723 128.412C156.723 128.004 156.409 127.909 156.032 127.909C153.896 127.909 150.629 127.878 148.399 127.878C148.179 127.878 147.488 127.909 147.582 128.38C147.99 129.731 149.938 128.695 151.037 134.38L153.268 146.537C153.55 148.171 153.236 148.453 152.42 149.207C152.231 149.396 152.388 149.647 152.608 149.647H162.315C162.535 149.647 162.629 149.364 162.503 149.207C161.686 148.422 161.278 148.296 161.812 146.035C162.503 143.553 163.32 140.914 164.137 138.495L166.053 147.668C166.021 148.359 165.676 148.673 165.11 149.207C164.985 149.396 165.079 149.647 165.299 149.647H166.524H173.498H175.006C175.225 149.647 175.383 149.364 175.194 149.207C174.377 148.422 173.969 148.296 174.566 146.035C176.388 139.061 179.341 131.49 181.225 128.883C181.539 128.475 181.225 127.941 180.786 127.941H175.571C175.131 127.941 174.754 128.349 174.848 128.789C175.131 130.705 172.901 137.553 171.864 140.632L169.917 130.234C169.885 129.323 170.922 128.82 171.362 128.412C171.582 128.223 171.456 127.909 171.173 127.909H168.095H166.775C164.922 127.878 162.66 127.878 161.058 127.878C160.744 127.878 160.053 127.878 160.147 128.318Z" fill="white"/>
<path d="M190.995 141.511C194.89 141.511 197.874 138.433 197.874 134.663C197.874 131.365 193.791 127.846 189.801 127.846C183.33 127.846 179.56 135.543 179.56 139.689C179.56 142.454 181.414 149.616 189.361 149.616C193.068 149.616 197.623 145.94 197.623 143.773C197.623 143.333 197.592 142.768 197.183 143.27C195.33 145.595 193.791 146.097 192.283 146.097C189.33 146.097 186.88 142.799 186.346 139.658C186.817 140.286 188.136 141.511 190.995 141.511ZM186.283 139.344C186.251 139.061 186.251 138.747 186.251 138.496C186.251 135.103 188.796 130.422 190.052 130.422C191.309 130.422 191.717 132.841 191.717 134.192C191.717 136.674 189.487 140.38 186.283 139.344Z" fill="white"/>
<path d="M212.984 128.349C210.659 128.349 209.026 129.668 208.178 131.962V130.234C208.178 129.574 207.707 129.134 207.078 129.134H199.571C199.319 129.134 199.162 129.291 199.162 129.543V129.574C199.162 129.794 199.225 130.077 199.351 130.234C200.45 132.024 201.204 134.569 201.204 136.674V142.045C201.204 144.15 200.45 146.694 199.351 148.516C199.225 148.705 199.162 148.925 199.162 149.176V149.207C199.162 149.427 199.319 149.616 199.571 149.616H209.811C210.031 149.616 210.188 149.427 210.188 149.207V149.176C210.188 148.956 210.125 148.705 210.031 148.516C208.9 146.694 208.178 144.118 208.178 142.045V137.27C208.115 133.375 209.089 131.176 210.879 131.176C212.513 131.176 213.267 133.092 211.665 137.396C211.947 138.338 212.921 138.841 214.052 138.841C216.031 138.841 218.513 137.302 218.513 134.003C218.544 130.768 216.188 128.349 212.984 128.349Z" fill="white"/>
<path d="M252.062 146.412V136.988C252.062 129.951 248.795 128.789 246.156 128.789C243.706 128.789 241.224 130.642 239.999 132.276C239.308 128.38 236.858 127.878 234.659 127.878C232.083 127.878 229.413 130.014 228.125 131.742V128.443C228.125 128.035 227.717 127.815 227.402 127.941C225.486 128.757 224.355 128.946 223.633 128.946C220.9 128.946 220.146 127.941 219.518 128.569C218.827 129.26 221.183 129.511 221.183 135.04V146.412C221.183 148.234 220.554 148.422 219.738 149.176C219.612 149.364 219.706 149.616 219.926 149.616H221.183H229.35C229.57 149.616 229.727 149.333 229.57 149.176C228.753 148.391 228.125 148.234 228.125 146.412V135.888C228.125 134.255 229.036 132.433 230.889 132.433C232.02 132.433 233.245 133.375 233.245 135.794V146.412C233.245 148.234 232.648 148.422 231.832 149.176C231.643 149.364 231.8 149.616 232.02 149.616H241.444C241.664 149.616 241.821 149.333 241.633 149.176C240.816 148.391 240.188 148.234 240.188 146.412V136.485C240.188 134.852 240.91 132.119 242.764 132.119C244.805 132.119 245.119 133.972 245.119 136.391V146.412C245.119 148.234 244.491 148.422 243.674 149.176C243.549 149.364 243.643 149.616 243.894 149.616H253.318C253.538 149.616 253.632 149.333 253.507 149.176C252.69 148.422 252.062 148.234 252.062 146.412Z" fill="white"/>
<path d="M265.255 141.511C269.151 141.511 272.135 138.433 272.135 134.663C272.135 131.365 268.051 127.846 264.062 127.846C257.591 127.846 253.821 135.543 253.821 139.689C253.821 142.454 255.674 149.616 263.622 149.616C267.329 149.616 271.884 145.94 271.884 143.773C271.884 143.333 271.852 142.768 271.444 143.27C269.59 145.595 268.051 146.097 266.543 146.097C263.591 146.097 261.14 142.799 260.606 139.658C261.077 140.286 262.397 141.511 265.255 141.511ZM260.512 139.344C260.481 139.061 260.481 138.747 260.481 138.496C260.481 135.103 263.025 130.422 264.282 130.422C265.538 130.422 265.947 132.841 265.947 134.192C265.978 136.674 263.748 140.38 260.512 139.344Z" fill="white"/>
<path d="M293.402 146.412V134.663C293.402 128.506 290.449 127.846 287.873 127.846C285.297 127.846 282.627 129.983 281.339 131.71V128.412C281.339 128.004 280.931 127.784 280.617 127.909C278.7 128.726 277.569 128.915 276.847 128.915C274.114 128.915 273.36 127.909 272.732 128.538C272.041 129.229 274.397 129.48 274.397 135.009V146.632C274.365 148.234 273.768 148.391 272.952 149.176C272.826 149.364 272.92 149.616 273.14 149.616H282.564C282.784 149.616 282.941 149.333 282.784 149.176C281.967 148.391 281.339 148.234 281.339 146.412V135.888C281.339 134.255 282.25 132.433 284.103 132.433C285.234 132.433 286.459 133.375 286.459 135.794V146.412C286.459 148.234 285.862 148.422 285.046 149.176C284.857 149.364 285.014 149.616 285.234 149.616H294.658C294.878 149.616 295.035 149.333 294.847 149.176C294.03 148.422 293.402 148.234 293.402 146.412Z" fill="white"/>
<path d="M308.92 129.7H305.056V120.904C305.056 120.527 304.679 120.276 304.333 120.464C302.417 121.281 301.349 121.407 300.627 121.407C297.894 121.407 297.077 120.464 296.449 121.093C295.82 121.721 298.114 122.004 298.114 127.532V129.7H295.098V132.276H296.7C297.548 132.276 298.145 132.684 298.145 134.223H298.176V149.647H306.344C306.564 149.647 306.721 149.364 306.532 149.207C305.716 148.422 305.087 148.265 305.087 146.443V133.972C305.182 132.715 305.778 132.339 306.595 132.339L306.501 132.307H308.951V129.7H308.92Z" fill="white"/>
<path d="M296.731 149.176C296.543 149.364 296.7 149.616 296.92 149.616H298.145V146.38C298.113 148.234 297.548 148.422 296.731 149.176Z" fill="white"/>
<path d="M74.0752 180.935C75.206 175.029 76.8081 168.809 78.3159 164.129C80.2007 158.82 82.431 157.438 82.431 156.998C82.431 156.527 82.0541 156.589 81.8028 156.589C80.452 156.589 77.4678 156.589 75.8657 156.589H75.8343H75.1432H75.1118C74.672 156.589 73.8867 157.406 74.3893 157.783C75.8343 158.82 73.1642 169.532 71.6249 175.249L69.4574 159.731C69.426 158.506 70.4627 157.815 70.9024 157.281C71.1223 157.061 70.9967 156.652 70.714 156.652H67.6355V156.621H66.3161C64.4627 156.621 62.201 156.589 60.5989 156.589C60.379 156.589 59.6879 156.621 59.7822 157.218C60.0649 158.349 61.5099 158.223 61.5099 160.485C61.2272 163.563 59.9078 170.16 58.5571 175.28L56.3267 157.312C56.3267 156.809 56.0126 156.684 55.6357 156.684C53.4996 156.684 50.2326 156.652 48.0023 156.652C47.7824 156.652 47.0913 156.684 47.1855 157.281C47.5939 159.102 49.5415 157.689 50.641 165.322L52.8713 181.657C53.154 183.825 52.8399 184.202 52.0231 185.27C51.8347 185.49 51.9917 185.866 52.2116 185.866H61.9183C62.1382 185.866 62.2324 185.49 62.1068 185.27C61.29 184.17 60.8817 184.045 61.4157 180.997C62.1068 177.605 62.9235 174.118 63.7402 170.882L65.6564 183.134C65.625 184.076 65.2795 184.484 64.7141 185.27C64.5884 185.49 64.6826 185.866 64.9025 185.866H66.1276H73.1014H74.6092C74.8291 185.866 74.9861 185.49 74.7977 185.27C73.8867 184.107 73.4783 183.982 74.0752 180.935Z" fill="white"/>
<path d="M89.4362 164.003C86.2949 164.003 78.6301 167.364 78.6301 174.621C78.6301 181.846 84.3473 185.772 89.4362 185.772C94.5252 185.772 100.242 181.814 100.242 174.621C100.242 167.364 92.5775 164.003 89.4362 164.003ZM90.41 183.259C89.9703 183.887 88.965 183.887 88.4624 183.259C87.363 181.751 85.7295 178.893 85.7295 174.903C85.7295 170.82 87.4572 168.244 88.5567 167.019C89.0593 166.485 89.876 166.485 90.3158 167.019C91.4467 168.244 93.1744 170.82 93.1744 174.903C93.1744 178.893 91.5409 181.751 90.41 183.259Z" fill="white"/>
<path d="M133.352 182.568V173.144C133.352 166.108 130.085 164.945 127.446 164.945C124.996 164.945 122.514 166.799 121.289 168.432C120.598 164.537 118.148 164.034 115.949 164.034C113.373 164.034 110.703 166.17 109.415 167.898V164.568C109.415 164.16 109.007 163.94 108.692 164.066C106.776 164.883 105.645 165.071 104.923 165.071C102.19 165.071 101.436 164.066 100.808 164.694C100.117 165.385 102.473 165.636 102.473 171.165V182.537C102.473 184.359 101.844 184.547 101.028 185.301C100.902 185.49 100.996 185.741 101.216 185.741H102.473H110.64C110.86 185.741 111.017 185.458 110.86 185.301C110.043 184.516 109.415 184.359 109.415 182.537V172.013C109.415 170.38 110.326 168.558 112.179 168.558C113.31 168.558 114.535 169.5 114.535 171.919V182.537C114.535 184.359 113.938 184.547 113.122 185.301C112.933 185.49 113.09 185.741 113.31 185.741H122.734C122.954 185.741 123.111 185.458 122.923 185.301C122.106 184.516 121.478 184.359 121.478 182.537V172.61C121.478 170.977 122.2 168.244 124.053 168.244C126.095 168.244 126.409 170.097 126.409 172.516V182.537C126.409 184.359 125.781 184.547 124.964 185.301C124.839 185.49 124.933 185.741 125.184 185.741H134.608C134.828 185.741 134.922 185.458 134.797 185.301C133.98 184.547 133.352 184.39 133.352 182.568Z" fill="white"/>
<path d="M146.577 177.668C150.472 177.668 153.456 174.589 153.456 170.82C153.456 167.521 149.372 164.003 145.383 164.003C138.912 164.003 135.142 171.699 135.142 175.846C135.142 178.61 136.996 185.772 144.943 185.772C148.65 185.772 153.205 182.097 153.205 179.929C153.205 179.49 153.173 178.924 152.765 179.427C150.912 181.751 149.372 182.254 147.865 182.254C144.912 182.254 142.461 178.956 141.927 175.814C142.43 176.443 143.749 177.668 146.577 177.668ZM141.865 175.5C141.833 175.217 141.833 174.903 141.833 174.652C141.833 171.259 144.378 166.579 145.634 166.579C146.891 166.579 147.299 168.998 147.299 170.348C147.331 172.83 145.1 176.537 141.865 175.5Z" fill="white"/>
<path d="M174.786 182.568V170.82C174.786 164.663 171.833 164.003 169.257 164.003C166.681 164.003 164.011 166.139 162.723 167.867V164.568C162.723 164.16 162.315 163.94 162.001 164.066C160.084 164.883 158.953 165.071 158.231 165.071C155.498 165.071 154.744 164.066 154.116 164.694C153.425 165.385 155.781 165.636 155.781 171.165V182.788C155.749 184.39 155.152 184.547 154.336 185.332C154.21 185.521 154.304 185.772 154.524 185.772H163.948C164.168 185.772 164.325 185.49 164.168 185.332C163.351 184.547 162.723 184.39 162.723 182.568V172.045C162.723 170.411 163.634 168.589 165.487 168.589C166.618 168.589 167.843 169.532 167.843 171.95V182.568C167.843 184.39 167.247 184.579 166.43 185.332C166.241 185.521 166.398 185.772 166.618 185.772H176.042C176.262 185.772 176.419 185.49 176.231 185.332C175.445 184.547 174.786 184.39 174.786 182.568Z" fill="white"/>
<path d="M11.406 193.594C11.7202 193.154 12.0971 192.652 12.4741 192.118C11.8144 192.997 11.0291 193.971 10.2751 194.945C10.6835 194.505 11.0605 194.065 11.406 193.594Z" fill="white"/>
<path d="M45.9605 178.422L45.772 178.704C43.0705 182.442 39.9606 185.175 38.7983 185.709C38.9868 183.699 41.6255 180.589 43.5731 178.296C44.1699 177.573 44.7354 176.914 45.2066 176.317C45.8034 175.563 46.4003 174.463 45.9919 173.615C45.8662 173.333 45.4893 172.893 44.6097 172.893C44.1071 172.893 43.5417 173.05 42.9134 173.207C42.505 173.333 42.0653 173.427 41.5941 173.521C41.814 173.081 41.971 172.61 41.971 172.17C41.971 170.505 39.5836 170.537 39.5836 172.17C39.5836 172.453 39.615 172.704 39.6465 172.924C39.7093 173.364 39.7407 173.615 39.5208 174.087C38.9554 175.029 38.2957 176.034 36.2538 178.673C35.7198 179.301 35.2172 179.772 34.6518 180.118C35.7198 178.641 36.8507 176.662 36.8507 175.123C36.8507 173.961 36.1282 172.799 34.4947 172.799C31.3848 172.799 28.0864 175.846 26.1702 178.516L26.0446 178.673C25.3221 179.615 23.3745 181.689 19.8562 182.003C20.7043 180.84 21.5525 179.678 22.3378 178.579C23.6886 176.725 24.9137 174.998 25.9817 173.615C31.322 171.856 35.3114 166.422 35.3114 163.657C35.3114 162.621 34.5889 161.898 33.4895 161.898C31.7303 161.898 30.2853 163.155 27.0812 167.521C26.4215 168.432 25.1336 170.191 23.5001 172.39C21.5211 175.06 19.0394 178.422 16.6206 181.751C16.5264 181.72 16.4322 181.689 16.3379 181.657C15.584 181.437 15.1128 181.28 14.7673 181.28C14.139 181.28 13.6364 181.751 13.6364 182.348C13.6364 182.631 13.762 182.914 13.9505 183.102C14.0762 183.228 14.2961 183.353 14.5788 183.385C14.4217 184.076 13.9505 185.27 12.8825 186.777L8.07627 193.28C4.87213 197.395 3.30148 197.05 2.89311 197.05C1.03973 197.05 1.35386 195.856 0.976907 196.673C0.662776 197.395 0.348645 199.437 2.48474 200.034C2.48474 200.034 4.62083 200.662 6.50562 198.997C7.63649 197.992 9.01867 196.484 10.3066 194.913C11.0919 193.94 11.8458 192.966 12.5055 192.086C13.8877 190.264 15.8353 187.531 15.9924 187.311C16.9034 186.055 17.8457 184.798 18.7881 183.479C20.6729 183.542 22.5577 183.071 24.1598 182.16C23.8142 183.071 23.6572 183.887 23.6572 184.61C23.6572 185.961 24.2854 187.406 25.699 187.406C27.6466 187.406 30.7565 184.798 33.0183 182.16C35.123 181.971 36.568 180.526 37.4789 179.427L38.3585 178.327H38.2957C39.2381 177.071 40.1176 175.846 40.6203 175.029C41.3428 174.998 41.9396 174.903 42.4422 174.809C42.348 174.903 42.2537 175.029 42.1281 175.123C41.1543 176.128 39.8349 177.511 38.6412 179.207C37.0392 181.5 36.2538 183.291 36.2538 184.641C36.2538 185.898 37.0077 187.217 38.4213 187.217C40.0862 187.217 43.8558 183.762 47.0599 179.395L47.8139 178.359H45.9605V178.422ZM28.4948 170.097C28.7775 169.689 29.2173 169.06 29.6885 168.338C30.5995 166.956 32.767 163.689 33.4267 163.5L33.5209 163.657C33.5209 165.197 31.3534 169.092 27.7095 171.197C28.055 170.694 28.3377 170.348 28.4948 170.097ZM33.4581 178.013C32.0131 178.013 31.0078 179.27 30.9136 180.432C30.8822 180.966 31.0078 181.406 31.2906 181.72C29.1859 184.076 27.0498 185.741 25.8561 185.929C26.0446 183.51 32.0445 174.244 34.5261 174.244C35.0915 174.244 35.3743 174.495 35.3743 174.998C35.3743 175.657 34.9031 176.788 34.0549 178.076C33.8664 178.045 33.678 178.013 33.4581 178.013Z" fill="white"/>
</g>
<defs>
<clipPath id="clip0_103_68">
<rect width="309" height="201" fill="white" transform="translate(0.751953)"/>
</clipPath>
</defs>
</svg>
