<svg viewBox="0 0 1957 743" fill="none" xmlns="http://www.w3.org/2000/svg">
<g clip-path="url(#clip0_1_15)">
<path d="M930.89 241.953L887.898 152.206L879.702 160.805V241.953H825.424V46.0689H879.702V94.4352L924.307 46.0689H987.855L924.575 113.244L989.736 241.953H930.89Z" fill="#1B516B"/>
<path d="M1001.42 241.953V46.0689H1125.03V93.8978H1055.7V120.902H1102.46V168.731H1055.7V194.124H1125.03V241.953H1001.42Z" fill="#1B516B"/>
<path d="M1185.22 241.953V159.73L1128.25 46.0689H1190.46L1214.1 96.7192L1238.82 46.0689H1298.21L1239.36 159.192V241.953H1185.22Z" fill="#1B516B"/>
<path d="M1403.54 105.452C1403.54 102.496 1403.36 99.9884 1403 97.9283C1402.64 95.7787 1401.7 94.0769 1400.18 92.823C1398.74 91.4795 1396.6 90.4943 1393.73 89.8673C1390.86 89.2403 1386.88 88.9268 1381.77 88.9268C1377.2 88.9268 1373.49 89.1507 1370.62 89.5986C1367.75 90.0464 1365.52 90.7182 1363.9 91.6138C1362.29 92.4199 1361.17 93.4052 1360.54 94.5696C1360.01 95.7339 1359.74 96.9879 1359.74 98.3314C1359.74 100.929 1360.9 102.989 1363.23 104.512C1365.56 106.034 1369.01 107.422 1373.58 108.676C1378.23 109.841 1383.92 111.05 1390.64 112.304C1397.45 113.468 1405.28 115.036 1414.15 117.006C1419.7 118.26 1425.03 120.186 1430.14 122.783C1435.33 125.381 1439.9 129.008 1443.84 133.666C1447.78 138.323 1450.92 144.235 1453.25 151.4C1455.66 158.476 1456.87 167.119 1456.87 177.33C1456.87 187.809 1455.13 197.169 1451.63 205.409C1448.14 213.56 1443.08 220.456 1436.45 226.099C1429.82 231.742 1421.76 236.086 1412.27 239.131C1402.78 242.087 1392.07 243.565 1380.16 243.565C1369.14 243.565 1359.6 242.445 1351.54 240.206C1343.57 237.967 1336.76 235.011 1331.12 231.339C1325.57 227.577 1321 223.278 1317.42 218.441C1313.92 213.515 1311.19 208.365 1309.22 202.991C1307.25 197.617 1305.91 192.198 1305.19 186.734C1304.48 181.271 1304.12 176.121 1304.12 171.284H1355.84C1355.84 176.121 1356.16 180.241 1356.78 183.644C1357.5 186.958 1358.71 189.645 1360.41 191.705C1362.2 193.676 1364.62 195.109 1367.66 196.005C1370.71 196.9 1374.65 197.348 1379.49 197.348C1387.55 197.348 1393.33 195.96 1396.82 193.183C1400.31 190.407 1402.06 185.839 1402.06 179.479C1402.06 176.524 1400.98 174.195 1398.83 172.493C1396.68 170.791 1393.77 169.403 1390.1 168.328C1386.43 167.253 1382.04 166.358 1376.93 165.641C1371.92 164.925 1366.55 164.029 1360.81 162.954C1357.23 162.327 1353.38 161.476 1349.26 160.402C1345.14 159.327 1341.02 157.849 1336.9 155.968C1332.87 154.087 1328.93 151.713 1325.08 148.847C1321.31 145.981 1318 142.443 1315.13 138.234C1312.27 134.024 1309.94 129.053 1308.15 123.321C1306.45 117.588 1305.59 110.916 1305.59 103.302C1305.59 96.9431 1306.67 90.4047 1308.82 83.6871C1310.97 76.88 1314.46 70.6551 1319.3 65.0124C1322.61 61.0714 1326.15 57.8022 1329.91 55.2047C1333.67 52.5177 1337.97 50.4129 1342.81 48.8902C1347.65 47.278 1353.15 46.1584 1359.34 45.5315C1365.52 44.8149 1372.64 44.4567 1380.7 44.4567C1388.76 44.4567 1395.57 44.7254 1401.12 45.2628C1406.76 45.8002 1411.55 46.5615 1415.49 47.5467C1419.52 48.4424 1422.88 49.6068 1425.57 51.0399C1428.35 52.4729 1430.9 54.0404 1433.23 55.7421C1441.11 61.6536 1446.62 68.819 1449.75 77.2383C1452.89 85.5681 1454.46 94.9726 1454.46 105.452H1403.54Z" fill="#1B516B"/>
<path d="M1572.28 241.953V93.8978H1531.3V46.0689H1667.8V93.8978H1626.83V241.953H1572.28Z" fill="#1B516B"/>
<path d="M1816.13 225.696C1813.44 228.473 1810.26 230.981 1806.59 233.22C1803.01 235.369 1798.75 237.25 1793.83 238.862C1788.99 240.385 1783.44 241.549 1777.17 242.356C1770.9 243.162 1763.78 243.565 1755.8 243.565C1747.83 243.565 1740.71 243.162 1734.44 242.356C1728.26 241.549 1722.75 240.385 1717.92 238.862C1713.08 237.25 1708.87 235.369 1705.29 233.22C1701.71 230.981 1698.57 228.473 1695.88 225.696C1692.75 222.561 1690.11 218.665 1687.96 214.008C1685.81 209.35 1684.06 203.752 1682.72 197.214C1681.46 190.586 1680.52 182.928 1679.9 174.24C1679.36 165.462 1679.09 155.386 1679.09 144.011C1679.09 132.636 1679.36 122.604 1679.9 113.916C1680.52 105.138 1681.46 97.4805 1682.72 90.9421C1684.06 84.3141 1685.81 78.6714 1687.96 74.0139C1690.11 69.3564 1692.75 65.4602 1695.88 62.3253C1698.57 59.5488 1701.71 57.0857 1705.29 54.936C1708.87 52.6969 1713.08 50.8159 1717.92 49.2933C1722.75 47.7707 1728.26 46.6063 1734.44 45.8002C1740.71 44.9045 1747.83 44.4567 1755.8 44.4567C1763.78 44.4567 1770.9 44.9045 1777.17 45.8002C1783.44 46.6063 1788.99 47.7707 1793.83 49.2933C1798.75 50.8159 1803.01 52.6969 1806.59 54.936C1810.26 57.0857 1813.44 59.5488 1816.13 62.3253C1819.26 65.4602 1821.91 69.3564 1824.05 74.0139C1826.2 78.6714 1827.91 84.3141 1829.16 90.9421C1830.5 97.4805 1831.44 105.138 1831.98 113.916C1832.61 122.604 1832.92 132.636 1832.92 144.011C1832.92 155.386 1832.61 165.462 1831.98 174.24C1831.44 182.928 1830.5 190.586 1829.16 197.214C1827.91 203.752 1826.2 209.35 1824.05 214.008C1821.91 218.665 1819.26 222.561 1816.13 225.696ZM1774.35 186.869C1775.06 185.346 1775.69 183.734 1776.23 182.032C1776.76 180.241 1777.17 177.822 1777.44 174.777C1777.79 171.642 1778.02 167.656 1778.11 162.82C1778.29 157.894 1778.38 151.534 1778.38 143.742C1778.38 135.95 1778.29 129.635 1778.11 124.799C1778.02 119.962 1777.79 116.021 1777.44 112.976C1777.17 109.93 1776.76 107.557 1776.23 105.855C1775.69 104.153 1775.06 102.541 1774.35 101.018C1772.82 97.9731 1770.45 95.5996 1767.22 93.8978C1764.09 92.1065 1760.28 91.2108 1755.8 91.2108C1751.42 91.2108 1747.65 92.1065 1744.52 93.8978C1741.47 95.5996 1739.19 97.9731 1737.67 101.018C1736.95 102.541 1736.32 104.153 1735.79 105.855C1735.25 107.557 1734.8 109.93 1734.44 112.976C1734.17 116.021 1733.95 119.962 1733.77 124.799C1733.68 129.635 1733.64 135.95 1733.64 143.742C1733.64 151.534 1733.68 157.894 1733.77 162.82C1733.95 167.656 1734.17 171.642 1734.44 174.777C1734.8 177.822 1735.25 180.241 1735.79 182.032C1736.32 183.734 1736.95 185.346 1737.67 186.869C1739.19 189.914 1741.47 192.332 1744.52 194.124C1747.65 195.915 1751.42 196.811 1755.8 196.811C1760.28 196.811 1764.09 195.915 1767.22 194.124C1770.45 192.332 1772.82 189.914 1774.35 186.869Z" fill="#1B516B"/>
<path d="M918.53 345.472C918.53 342.516 918.351 340.008 917.992 337.948C917.634 335.799 916.694 334.097 915.171 332.843C913.738 331.5 911.588 330.514 908.722 329.887C905.856 329.26 901.87 328.947 896.765 328.947C892.197 328.947 888.48 329.171 885.614 329.619C882.748 330.066 880.508 330.738 878.896 331.634C877.284 332.44 876.164 333.425 875.537 334.59C875 335.754 874.731 337.008 874.731 338.351C874.731 340.949 875.896 343.009 878.224 344.532C880.553 346.054 884.001 347.442 888.569 348.696C893.227 349.861 898.914 351.07 905.632 352.324C912.439 353.488 920.276 355.056 929.143 357.026C934.697 358.28 940.026 360.206 945.131 362.803C950.326 365.401 954.894 369.028 958.835 373.686C962.776 378.343 965.911 384.255 968.24 391.42C970.658 398.496 971.867 407.139 971.867 417.35C971.867 427.829 970.12 437.189 966.627 445.429C963.134 453.58 958.074 460.476 951.446 466.119C944.818 471.762 936.757 476.106 927.262 479.151C917.768 482.107 907.065 483.585 895.153 483.585C884.136 483.585 874.597 482.465 866.536 480.226C858.564 477.987 851.757 475.031 846.115 471.359C840.561 467.597 835.993 463.298 832.411 458.461C828.918 453.535 826.186 448.385 824.215 443.011C822.245 437.637 820.901 432.218 820.185 426.754C819.468 421.291 819.11 416.141 819.11 411.304H870.835C870.835 416.141 871.149 420.261 871.776 423.664C872.492 426.978 873.701 429.665 875.403 431.725C877.194 433.696 879.613 435.129 882.658 436.025C885.703 436.92 889.644 437.368 894.481 437.368C902.542 437.368 908.319 435.98 911.812 433.203C915.305 430.427 917.052 425.859 917.052 419.499C917.052 416.544 915.977 414.215 913.827 412.513C911.678 410.811 908.767 409.423 905.095 408.348C901.422 407.273 897.034 406.378 891.928 405.661C886.912 404.945 881.538 404.049 875.806 402.974C872.223 402.347 868.372 401.496 864.252 400.422C860.132 399.347 856.012 397.869 851.892 395.988C847.861 394.107 843.92 391.733 840.069 388.867C836.307 386.001 832.993 382.463 830.127 378.254C827.261 374.044 824.932 369.073 823.141 363.341C821.439 357.608 820.588 350.936 820.588 343.322C820.588 336.963 821.663 330.425 823.812 323.707C825.962 316.9 829.455 310.675 834.292 305.032C837.606 301.091 841.144 297.822 844.905 295.225C848.667 292.538 852.966 290.433 857.803 288.91C862.64 287.298 868.148 286.178 874.328 285.551C880.508 284.835 887.629 284.477 895.69 284.477C903.751 284.477 910.558 284.745 916.111 285.283C921.754 285.82 926.546 286.581 930.487 287.567C934.517 288.462 937.876 289.627 940.563 291.06C943.34 292.493 945.892 294.06 948.221 295.762C956.103 301.674 961.612 308.839 964.746 317.258C967.881 325.588 969.449 334.993 969.449 345.472H918.53Z" fill="#1B516B"/>
<path d="M993.094 481.973V286.089H1116.7V333.918H1047.37V360.922H1094.13V408.751H1047.37V434.144H1116.7V481.973H993.094Z" fill="#1B516B"/>
<path d="M1259.11 481.973V401.631L1242.85 443.683H1204.56L1188.71 402.437V481.973H1135.24V286.089H1188.71L1223.91 361.46L1259.11 286.089H1312.45V481.973H1259.11Z" fill="#1B516B"/>
<path d="M1339.99 481.973V286.089H1394.53V481.973H1339.99Z" fill="#1B516B"/>
<path d="M1519.62 481.973L1475.41 403.243V481.973H1421.94V286.089H1473.94L1518.27 365.087V286.089H1571.74V481.973H1519.62Z" fill="#1B516B"/>
<path d="M1671.97 358.638L1658.53 405.527H1684.6L1671.97 358.638ZM1705.02 481.973L1696.69 451.206H1645.23L1636.23 481.973H1582.9L1643.89 286.089H1700.86L1758.36 481.973H1705.02Z" fill="#1B516B"/>
<path d="M1843.67 362.266C1847.88 362.266 1851.33 361.908 1854.02 361.191C1856.7 360.474 1858.81 359.489 1860.33 358.235C1861.85 356.981 1862.88 355.504 1863.42 353.802C1864.05 352.1 1864.36 350.264 1864.36 348.293C1864.36 346.233 1864.05 344.352 1863.42 342.651C1862.88 340.859 1861.85 339.337 1860.33 338.083C1858.81 336.739 1856.7 335.709 1854.02 334.993C1851.33 334.276 1847.88 333.918 1843.67 333.918H1823.65V362.266H1843.67ZM1865.43 481.973L1831.31 410.095H1823.65V481.973H1769.37V286.089H1864.09C1872.78 286.089 1880.17 287.298 1886.26 289.716C1892.35 292.045 1897.41 295.09 1901.44 298.852C1905.56 302.524 1908.74 306.689 1910.98 311.347C1913.31 316.004 1915.06 320.617 1916.22 325.185C1917.38 329.753 1918.1 334.097 1918.37 338.217C1918.64 342.248 1918.77 345.517 1918.77 348.025C1918.77 349.995 1918.64 352.593 1918.37 355.817C1918.1 358.952 1917.56 362.4 1916.76 366.162C1915.95 369.834 1914.79 373.686 1913.26 377.716C1911.74 381.747 1909.68 385.643 1907.08 389.405C1904.58 393.077 1901.49 396.481 1897.81 399.615C1894.23 402.661 1889.89 405.079 1884.78 406.87L1924.55 481.973H1865.43Z" fill="#1B516B"/>
<path d="M918.53 585.502C918.53 582.546 918.351 580.038 917.992 577.978C917.634 575.829 916.694 574.127 915.171 572.873C913.738 571.529 911.588 570.544 908.722 569.917C905.856 569.29 901.87 568.977 896.765 568.977C892.197 568.977 888.48 569.201 885.614 569.649C882.748 570.096 880.508 570.768 878.896 571.664C877.284 572.47 876.164 573.455 875.537 574.62C875 575.784 874.731 577.038 874.731 578.381C874.731 580.979 875.896 583.039 878.224 584.562C880.553 586.084 884.001 587.472 888.569 588.726C893.227 589.891 898.914 591.1 905.632 592.354C912.439 593.518 920.276 595.086 929.143 597.056C934.697 598.31 940.026 600.236 945.131 602.833C950.326 605.431 954.894 609.058 958.835 613.716C962.776 618.373 965.911 624.285 968.24 631.45C970.658 638.526 971.867 647.169 971.867 657.38C971.867 667.859 970.12 677.219 966.627 685.459C963.134 693.61 958.074 700.506 951.446 706.149C944.818 711.792 936.757 716.136 927.262 719.181C917.768 722.137 907.065 723.615 895.153 723.615C884.136 723.615 874.597 722.495 866.536 720.256C858.564 718.017 851.757 715.061 846.115 711.389C840.561 707.627 835.993 703.328 832.411 698.491C828.918 693.565 826.186 688.415 824.215 683.041C822.245 677.667 820.901 672.248 820.185 666.784C819.468 661.321 819.11 656.171 819.11 651.334H870.835C870.835 656.171 871.149 660.291 871.776 663.694C872.492 667.008 873.701 669.695 875.403 671.755C877.194 673.726 879.613 675.159 882.658 676.055C885.703 676.95 889.644 677.398 894.481 677.398C902.542 677.398 908.319 676.01 911.812 673.233C915.305 670.457 917.052 665.889 917.052 659.529C917.052 656.574 915.977 654.245 913.827 652.543C911.678 650.841 908.767 649.453 905.095 648.378C901.422 647.303 897.034 646.408 891.928 645.691C886.912 644.975 881.538 644.079 875.806 643.004C872.223 642.377 868.372 641.526 864.252 640.451C860.132 639.377 856.012 637.899 851.892 636.018C847.861 634.137 843.92 631.763 840.069 628.897C836.307 626.031 832.993 622.493 830.127 618.284C827.261 614.074 824.932 609.103 823.141 603.371C821.439 597.638 820.588 590.966 820.588 583.352C820.588 576.993 821.663 570.455 823.812 563.737C825.962 556.93 829.455 550.705 834.292 545.062C837.606 541.121 841.144 537.852 844.905 535.255C848.667 532.568 852.966 530.463 857.803 528.94C862.64 527.328 868.148 526.208 874.328 525.581C880.508 524.865 887.629 524.507 895.69 524.507C903.751 524.507 910.558 524.775 916.111 525.313C921.754 525.85 926.546 526.611 930.487 527.597C934.517 528.492 937.876 529.657 940.563 531.09C943.34 532.523 945.892 534.09 948.221 535.792C956.103 541.704 961.612 548.869 964.746 557.288C967.881 565.618 969.449 575.023 969.449 585.502H918.53Z" fill="#1B516B"/>
<path d="M1084.99 526.119H1139.54V624.061C1139.54 633.107 1139.4 641.885 1139.13 650.393C1138.87 658.813 1138.01 666.695 1136.58 674.039C1135.24 681.384 1133.09 688.101 1130.13 694.192C1127.18 700.282 1122.97 705.522 1117.5 709.911C1112.04 714.21 1105.1 717.569 1096.68 719.987C1088.26 722.406 1077.96 723.615 1065.78 723.615C1053.6 723.615 1043.3 722.406 1034.88 719.987C1026.46 717.569 1019.47 714.21 1013.92 709.911C1008.46 705.522 1004.2 700.282 1001.16 694.192C998.11 688.101 995.871 681.384 994.438 674.039C993.005 666.695 992.154 658.813 991.885 650.393C991.617 641.885 991.482 633.107 991.482 624.061V526.119H1046.03V623.792C1046.03 631.584 1046.07 637.944 1046.16 642.87C1046.25 647.706 1046.43 651.692 1046.7 654.827C1046.97 657.872 1047.33 660.291 1047.78 662.082C1048.22 663.784 1048.81 665.396 1049.52 666.919C1050.95 669.964 1052.88 672.382 1055.3 674.174C1057.81 675.965 1061.12 676.861 1065.24 676.861C1069.36 676.861 1072.72 675.965 1075.32 674.174C1078 672.382 1080.06 669.964 1081.5 666.919C1082.12 665.396 1082.66 663.784 1083.11 662.082C1083.56 660.291 1083.92 657.872 1084.18 654.827C1084.45 651.692 1084.63 647.706 1084.72 642.87C1084.9 637.944 1084.99 631.584 1084.99 623.792V526.119Z" fill="#1B516B"/>
<path d="M1312.58 656.574C1312.13 662.843 1311.51 668.486 1310.7 673.502C1309.89 678.518 1308.86 683.041 1307.61 687.071C1306.45 691.102 1305.01 694.64 1303.31 697.685C1301.61 700.73 1299.64 703.417 1297.4 705.746C1294.8 708.523 1291.76 711.031 1288.26 713.27C1284.77 715.419 1280.65 717.3 1275.9 718.912C1271.16 720.435 1265.74 721.599 1259.65 722.406C1253.56 723.212 1246.61 723.615 1238.82 723.615C1231.03 723.615 1224.18 723.212 1218.27 722.406C1212.36 721.599 1207.12 720.435 1202.55 718.912C1198.07 717.3 1194.13 715.419 1190.72 713.27C1187.41 711.031 1184.45 708.523 1181.86 705.746C1178.72 702.611 1175.99 698.715 1173.66 694.057C1171.42 689.4 1169.54 683.802 1168.02 677.264C1166.5 670.636 1165.33 662.978 1164.53 654.29C1163.81 645.512 1163.45 635.436 1163.45 624.061C1163.45 612.686 1163.81 602.654 1164.53 593.966C1165.33 585.188 1166.5 577.53 1168.02 570.992C1169.54 564.364 1171.42 558.721 1173.66 554.064C1175.99 549.406 1178.72 545.51 1181.86 542.375C1184.45 539.599 1187.41 537.136 1190.72 534.986C1194.13 532.747 1198.07 530.866 1202.55 529.343C1207.12 527.821 1212.36 526.656 1218.27 525.85C1224.18 524.954 1231.03 524.507 1238.82 524.507C1246.61 524.507 1253.56 524.954 1259.65 525.85C1265.74 526.656 1271.16 527.821 1275.9 529.343C1280.65 530.866 1284.77 532.747 1288.26 534.986C1291.76 537.136 1294.8 539.599 1297.4 542.375C1301.52 546.585 1304.74 552.228 1307.07 559.304C1309.49 566.29 1311.24 575.202 1312.31 586.039H1259.78C1258.53 581.382 1256.15 577.754 1252.66 575.157C1249.26 572.559 1244.91 571.261 1239.63 571.261C1235.33 571.261 1231.75 572.156 1228.88 573.948C1226.1 575.65 1224 578.023 1222.57 581.068C1221.85 582.591 1221.22 584.203 1220.68 585.905C1220.15 587.607 1219.65 589.98 1219.21 593.026C1218.85 596.071 1218.54 600.012 1218.27 604.849C1218.09 609.685 1218 616 1218 623.792C1218 631.584 1218.09 637.944 1218.27 642.87C1218.54 647.706 1218.85 651.692 1219.21 654.827C1219.65 657.872 1220.15 660.291 1220.68 662.082C1221.22 663.784 1221.85 665.396 1222.57 666.919C1224 669.964 1226.1 672.382 1228.88 674.174C1231.75 675.965 1235.33 676.861 1239.63 676.861C1242.94 676.861 1245.85 676.323 1248.36 675.248C1250.87 674.174 1252.97 672.74 1254.68 670.949C1256.47 669.158 1257.86 667.053 1258.84 664.635C1259.83 662.127 1260.5 659.44 1260.86 656.574H1312.58Z" fill="#1B516B"/>
<path d="M1479.98 656.574C1479.53 662.843 1478.91 668.486 1478.1 673.502C1477.3 678.518 1476.27 683.041 1475.01 687.071C1473.85 691.102 1472.41 694.64 1470.71 697.685C1469.01 700.73 1467.04 703.417 1464.8 705.746C1462.2 708.523 1459.16 711.031 1455.66 713.27C1452.17 715.419 1448.05 717.3 1443.3 718.912C1438.56 720.435 1433.14 721.599 1427.05 722.406C1420.96 723.212 1414.02 723.615 1406.22 723.615C1398.43 723.615 1391.58 723.212 1385.67 722.406C1379.76 721.599 1374.52 720.435 1369.95 718.912C1365.47 717.3 1361.53 715.419 1358.13 713.27C1354.81 711.031 1351.86 708.523 1349.26 705.746C1346.12 702.611 1343.39 698.715 1341.06 694.057C1338.82 689.4 1336.94 683.802 1335.42 677.264C1333.9 670.636 1332.73 662.978 1331.93 654.29C1331.21 645.512 1330.85 635.436 1330.85 624.061C1330.85 612.686 1331.21 602.654 1331.93 593.966C1332.73 585.188 1333.9 577.53 1335.42 570.992C1336.94 564.364 1338.82 558.721 1341.06 554.064C1343.39 549.406 1346.12 545.51 1349.26 542.375C1351.86 539.599 1354.81 537.136 1358.13 534.986C1361.53 532.747 1365.47 530.866 1369.95 529.343C1374.52 527.821 1379.76 526.656 1385.67 525.85C1391.58 524.954 1398.43 524.507 1406.22 524.507C1414.02 524.507 1420.96 524.954 1427.05 525.85C1433.14 526.656 1438.56 527.821 1443.3 529.343C1448.05 530.866 1452.17 532.747 1455.66 534.986C1459.16 537.136 1462.2 539.599 1464.8 542.375C1468.92 546.585 1472.15 552.228 1474.47 559.304C1476.89 566.29 1478.64 575.202 1479.71 586.039H1427.18C1425.93 581.382 1423.55 577.754 1420.06 575.157C1416.66 572.559 1412.31 571.261 1407.03 571.261C1402.73 571.261 1399.15 572.156 1396.28 573.948C1393.5 575.65 1391.4 578.023 1389.97 581.068C1389.25 582.591 1388.62 584.203 1388.09 585.905C1387.55 587.607 1387.06 589.98 1386.61 593.026C1386.25 596.071 1385.94 600.012 1385.67 604.849C1385.49 609.685 1385.4 616 1385.4 623.792C1385.4 631.584 1385.49 637.944 1385.67 642.87C1385.94 647.706 1386.25 651.692 1386.61 654.827C1387.06 657.872 1387.55 660.291 1388.09 662.082C1388.62 663.784 1389.25 665.396 1389.97 666.919C1391.4 669.964 1393.5 672.382 1396.28 674.174C1399.15 675.965 1402.73 676.861 1407.03 676.861C1410.34 676.861 1413.25 676.323 1415.76 675.248C1418.27 674.174 1420.38 672.74 1422.08 670.949C1423.87 669.158 1425.26 667.053 1426.24 664.635C1427.23 662.127 1427.9 659.44 1428.26 656.574H1479.98Z" fill="#1B516B"/>
<path d="M1500.13 722.003V526.119H1623.74V573.948H1554.41V600.952H1601.17V648.781H1554.41V674.174H1623.74V722.003H1500.13Z" fill="#1B516B"/>
<path d="M1735.38 585.502C1735.38 582.546 1735.2 580.038 1734.85 577.978C1734.49 575.829 1733.55 574.127 1732.02 572.873C1730.59 571.529 1728.44 570.544 1725.58 569.917C1722.71 569.29 1718.72 568.977 1713.62 568.977C1709.05 568.977 1705.33 569.201 1702.47 569.649C1699.6 570.096 1697.36 570.768 1695.75 571.664C1694.14 572.47 1693.02 573.455 1692.39 574.62C1691.85 575.784 1691.58 577.038 1691.58 578.381C1691.58 580.979 1692.75 583.039 1695.08 584.562C1697.41 586.084 1700.86 587.472 1705.42 588.726C1710.08 589.891 1715.77 591.1 1722.49 592.354C1729.29 593.518 1737.13 595.086 1746 597.056C1751.55 598.31 1756.88 600.236 1761.98 602.833C1767.18 605.431 1771.75 609.058 1775.69 613.716C1779.63 618.373 1782.76 624.285 1785.09 631.45C1787.51 638.526 1788.72 647.169 1788.72 657.38C1788.72 667.859 1786.97 677.219 1783.48 685.459C1779.99 693.61 1774.93 700.506 1768.3 706.149C1761.67 711.792 1753.61 716.136 1744.12 719.181C1734.62 722.137 1723.92 723.615 1712.01 723.615C1700.99 723.615 1691.45 722.495 1683.39 720.256C1675.42 718.017 1668.61 715.061 1662.97 711.389C1657.41 707.627 1652.85 703.328 1649.26 698.491C1645.77 693.565 1643.04 688.415 1641.07 683.041C1639.1 677.667 1637.76 672.248 1637.04 666.784C1636.32 661.321 1635.96 656.171 1635.96 651.334H1687.69C1687.69 656.171 1688 660.291 1688.63 663.694C1689.35 667.008 1690.55 669.695 1692.26 671.755C1694.05 673.726 1696.47 675.159 1699.51 676.055C1702.56 676.95 1706.5 677.398 1711.33 677.398C1719.4 677.398 1725.17 676.01 1728.67 673.233C1732.16 670.457 1733.91 665.889 1733.91 659.529C1733.91 656.574 1732.83 654.245 1730.68 652.543C1728.53 650.841 1725.62 649.453 1721.95 648.378C1718.28 647.303 1713.89 646.408 1708.78 645.691C1703.77 644.975 1698.39 644.079 1692.66 643.004C1689.08 642.377 1685.23 641.526 1681.11 640.451C1676.99 639.377 1672.87 637.899 1668.75 636.018C1664.71 634.137 1660.77 631.763 1656.92 628.897C1653.16 626.031 1649.85 622.493 1646.98 618.284C1644.11 614.074 1641.79 609.103 1639.99 603.371C1638.29 597.638 1637.44 590.966 1637.44 583.352C1637.44 576.993 1638.52 570.455 1640.67 563.737C1642.82 556.93 1646.31 550.705 1651.15 545.062C1654.46 541.121 1658 537.852 1661.76 535.255C1665.52 532.568 1669.82 530.463 1674.66 528.94C1679.49 527.328 1685 526.208 1691.18 525.581C1697.36 524.865 1704.48 524.507 1712.54 524.507C1720.6 524.507 1727.41 524.775 1732.96 525.313C1738.61 525.85 1743.4 526.611 1747.34 527.597C1751.37 528.492 1754.73 529.657 1757.42 531.09C1760.19 532.523 1762.75 534.09 1765.07 535.792C1772.96 541.704 1778.47 548.869 1781.6 557.288C1784.73 565.618 1786.3 575.023 1786.3 585.502H1735.38Z" fill="#1B516B"/>
<path d="M1903.05 585.502C1903.05 582.546 1902.87 580.038 1902.52 577.978C1902.16 575.829 1901.22 574.127 1899.69 572.873C1898.26 571.529 1896.11 570.544 1893.25 569.917C1890.38 569.29 1886.39 568.977 1881.29 568.977C1876.72 568.977 1873 569.201 1870.14 569.649C1867.27 570.096 1865.03 570.768 1863.42 571.664C1861.81 572.47 1860.69 573.455 1860.06 574.62C1859.52 575.784 1859.25 577.038 1859.25 578.381C1859.25 580.979 1860.42 583.039 1862.75 584.562C1865.08 586.084 1868.53 587.472 1873.09 588.726C1877.75 589.891 1883.44 591.1 1890.16 592.354C1896.96 593.518 1904.8 595.086 1913.67 597.056C1919.22 598.31 1924.55 600.236 1929.65 602.833C1934.85 605.431 1939.42 609.058 1943.36 613.716C1947.3 618.373 1950.43 624.285 1952.76 631.45C1955.18 638.526 1956.39 647.169 1956.39 657.38C1956.39 667.859 1954.64 677.219 1951.15 685.459C1947.66 693.61 1942.6 700.506 1935.97 706.149C1929.34 711.792 1921.28 716.136 1911.79 719.181C1902.29 722.137 1891.59 723.615 1879.68 723.615C1868.66 723.615 1859.12 722.495 1851.06 720.256C1843.09 718.017 1836.28 715.061 1830.64 711.389C1825.08 707.627 1820.52 703.328 1816.93 698.491C1813.44 693.565 1810.71 688.415 1808.74 683.041C1806.77 677.667 1805.42 672.248 1804.71 666.784C1803.99 661.321 1803.63 656.171 1803.63 651.334H1855.36C1855.36 656.171 1855.67 660.291 1856.3 663.694C1857.02 667.008 1858.22 669.695 1859.93 671.755C1861.72 673.726 1864.14 675.159 1867.18 676.055C1870.23 676.95 1874.17 677.398 1879 677.398C1887.07 677.398 1892.84 676.01 1896.34 673.233C1899.83 670.457 1901.58 665.889 1901.58 659.529C1901.58 656.574 1900.5 654.245 1898.35 652.543C1896.2 650.841 1893.29 649.453 1889.62 648.378C1885.95 647.303 1881.56 646.408 1876.45 645.691C1871.44 644.975 1866.06 644.079 1860.33 643.004C1856.75 642.377 1852.9 641.526 1848.78 640.451C1844.66 639.377 1840.54 637.899 1836.42 636.018C1832.38 634.137 1828.44 631.763 1824.59 628.897C1820.83 626.031 1817.52 622.493 1814.65 618.284C1811.78 614.074 1809.46 609.103 1807.66 603.371C1805.96 597.638 1805.11 590.966 1805.11 583.352C1805.11 576.993 1806.19 570.455 1808.34 563.737C1810.49 556.93 1813.98 550.705 1818.82 545.062C1822.13 541.121 1825.67 537.852 1829.43 535.255C1833.19 532.568 1837.49 530.463 1842.33 528.94C1847.16 527.328 1852.67 526.208 1858.85 525.581C1865.03 524.865 1872.15 524.507 1880.21 524.507C1888.27 524.507 1895.08 524.775 1900.63 525.313C1906.28 525.85 1911.07 526.611 1915.01 527.597C1919.04 528.492 1922.4 529.657 1925.09 531.09C1927.86 532.523 1930.42 534.09 1932.74 535.792C1940.63 541.704 1946.14 548.869 1949.27 557.288C1952.4 565.618 1953.97 575.023 1953.97 585.502H1903.05Z" fill="#1B516B"/>
<path d="M723.99 19.87C711.47 7.43003 694.87 0.590027 677.23 0.590027H67C49.29 0.590027 32.76 7.44003 20.24 19.87C7.73001 32.38 0.880005 48.99 0.880005 66.62V676.94C0.880005 694.57 7.73001 711.18 20.24 723.61C32.76 736.12 49.29 742.97 67 742.97H677.23C694.86 742.97 711.47 736.12 723.99 723.61C736.42 711.17 743.35 694.57 743.35 676.94V66.62C743.35 48.99 736.42 32.38 723.99 19.87ZM727.42 673.83C727.42 703.2 703.53 727.09 674.16 727.09H70.04C40.67 727.09 16.78 703.2 16.78 673.83V69.7C16.78 40.33 40.67 16.44 70.04 16.44H674.16C703.53 16.44 727.42 40.33 727.42 69.7V673.83Z" fill="#1B516B"/>
<path d="M674.19 44.66H70.02C56.25 44.66 44.99 55.84 44.99 69.69V247.89L254.2 200.03C288.21 192.32 294.26 204.44 267.82 227.11L126.46 329.51C102.93 347.22 69.16 347.22 44.99 331.4V399.17C133.07 364.3 207.29 300.47 282.38 237.26C291.9 229.23 301.43 221.2 311.03 213.33C360.22 172.56 410.6 133.68 466.24 104.79C648.22 10.42 538.65 175.63 467.74 313.92C397.61 450.72 662.23 285.98 668.13 282.36C666.4 284.09 626.41 323.53 518.35 401.61C471.75 435.3 412.49 476.23 338.11 524.4C86.87 687.25 220.68 476.31 332.68 285.36C407.06 158.48 359.2 188.23 318.67 222.55C298.21 239.87 279.55 258.36 279.55 258.36L190.69 334.55C190.69 334.55 125.44 388.23 45 439.47V673.79C45 687.64 56.26 698.9 70.03 698.9H380.07L323.64 638.06C299.95 612.56 299.24 580.6 322.14 567.14C322.14 567.14 322.14 567.14 349.92 547.62C454.92 473.71 531.66 417.43 531.66 417.43C532.92 416.56 534.1 415.7 535.28 414.91C561.02 397.75 573.85 408.61 564.09 440.49L484.43 698.89H674.2C687.97 698.89 699.23 687.63 699.23 673.78V69.69C699.22 55.84 687.97 44.66 674.19 44.66ZM665.96 142.76L637.98 233.6C627.93 266.2 593.98 303.72 562.55 316.97C562.55 316.97 469.59 356.13 511.48 274.49C543.38 212.26 570.48 158.5 570.48 158.5C585.84 128.03 617.71 98.69 641.32 93.3C664.92 87.9 676.01 110.16 665.96 142.76Z" fill="#1B516B"/>
</g>
<defs>
<clipPath id="clip0_1_15">
<rect width="1957" height="743" fill="white"/>
</clipPath>
</defs>
</svg>
