<svg viewBox="0 0 520 100" fill="none" xmlns="http://www.w3.org/2000/svg">
<g clip-path="url(#clip0_410_465)">
<path d="M25.5351 63.8864H0V0.725281H8.48222V56.2268H25.5351V63.8953V63.8864Z" fill="white"/>
<path d="M30.1344 63.8864V0.725281H56.7575V8.21688H38.6167V28.0736H53.9536V35.6536H38.6167V56.4125H57.0228V63.9041H30.1344V63.8864Z" fill="white"/>
<path d="M90.8721 51.256C90.8721 60.7288 85.0964 64.6117 75.5351 64.6117H74.8098C65.2397 64.6117 59.4728 60.8261 59.4728 51.256V13.3557C59.4728 4.24553 65.2485 0 74.8098 0H75.5351C85.0964 0 90.8721 4.24553 90.8721 13.3557V22.1122H82.3899V14.9832C82.3899 9.3844 79.8602 7.4916 75.1725 7.4916C70.4847 7.4916 67.9551 9.3844 67.9551 14.9832V49.6374C67.9551 55.2362 70.4847 57.129 75.1725 57.129C79.8602 57.129 82.3899 55.2362 82.3899 49.6374V39.0766H74.8098V31.8592H90.8721V51.2648V51.256Z" fill="white"/>
<path d="M116.858 49.0005H103.326L100.619 63.8864H92.4111L104.944 0.725281H115.408L128.136 63.8953H119.476L116.858 49.0094V49.0005ZM115.505 41.8716L110.092 11.3656L104.591 41.8716H115.514H115.505Z" fill="white"/>
<path d="M161.613 51.256C161.613 60.7288 155.838 64.6117 146.276 64.6117H146.099C136.529 64.6117 130.762 60.8261 130.762 51.256V13.3557C130.762 4.24553 136.538 0 146.099 0H146.276C155.838 0 161.613 4.24553 161.613 13.3557V24.6329H153.131V14.9744C153.131 9.47285 150.787 7.48275 146.179 7.48275C141.571 7.48275 139.227 9.464 139.227 14.9744V49.6285C139.227 55.13 141.571 57.1201 146.179 57.1201C150.787 57.1201 153.131 55.1389 153.131 49.6285V38.4398H161.613V51.256Z" fill="white"/>
<path d="M261.215 63.8864L252.459 37.9887H245.056V63.8864H236.573V0.725281H252.37C261.932 0.725281 267.707 4.78507 267.707 14.081V24.6418C267.707 30.957 265.001 34.8399 260.304 36.7327L269.866 63.8953H261.206L261.215 63.8864ZM245.065 30.5855H252.017C256.713 30.5855 259.234 28.6927 259.234 23.0939V15.6908C259.234 10.092 256.704 8.19919 252.017 8.19919H245.065V30.5767V30.5855Z" fill="white"/>
<path d="M287.29 0H288.015C297.577 0 303.352 4.05979 303.352 13.3557V51.256C303.352 60.5519 297.577 64.6117 288.015 64.6117H287.29C277.729 64.6117 271.953 60.5519 271.953 51.256V13.3557C271.953 3.97134 277.729 0 287.29 0ZM287.653 57.1201C292.349 57.1201 294.87 55.2273 294.87 49.6285V14.9832C294.87 9.3844 292.34 7.4916 287.653 7.4916C282.965 7.4916 280.435 9.3844 280.435 14.9832V49.6374C280.435 55.2362 282.965 57.129 287.653 57.129V57.1201Z" fill="white"/>
<path d="M335.654 8.20803H324.642V63.8864H316.16V8.20803H305.148V0.725281H335.645V8.21688L335.654 8.20803Z" fill="white"/>
<path d="M340.076 63.8864V0.725281H366.699V8.21688H348.558V28.0736H363.895V35.6536H348.558V56.4125H366.964V63.9041H340.076V63.8864Z" fill="white"/>
<path d="M400.265 51.256C400.265 60.7288 394.49 64.6117 384.928 64.6117H384.751C375.19 64.6117 369.414 60.8261 369.414 51.256V13.3557C369.414 4.24553 375.19 0 384.751 0H384.928C394.49 0 400.265 4.24553 400.265 13.3557V24.6329H391.783V14.9744C391.783 9.47285 389.439 7.48275 384.831 7.48275C380.223 7.48275 377.879 9.464 377.879 14.9744V49.6285C377.879 55.13 380.223 57.1201 384.831 57.1201C389.439 57.1201 391.783 55.1389 391.783 49.6285V38.4398H400.265V51.256Z" fill="white"/>
<path d="M432.655 8.20803H421.643V63.8864H413.161V8.20803H402.149V0.725281H432.646V8.21688L432.655 8.20803Z" fill="white"/>
<path d="M436.812 63.8864V0.725281H445.295V63.8953H436.812V63.8864Z" fill="white"/>
<path d="M465.947 0H466.673C476.234 0 482.01 4.05979 482.01 13.3557V51.256C482.01 60.5519 476.234 64.6117 466.673 64.6117H465.947C456.386 64.6117 450.61 60.5519 450.61 51.256V13.3557C450.61 3.97134 456.386 0 465.947 0ZM466.31 57.1201C471.007 57.1201 473.527 55.2273 473.527 49.6285V14.9832C473.527 9.3844 470.998 7.4916 466.31 7.4916C461.622 7.4916 459.093 9.3844 459.093 14.9832V49.6374C459.093 55.2362 461.622 57.129 466.31 57.129V57.1201Z" fill="white"/>
<path d="M486.972 63.8864V0.725281H495.454L511.339 44.2243V0.725281H519.193V63.8953H511.074L494.835 18.9545V63.8953H486.98L486.972 63.8864Z" fill="white"/>
<path d="M176.809 22.7844L170.6 0.681061H161.666L172.006 31.8061C172.891 28.7989 174.129 24.2968 176.809 22.7844Z" fill="white"/>
<path d="M201.168 19.4675V18.698H190.545L190.288 19.4675L188.511 24.8629L188.254 25.6324H201.168V24.8629V19.4675Z" fill="#4A9BA5"/>
<path d="M188.749 24.2438L190.111 20.0867H201.132L201.168 24.2438H188.749Z" fill="#8ED0D8"/>
<path d="M201.061 21.4311L201.053 20.0867H190.032L189.59 21.4311H201.061Z" fill="black"/>
<path d="M187.741 0.681061L182.682 18.698L182.664 18.7511L182.461 19.4675L180.913 24.9867L180.674 25.8447L180.426 26.7115L179.223 27.4368L178.551 28.9581C178.189 29.7187 177.985 30.559 177.985 31.417V63.8422H183.327V40.5625L188.263 25.6324L188.519 24.8629L190.306 19.4675L190.563 18.698L196.515 0.681061H187.759H187.741Z" fill="white"/>
<path d="M216.956 0.681061H201.168V63.8511H210.065V31.4258C210.065 31.3108 210.057 31.2047 210.048 31.0985L210.189 30.5767L209.65 29.1527V8.17266H216.602C221.298 8.17266 223.819 10.0655 223.819 15.6643V23.6954C223.819 29.1969 221.29 31.0985 216.602 31.0985H215.452C215.452 31.2135 215.47 31.3197 215.47 31.4258V38.6786H216.964C226.526 38.6786 232.301 34.6188 232.301 25.3228V14.0456C232.301 4.7497 226.526 0.689906 216.964 0.689906L216.956 0.681061Z" fill="white"/>
<path d="M171.564 27.8259C171.219 29.0023 171.042 30.214 171.042 31.4258V91.96H177.985V31.4169C177.985 30.559 178.189 29.7187 178.551 28.9581C178.834 28.3655 179.215 27.8082 179.692 27.3306C179.781 27.2422 179.869 27.1537 179.966 27.0653C180.117 26.9326 180.267 26.8176 180.426 26.7026L180.674 25.8358L180.913 24.9779L182.461 19.4587L182.664 18.7422C180.869 18.9015 179.117 19.4321 177.534 20.3255C174.624 21.9706 172.51 24.6241 171.564 27.8171V27.8259Z" fill="#4A9BA5"/>
<path d="M172.422 90.5714V31.4169C172.422 30.3467 172.581 29.2676 172.891 28.2151C173.731 25.3759 175.624 23.0055 178.215 21.5461C179.002 21.1038 180.948 20.2813 182.257 20.1486L180.842 25.2786C180.842 25.2786 179.692 25.4113 178.71 26.3577C178.136 26.9326 177.658 27.6137 177.295 28.3655C176.826 29.3384 176.597 30.3732 176.597 31.4258V90.5714H172.431H172.422Z" fill="#8ED0D8"/>
<path d="M173.572 32.1068C173.572 31.0366 173.731 29.9575 174.04 28.905C174.881 26.0658 176.482 23.6954 179.073 22.236C179.657 21.9087 180.877 21.3692 182.01 21.0596L182.257 20.1574C180.948 20.2901 179.002 21.1127 178.215 21.5549C175.624 23.0143 173.731 25.3848 172.891 28.224C172.581 29.2765 172.422 30.3556 172.422 31.4258V90.5714H173.28L173.572 32.1068Z" fill="black"/>
<path d="M217 31.1781V31.0632C216.876 26.7115 214.567 22.7755 210.826 20.5201L209.659 19.8125V29.2765L209.703 29.4092C209.906 29.9576 210.021 30.5325 210.057 31.1251V31.2401C210.065 31.2931 210.074 31.355 210.074 31.4081V91.9423H217.018V31.417C217.018 31.3374 217.018 31.2578 217.009 31.1781H217Z" fill="#4A9BA5"/>
<path d="M211.454 90.5714V31.417C211.454 31.3373 211.454 31.2577 211.445 31.1693V31.0366C211.401 30.3556 211.162 28.4628 209.685 27.2864V21.3427C213.816 23.9165 215.505 27.596 215.602 31.0985V31.2489C215.611 31.3108 215.62 31.3639 215.62 31.4081V90.5537H211.454V90.5714Z" fill="#8ED0D8"/>
<path d="M215.585 31.1958V31.0455C215.478 27.5517 213.78 23.8634 209.659 21.2896V22.6694C213.701 25.7474 214.276 28.8608 214.355 31.9919V32.1422C214.364 32.2041 214.373 32.2572 214.373 32.3014V90.5006H215.593V31.355C215.593 31.3108 215.593 31.2577 215.593 31.1958H215.585Z" fill="black"/>
<path d="M169.14 99.5931C168.327 99.5931 167.663 98.9298 167.663 98.1161L166.77 91.0932V55.7669C166.77 54.9531 167.433 54.2898 168.256 54.2898H219.892C220.706 54.2898 221.369 54.9531 221.369 55.7669V91.1375L220.485 98.0541C220.485 98.9209 219.821 99.5843 218.999 99.5843H169.14V99.5931Z" fill="#4A9BA5"/>
<path d="M219.892 54.6966C220.485 54.6966 220.962 55.1743 220.962 55.7669V91.0844L220.078 98.0011V98.0541V98.1072C220.078 98.6998 219.6 99.1774 219.008 99.1774H169.149C168.557 99.1774 168.079 98.6998 168.079 98.1072V98.0011L167.194 91.0844V55.7669C167.194 55.1743 167.672 54.6966 168.265 54.6966H219.901M219.901 53.8829H168.265C167.23 53.8829 166.381 54.732 166.381 55.7669V91.1375L167.265 98.1072C167.265 99.1421 168.114 99.9912 169.149 99.9912H219.008C220.042 99.9912 220.892 99.1421 220.892 98.1072L221.776 91.1375V55.7669C221.776 54.732 220.927 53.8829 219.892 53.8829H219.901Z" fill="#277B85"/>
<path d="M168.795 54.0952C168.795 54.0952 168.778 55.8111 168.778 55.8199V89.3154C173.74 89.4127 186.786 89.4658 191.757 89.5012V54.0952H168.795Z" fill="url(#paint0_linear_410_465)"/>
<path d="M169.919 91.1905V54.0686H168.442C167.283 54.0686 166.593 54.7762 166.558 55.8111V90.9959C167.681 91.0932 168.804 91.1463 169.927 91.1817L169.919 91.1905Z" fill="#4A9BA5"/>
<path d="M219.697 54.0952C219.697 54.0952 219.715 55.8111 219.715 55.8199V89.3154C214.629 89.4127 201.247 89.4658 196.144 89.5012V54.0952H219.697Z" fill="url(#paint1_linear_410_465)"/>
<path d="M218.212 91.1905V54.0686H219.689C220.847 54.0686 221.537 54.7762 221.573 55.8111V90.9959C220.449 91.0932 219.326 91.1463 218.203 91.1817L218.212 91.1905Z" fill="#4A9BA5"/>
<path d="M219.892 89.2535H168.256C167.221 89.2535 166.372 90.1026 166.372 91.1375L167.256 98.1072C167.256 99.1421 168.105 99.9912 169.14 99.9912H218.999C220.034 99.9912 220.883 99.1421 220.883 98.1072L221.767 91.1375C221.767 90.1026 220.918 89.2535 219.883 89.2535H219.892Z" fill="#206A73"/>
<path d="M199.39 79.5507L196.878 71.2896C198.62 70.5024 199.814 68.9192 199.814 67.0883C199.814 64.479 197.391 62.3651 194.41 62.3651C194.33 62.3651 194.26 62.3651 194.18 62.374C191.306 62.4801 189.015 64.5498 189.015 67.0883C189.015 68.7688 190.023 70.2459 191.535 71.0773L188.997 79.5418H199.407L199.39 79.5507Z" fill="#0C363F"/>
<path d="M194.065 64.1695C194.145 64.1695 194.215 64.1606 194.295 64.1606C197.01 64.1606 199.257 65.9119 199.637 68.1939C199.744 67.8224 199.814 67.4421 199.814 67.0441C199.814 64.4348 197.391 62.3209 194.41 62.3209C194.33 62.3209 194.26 62.3209 194.18 62.3297C191.306 62.4359 189.015 64.5056 189.015 67.0441C189.015 67.274 189.041 67.4951 189.077 67.7163C189.652 65.735 191.65 64.2579 194.074 64.1695H194.065Z" fill="#00738C"/>
</g>
<defs>
<linearGradient id="paint0_linear_410_465" x1="168.778" y1="71.7938" x2="191.757" y2="71.7938" gradientUnits="userSpaceOnUse">
<stop stop-color="#8ED0D8" stop-opacity="0.3"/>
<stop offset="0.03" stop-color="#81CAD0" stop-opacity="0.39"/>
<stop offset="0.08" stop-color="#6FC3C6" stop-opacity="0.5"/>
<stop offset="0.14" stop-color="#65BFC0" stop-opacity="0.58"/>
<stop offset="0.19" stop-color="#63BEBE" stop-opacity="0.59"/>
<stop offset="0.37" stop-color="#9AD5D5" stop-opacity="0.38"/>
<stop offset="0.54" stop-color="#C6E7E7" stop-opacity="0.22"/>
<stop offset="0.7" stop-color="#E5F4F4" stop-opacity="0.1"/>
<stop offset="0.86" stop-color="#F8FCFC" stop-opacity="0.02"/>
<stop offset="1" stop-color="white" stop-opacity="0"/>
</linearGradient>
<linearGradient id="paint1_linear_410_465" x1="196.144" y1="71.7938" x2="219.706" y2="71.7938" gradientUnits="userSpaceOnUse">
<stop stop-color="white" stop-opacity="0"/>
<stop offset="0.12" stop-color="#F5FBFB" stop-opacity="0.04"/>
<stop offset="0.3" stop-color="#DAF0F0" stop-opacity="0.14"/>
<stop offset="0.51" stop-color="#AFDDDD" stop-opacity="0.31"/>
<stop offset="0.75" stop-color="#73C5C5" stop-opacity="0.54"/>
<stop offset="0.81" stop-color="#62BEBE" stop-opacity="0.6"/>
<stop offset="0.86" stop-color="#65BFC0" stop-opacity="0.58"/>
<stop offset="0.92" stop-color="#6FC3C6" stop-opacity="0.5"/>
<stop offset="0.97" stop-color="#81CAD0" stop-opacity="0.39"/>
<stop offset="1" stop-color="#8ED0D8" stop-opacity="0.3"/>
</linearGradient>
<clipPath id="clip0_410_465">
<rect width="519.185" height="100" fill="white"/>
</clipPath>
</defs>
</svg>
