<svg width="550" height="100" viewBox="0 0 550 100" fill="none" xmlns="http://www.w3.org/2000/svg">
<g clip-path="url(#clip0_301_130)">
<path d="M180.322 16.4347V41.7732H212.241V57.39H180.322V98.3452H163.059V0.817963H224.154V16.4347H180.322Z" fill="#1B516B"/>
<path d="M295.938 90.2783C290.598 95.7597 282.24 99.182 266.35 99.182C250.461 99.182 242.102 95.7597 236.762 90.2783C230.463 83.9789 228.272 72.1982 228.272 49.5957C228.272 26.9932 230.463 15.2125 236.762 8.91312C242.102 3.43174 250.461 0.00939941 266.35 0.00939941C282.24 0.00939941 290.598 3.43174 295.938 8.91312C302.238 15.2125 304.428 26.9932 304.428 49.5957C304.428 72.1982 302.238 83.9789 295.938 90.2783ZM282.785 20.9665C279.767 17.1305 275.254 15.0715 266.35 15.0715C257.446 15.0715 252.924 17.1305 249.915 20.9665C247.311 24.2572 246.22 29.0523 246.22 49.5957C246.22 70.1392 247.32 74.9342 249.915 78.2249C252.933 82.0609 257.446 84.12 266.35 84.12C275.254 84.12 279.776 82.0609 282.785 78.2249C285.389 74.9342 286.48 70.1392 286.48 49.5957C286.48 29.0523 285.389 24.2572 282.785 20.9665Z" fill="#1B516B"/>
<path d="M380.998 89.592C375.79 95.205 367.027 99.182 352.642 99.182C338.257 99.182 329.626 95.0733 324.285 89.592C317.986 83.1516 316.068 72.1982 316.068 49.5957C316.068 26.9932 318.259 15.3535 324.558 8.91312C329.898 3.43174 338.257 0.00939941 352.642 0.00939941C367.027 0.00939941 375.79 3.98646 380.998 9.59947C384.693 13.5765 386.894 17.1305 387.843 25.3573H370.177C367.986 17.9579 362.232 15.0809 352.642 15.0809C345.243 15.0809 340.72 17.1399 337.712 20.9759C335.107 24.2666 334.017 29.0617 334.017 49.6051C334.017 70.1486 335.117 74.9436 337.712 78.2343C340.73 82.0703 345.243 84.1294 352.642 84.1294C360.728 84.1294 370.59 79.8797 371.136 68.3716H388.257C387.712 80.6976 385.521 84.8063 380.998 89.6014V89.592Z" fill="#1B516B"/>
<path d="M461.95 89.5919C456.741 95.2049 447.979 99.182 433.593 99.182C419.208 99.182 410.446 95.2049 405.237 89.5919C399.897 83.8379 397.838 79.0429 397.838 60.2764V0.817963H415.1V66.5758C415.1 79.4565 421.399 84.1105 433.593 84.1105C445.788 84.1105 452.087 79.4565 452.087 66.5758V0.817963H469.349V60.267C469.349 79.0334 467.29 83.8285 461.95 89.5825V89.5919Z" fill="#1B516B"/>
<path d="M513.868 99.182C480.989 99.182 479.485 71.3708 479.485 68.3622H496.747C496.747 72.4708 498.392 83.5652 514.423 83.5652C525.385 83.5652 532.916 78.7702 532.916 68.0895C532.916 55.4908 522.64 55.8951 508.396 53.8454C495.384 51.9274 479.626 49.4641 479.626 28.3659C479.626 18.6348 482.644 0.00939941 514.968 0.00939941C533.462 0.00939941 538.257 4.39075 542.224 8.64046C546.474 13.1628 548.392 20.8349 548.392 25.3573H531.957C531.957 25.3573 532.098 21.5212 529.494 18.6442C527.435 16.4536 525.658 14.8082 513.877 14.8082C506.064 14.8082 503.328 15.9082 500.592 17.8262C497.574 20.0169 496.484 23.035 496.484 26.4573C496.484 36.32 506.619 36.32 518.127 37.8244C531.967 39.6014 549.774 42.8921 549.774 66.9989C549.774 86.8654 536.894 99.1914 513.887 99.1914L513.868 99.182Z" fill="#1B516B"/>
<path d="M53.6386 87.1192L36.3764 58.7439H30.1241V87.1192H17.6288V16.4818H47.0947C66.5381 16.4818 67.5348 32.6532 67.5348 37.6081C67.5348 42.2715 65.7484 56.8541 50.1786 58.537L68.428 87.1098H53.648L53.6386 87.1192ZM45.5058 27.7924H30.1335V47.4332H45.5058C50.5641 47.4332 55.1335 44.4528 55.1335 37.6081C55.1335 30.7634 51.3633 27.783 45.5058 27.783V27.7924Z" fill="#1B516B"/>
<path d="M80.9138 87.1192V16.4818H125.16V27.7924H93.4185V46.1452H116.529V57.4558H93.4185V75.8086H125.16V87.1192H80.9138Z" fill="#1B516B"/>
<path d="M108.123 2.43512V6.00789H139.112V39.6484H142.685V6.00789V5.08649V2.43512H108.123Z" fill="#1B516B"/>
<path d="M34.5619 2.43512V6.00789H3.57277V39.6484H0V6.00789V5.08649V2.43512H34.5619Z" fill="#1B516B"/>
<path d="M108.123 100V96.4272H139.112V62.7961H142.685V96.4272V97.358V100H108.123Z" fill="#1B516B"/>
<path d="M34.5619 100V96.4272H3.57277V62.7961H0V96.4272V97.358V100H34.5619Z" fill="#1B516B"/>
</g>
<defs>
<clipPath id="clip0_301_130">
<rect width="549.755" height="100" fill="white"/>
</clipPath>
</defs>
</svg>
