<svg viewBox="0 0 1087 733" fill="none" xmlns="http://www.w3.org/2000/svg">
<g clip-path="url(#clip0_101_57)">
<path d="M581.8 5.96C581.8 4.37 581.16 2.87 580.02 1.74C578.87 0.62 577.35 0 575.73 0H519.77C518.15 0 516.63 0.62 515.48 1.74C514.33 2.87 513.7 4.37 513.7 5.96V61.02C513.7 62.61 514.33 64.11 515.48 65.23C516.63 66.36 518.14 66.98 519.77 66.98H575.73C577.35 66.98 578.87 66.36 580.02 65.23C581.16 64.11 581.8 62.61 581.8 61.02M580.34 60.74C580.34 63.39 578.15 65.55 575.46 65.55H520.06C517.37 65.55 515.18 63.39 515.18 60.74V6.24C515.18 3.59 517.37 1.43 520.06 1.43H575.46C578.15 1.43 580.34 3.59 580.34 6.24V60.74Z" fill="#EDF2C9"/>
<path d="M575.46 3.98H520.05C518.79 3.98 517.75 4.99 517.75 6.24V22.32L536.94 18C540.06 17.3 540.61 18.4 538.19 20.44L525.23 29.68C523.07 31.28 519.98 31.28 517.76 29.85V35.96C525.84 32.81 532.64 27.06 539.53 21.35C540.4 20.63 541.28 19.9 542.16 19.19C546.67 15.51 551.29 12 556.39 9.4C573.08 0.89 563.03 15.79 556.53 28.27C550.1 40.61 574.37 25.75 574.91 25.42C574.75 25.58 571.08 29.13 561.17 36.18C556.9 39.22 551.46 42.91 544.64 47.26C521.6 61.95 533.87 42.92 544.14 25.69C550.96 14.24 546.57 16.93 542.85 20.02C540.97 21.58 539.26 23.25 539.26 23.25L531.11 30.12C531.11 30.12 525.13 34.96 517.75 39.59V60.73C517.75 61.98 518.78 63 520.05 63H548.48L543.3 57.51C541.13 55.21 541.06 52.33 543.16 51.11L545.71 49.35C555.34 42.68 562.38 37.6 562.38 37.6C562.5 37.52 562.6 37.44 562.71 37.37C565.07 35.82 566.25 36.8 565.35 39.68L558.05 62.99H575.45C576.71 62.99 577.75 61.97 577.75 60.72V6.23C577.75 4.98 576.72 3.97 575.45 3.97L575.46 3.98ZM574.7 12.83L572.13 21.03C571.21 23.97 568.1 27.36 565.21 28.55C565.21 28.55 556.69 32.08 560.53 24.72C563.46 19.11 565.94 14.26 565.94 14.26C567.35 11.51 570.27 8.86 572.44 8.38C574.6 7.89 575.62 9.9 574.7 12.84V12.83Z" fill="#EDF2C9"/>
<path d="M539.02 213.54V230.24H496.39V220.49C503.41 215.55 510.3 210.42 517.05 205.22C519.85 203.08 520.88 201.19 520.88 198.47C520.88 195.93 519.12 194.24 516.07 194.24C513.21 194.24 510.28 195.73 510.28 199.37C510.28 201.45 511.26 203.4 512.1 204.9L498.91 208.02C497.48 206 496.05 202.56 496.05 198.73C496.05 188.4 507.1 183.78 517.3 183.78C529.52 183.78 537.7 188.52 537.7 196.32C537.7 204.9 529.77 209.45 520.67 215.23L514.04 219.46H526.13V213.54H539H539.02Z" fill="#EDF2C9"/>
<path d="M566.61 231.22C553.94 231.22 542.76 222.58 542.76 207.63C542.76 192.68 553.68 183.85 566.67 183.85C579.66 183.85 590.91 193.01 590.91 207.63C590.91 222.25 579.47 231.22 566.61 231.22ZM566.68 194.31C563.43 194.31 559.6 196.71 559.6 207.57C559.6 218.43 563.5 220.76 566.62 220.76C570.13 220.76 574.09 218.55 574.09 207.64C574.09 196.73 570.06 194.32 566.68 194.32V194.31Z" fill="#EDF2C9"/>
<path d="M541.58 561.51V578.21H498.95V568.46C505.97 563.52 512.86 558.39 519.61 553.19C522.41 551.05 523.44 549.16 523.44 546.44C523.44 543.9 521.68 542.21 518.63 542.21C515.77 542.21 512.84 543.7 512.84 547.34C512.84 549.42 513.82 551.37 514.66 552.87L501.47 555.99C500.04 553.97 498.61 550.53 498.61 546.7C498.61 536.37 509.66 531.75 519.86 531.75C532.08 531.75 540.26 536.49 540.26 544.29C540.26 552.87 532.33 557.42 523.23 563.2L516.6 567.43H528.69V561.51H541.56H541.58Z" fill="#EDF2C9"/>
<path d="M565.34 579.06C553.51 579.06 545.45 574.25 545.45 566.19C545.45 563.85 546.17 561.25 547.14 559.56L559.42 562.36C559.16 563.14 559.1 563.92 559.1 564.57C559.1 567.17 561.44 568.6 565.34 568.6C569.24 568.6 571.64 567.36 571.64 564.57C571.64 561.13 568.72 559.44 565.08 559.44H560.99V549.5H564.24C568.59 549.5 570.74 547.74 570.74 545.79C570.74 543.19 568.66 542.15 565.41 542.15C561.84 542.15 559.37 543.19 559.37 545.98C559.37 546.56 559.5 547.22 559.7 547.93L546.83 549.42C546.18 548.45 545.53 546.82 545.53 543.83C545.53 536.36 556.06 531.74 565.74 531.74C576.27 531.74 587.51 535.7 587.51 544.47C587.51 549.41 584.65 552.14 580.17 553.63V553.76C584.2 554.8 588.36 558.24 588.36 563.84C588.36 573.58 579.13 579.04 565.36 579.04L565.34 579.06Z" fill="#EDF2C9"/>
<path d="M501.26 41.2C396.45 54.75 306.63 116.62 254.78 203.66H268.7C318.96 123.31 403.25 66.35 501.26 53.2V41.19V41.2Z" fill="#EE3524"/>
<path d="M591.33 41.62V53.68C687.97 67.62 770.98 124.19 820.7 203.66H834.62C783.3 117.51 694.78 56 591.33 41.62Z" fill="#EE3524"/>
<path d="M705.85 221.68C666.13 177.52 608.63 149.65 544.7 149.65C480.77 149.65 423.26 177.52 383.54 221.68L101.78 233.05L387.83 234.85L400.45 221.18C437.51 184.38 488.48 161.57 544.71 161.57C600.94 161.57 653.48 185.09 690.67 222.89L701.71 234.85L987.76 233.05L705.87 221.67L705.85 221.68Z" fill="#EE3524"/>
<path d="M268.7 567.31C326.25 659.31 428.41 720.66 544.7 720.66C660.99 720.66 763.14 659.3 820.7 567.31H834.62C775.74 666.16 667.88 732.59 544.7 732.59C421.52 732.59 313.66 666.16 254.78 567.31H268.7Z" fill="#EE3524"/>
<path d="M707.73 537.92C707.73 537.92 707.75 537.89 707.76 537.88H691.57C654.31 576.23 602.26 600.12 544.69 600.12C487.12 600.12 435.07 576.23 397.81 537.88H381.62C381.62 537.88 381.64 537.91 381.65 537.92L101.76 539.68L394.64 551.5C433.62 588.95 486.49 612.04 544.68 612.04C602.87 612.04 655.74 588.95 694.72 551.51L987.73 539.69L707.72 537.93L707.73 537.92Z" fill="#EE3524"/>
<path d="M441.91 106.19L452.75 102.79C461.49 100.05 469.41 104.16 471.91 112.08C474.38 119.92 470.26 127.89 461.52 130.64L450.68 134.04L441.91 106.19ZM459.78 125.11C464.78 123.54 467.09 119.1 465.52 114.09C463.97 109.16 459.5 106.75 454.5 108.32L449.77 109.8L455.06 126.59L459.78 125.11Z" fill="#F29320"/>
<path d="M489.85 93.25L495.67 92.24L513 119.11L506.4 120.25L502.65 114.24L490.52 116.34L489.02 123.25L482.58 124.36L489.84 93.25H489.85ZM499.44 109.05L494.01 100.37L491.82 110.36L499.44 109.05Z" fill="#F29320"/>
<path d="M521.45 89.23L527.85 88.94L528.92 112.29L543.42 111.62L543.69 117.45L522.79 118.41L521.45 89.22V89.23Z" fill="#F29320"/>
<path d="M555.94 88.58L562.34 89.01L560.75 112.32L575.25 113.31L574.85 119.14L553.95 117.72L555.93 88.58H555.94Z" fill="#F29320"/>
<path d="M600.45 93.44L606.25 94.59L612.81 125.85L606.23 124.55L604.88 117.61L592.79 115.22L588.91 121.13L582.5 119.87L600.44 93.45L600.45 93.44ZM603.74 111.61L601.77 101.57L596.14 110.1L603.74 111.6V111.61Z" fill="#F29320"/>
<path d="M621.24 123.92L626.28 120.8C628.08 123.69 630.25 125.86 633.41 126.92C635.9 127.75 637.73 127.26 638.3 125.56C638.82 124.02 638.13 122.91 633.91 120.18C628.82 116.9 625.74 114.16 627.61 108.58C629.29 103.55 634.43 101.57 640.08 103.46C644.11 104.8 647.12 107.21 649.17 110.4L644.47 113.93C642.59 111.42 640.52 109.58 638.2 108.81C635.87 108.03 634.29 108.69 633.81 110.11C633.2 111.93 634.19 112.92 638.56 115.74C643.68 119.07 646.16 122.15 644.52 127.05C642.68 132.55 637.46 134.24 631.5 132.25C627.31 130.85 623.58 127.98 621.25 123.91L621.24 123.92Z" fill="#F29320"/>
<path d="M455.85 639.98L446.62 636.61L448.88 630.43L474.01 639.63L471.75 645.81L462.52 642.43L453.63 666.72L446.96 664.28L455.85 639.98Z" fill="#F29320"/>
<path d="M490.73 644.04L514.65 648.52L513.48 654.76L496.49 651.58L495.27 658.05L510.22 660.85L509.05 667.09L494.1 664.29L492.84 670.99L510.05 674.22L508.88 680.47L484.73 675.94L490.73 644.03V644.04Z" fill="#F29320"/>
<path d="M541.39 666.44L530.88 650.31L539.17 650.45L545.77 661.09L552.77 650.68L560.83 650.82L549.78 666.49L560.75 683.27L552.46 683.13L545.41 671.88L537.94 682.88L529.88 682.74L541.4 666.43L541.39 666.44Z" fill="#F29320"/>
<path d="M588.25 647.49L594.71 646.43L613.61 676.49L606.28 677.69L602.2 670.98L588.73 673.18L586.98 680.85L579.83 682.02L588.24 647.5L588.25 647.49ZM598.69 665.16L592.77 655.45L590.22 666.54L598.68 665.16H598.69Z" fill="#F29320"/>
<path d="M631.04 666.87L633.34 660.72C636.87 662.04 640.25 662.49 643.73 661.28C646.47 660.32 647.75 658.65 647.09 656.77C646.5 655.06 645.15 654.55 639.6 655.01C632.92 655.57 628.36 655.24 626.21 649.06C624.28 643.49 627.44 638.27 633.66 636.1C638.1 634.56 642.38 634.64 646.33 636.06L644.61 642.36C641.26 641.41 638.2 641.2 635.64 642.09C633.07 642.98 632.13 644.64 632.68 646.21C633.38 648.23 634.92 648.43 640.65 647.95C647.4 647.42 651.65 648.44 653.54 653.88C655.66 659.97 652.23 664.99 645.66 667.28C641.05 668.89 635.83 668.89 631.03 666.87H631.04Z" fill="#F29320"/>
<path d="M370.62 128.24L383.1 135.26L395.96 128.97L393.13 143.01L403.09 153.29L388.87 154.94L382.17 167.59L376.2 154.57L362.1 152.11L372.64 142.41L370.62 128.24Z" fill="#EDF2C9"/>
<path d="M701 129.97L713.47 137L726.33 130.71L723.51 144.74L733.47 155.03L719.25 156.68L712.54 169.33L706.58 156.31L692.47 153.84L703.01 144.15L701 129.97Z" fill="#EDF2C9"/>
<path d="M369.65 592.37L382.13 599.39L394.99 593.1L392.16 607.13L402.12 617.42L387.9 619.07L381.2 631.72L375.23 618.7L361.13 616.24L371.67 606.54L369.65 592.37Z" fill="#EDF2C9"/>
<path d="M701 592.37L713.47 599.39L726.33 593.1L723.51 607.13L733.47 617.42L719.25 619.07L712.54 631.72L706.58 618.7L692.47 616.24L703.01 606.54L701 592.37Z" fill="#EDF2C9"/>
<path d="M278.87 326.25C217.92 325.43 176.36 316.64 176.36 316.64L276.35 317.92C276.35 317.92 273.91 312.85 274.13 293.77C274.27 281.82 278.83 275.42 278.83 275.42C278.83 275.42 247.8 276.28 231.66 276.28C215.52 276.28 88.26 274.39 67.03 266.83L48.25 260.21C48.25 260.21 49.83 266.83 69.66 276.28C69.66 276.28 43.16 275.71 24.38 245.85C5.59999 215.99 8.40999 194.25 8.40999 194.25C8.40999 194.25 -1.42001 212.4 1.03999 244.15C3.49999 275.9 21.57 313.52 87.2 324.67C130.89 332.09 235.99 336.03 278.79 336.56L278.86 326.25H278.87Z" fill="#EDF2C9"/>
<path d="M1078.54 194.25C1078.54 194.25 1081.35 215.99 1062.57 245.85C1043.79 275.71 1017.29 276.28 1017.29 276.28C1037.12 266.83 1038.7 260.21 1038.7 260.21L1019.92 266.83C998.69 274.39 871.44 276.28 855.29 276.28C839.14 276.28 806.93 275.41 806.93 275.41C806.93 275.41 812.07 278.22 812.1 292.8C812.15 311.88 811.67 317.94 811.67 317.94L915.68 317.31C915.68 317.31 872.55 325.42 811.6 326.25L811.67 336.56C854.47 336.03 956.05 332.09 999.75 324.67C1065.38 313.52 1083.46 275.9 1085.91 244.15C1088.37 212.4 1078.54 194.25 1078.54 194.25Z" fill="#EDF2C9"/>
<path d="M364.62 357.17H384.05L386.6 378.48H408.04L391.83 275.84C391.43 273.56 388.88 271.29 386.07 271.29H362.49C359.68 271.29 357.13 273.7 356.73 275.84L340.65 378.48H362.09L364.64 357.17H364.62ZM367.48 333.15L372.12 295C372.26 293.26 372.66 292.72 373.19 292.72H375.47C376.14 292.72 376.41 293.25 376.54 295L381.5 335.74H357.31L367.48 333.15Z" fill="#F29320"/>
<path d="M458.83 357.04L421.81 357.03L434.58 353.78V271.28H413.41V378.47H458.83V357.04Z" fill="#F29320"/>
<path d="M464.87 378.47H510.7V357.04H486.31V334.12H507.08V312.68H486.31V295.78L474.25 292.72H510.7V271.28H464.87V378.47Z" fill="#F29320"/>
<path d="M623.96 357.17H643.39L645.94 378.48H667.38L651.17 275.84C650.77 273.56 648.22 271.29 645.41 271.29H621.83C619.02 271.29 616.47 273.7 616.07 275.84L599.99 378.48H621.43L623.98 357.17H623.96ZM626.92 332.31L631.46 295C631.6 293.26 632 292.72 632.53 292.72H634.81C635.48 292.72 635.75 293.25 635.88 295L640.84 335.74H613.45L626.93 332.31H626.92Z" fill="#F29320"/>
<path d="M738.67 378.47V271.28H717.23L718.71 357.04H717.1L709.06 271.28H673.55V378.47H694.99L693.65 292.72H695.12L703.43 378.47H738.67Z" fill="#F29320"/>
<path d="M781.3 271.28H746.73V378.47H781.3C792.02 378.47 800.59 369.89 800.59 359.18V289.77C800.59 279.05 792.01 271.28 781.3 271.28ZM779.15 357.57C779.15 358.91 778.61 359.45 777.27 359.45H754.61L768.16 356.01V290.32H777.27C778.61 290.32 779.15 290.85 779.15 292.33V357.59V357.57Z" fill="#F29320"/>
<path d="M338.21 360.52V350.2C338.21 332.51 332.98 319.92 322.67 313.75C313.02 308.25 306.86 305.58 306.86 297.13V292.65L294.51 289.51L314.23 289.49C316.24 289.49 317.04 291.5 317.04 296.72V302.54H338.48V296.72C338.48 281.85 329.9 270.46 319.19 270.46H304.72C294 270.46 285.42 279.04 285.42 289.75V297.12C285.42 308.91 289.71 319.63 299.62 325.26C310.34 331.56 316.77 335.72 316.77 350.18V358.89C316.77 360.23 316.23 360.77 314.89 360.77H294.5L306.71 357.66V340.67H285.27V360.5C285.27 371.22 293.85 379.79 304.57 379.79H318.91C329.63 379.79 338.21 371.21 338.21 360.5V360.52Z" fill="#F29320"/>
<path d="M550.91 270.47H536.44C525.72 270.47 517.14 279.05 517.14 289.76V297.13C517.14 308.92 521.43 319.64 531.34 325.27C542.06 331.57 548.49 335.73 548.49 350.19V358.9C548.49 360.24 547.95 360.78 546.61 360.78H526.22L538.43 357.67V340.68H516.99V360.51C516.99 371.23 525.57 379.8 536.29 379.8H550.63C561.35 379.8 569.93 371.22 569.93 360.51V350.19C569.93 332.5 564.7 319.91 554.39 313.74C544.74 308.24 538.58 305.57 538.58 297.12V292.64L526.23 289.5L545.95 289.48C547.96 289.48 548.76 291.49 548.76 296.71V302.53H570.2V296.71C570.2 281.84 561.62 270.45 550.91 270.45V270.47Z" fill="#F29320"/>
<path d="M281.24 482.18H279.68L271.84 398.6H237.23V503.07H258.13L256.82 419.49H258.26L266.36 503.07H300.7V398.6H279.81L281.24 482.18Z" fill="#F29320"/>
<path d="M307.5 503.07H352.17V482.18H328.4V459.85H348.64V438.95H328.4V422.51L316.57 419.5L352.17 419.49V398.6H307.5V503.07Z" fill="#F29320"/>
<path d="M356.75 419.49H373.99V503.07H394.88V421.92L385.36 419.5L411.99 419.49V398.6H356.75V419.49Z" fill="#F29320"/>
<path d="M485.13 484C485.13 485.3 484.61 485.83 483.3 485.83H479.12C473.64 485.83 471.42 479.82 471.42 473.29V398.59H450.52V473.29C450.52 479.82 448.43 485.83 442.81 485.83H442.23L425.42 485.86L436.67 482.57V398.59H415.77V485.56C415.77 496.01 424.13 504.36 434.57 504.36H442.8C451.68 504.36 458.73 498.62 460.95 490.65C463.3 498.62 470.35 504.36 479.1 504.36H487.2C497.65 504.36 506 496 506 485.56V398.59H485.1V484H485.13Z" fill="#F29320"/>
<path d="M547.31 397.81H532.55C522.1 397.81 513.75 406.17 513.75 416.61V485.56C513.75 496.01 522.11 504.36 532.55 504.36H547.31C557.76 504.36 566.11 496 566.11 485.56V416.61C566.11 406.16 557.75 397.81 547.31 397.81ZM545.22 484C545.22 485.3 544.7 485.83 543.39 485.83H543.04L526.23 485.86L534.63 483.4V418.81L526.23 416.35H543.38C544.69 416.35 545.21 416.87 545.21 418.18V484H545.22Z" fill="#F29320"/>
<path d="M616.66 448.48C622.54 445.87 626.72 439.86 626.72 433.07V414.27C626.72 405.65 619.67 398.6 611.05 398.6H574.48V503.07H595.38V462.5L584.66 458.98L604.52 458.93C605.56 459.85 606.74 461.67 606.74 465.33V503.07H627.64V464.15C627.64 456.97 623.07 450.83 616.67 448.48H616.66ZM605.69 433.33C605.69 436.33 605.04 437.64 603.6 438.03H584.66L595.38 434.51V416.75H604.65C605.43 416.75 605.69 417.27 605.69 418.58V433.34V433.33Z" fill="#F29320"/>
<path d="M695.03 398.6H672.96L660.16 435.03H660.11L660.16 435.08H645.36L656.24 431.51V398.6H635.6V503.07H656.24V459.37L645.36 455.79H659.99V455.8H660.16L672.96 503.07H695.03L675.18 446V444.83L695.03 398.6Z" fill="#F29320"/>
<path d="M721.29 398.6H700.39V503.07H721.29V398.6Z" fill="#F29320"/>
<path d="M775.09 482.18H773.53L765.69 398.6H731.08V503.07H751.98L750.67 419.49H752.11L760.2 503.07H794.55V398.6H773.66L775.09 482.18Z" fill="#F29320"/>
<path d="M835.96 397.81H821.72C811.27 397.81 802.92 406.17 802.92 416.61V485.56C802.92 496.01 811.28 504.36 821.72 504.36H835.96C846.41 504.36 854.77 496 854.77 485.56V444.68H827.87V465.57H833.88V483.99C833.88 485.29 833.36 485.82 832.05 485.82H825.65C824.35 485.82 823.82 485.29 823.82 483.99V419.18L812.85 416.39L832.05 416.34C833.36 416.34 833.88 416.86 833.88 418.17V433.06H854.78V416.61C854.78 406.16 846.42 397.81 835.97 397.81H835.96Z" fill="#F29320"/>
</g>
<defs>
<clipPath id="clip0_101_57">
<rect width="1085.65" height="732.59" fill="white" transform="translate(0.650024)"/>
</clipPath>
</defs>
</svg>
