<svg viewBox="0 0 268 100" fill="none" xmlns="http://www.w3.org/2000/svg">
<g clip-path="url(#clip0_410_184)">
<path d="M12.7884 46.8711L4.58119 32.8676V46.8711H1.0657V26.0576H4.71766L12.9378 40.0611V26.0576H16.4338V46.8711H12.7819H12.7884Z" fill="#CFD8D8"/>
<path d="M23.1074 46.8711V26.0576H36.1427V29.3846H26.7919V34.8106H33.6019V38.1376H26.7919V43.5506H36.1427V46.8776H23.1074V46.8711Z" fill="#CFD8D8"/>
<path d="M56.3519 46.8711L52.7845 35.038L49.1 46.8711H45.5L40.0871 26.0576H43.986L47.5534 41.1203L51.0494 29.3261H54.5325L57.957 41.2307L61.7844 26.0576H65.6703L59.9454 46.8711H56.3454H56.3519Z" fill="#CFD8D8"/>
<path d="M87.608 46.8711L82.5265 38.508H80.6875V46.8711H77.0031V26.0576H85.6846C86.6398 26.0576 87.4456 26.1745 88.1214 26.415C88.7907 26.6554 89.3495 26.9608 89.7979 27.3442C90.2463 27.7276 90.5972 28.15 90.8571 28.6243C91.117 29.0922 91.3055 29.5601 91.4289 30.0214C91.5524 30.4828 91.6304 30.9182 91.6629 31.3211C91.6954 31.7239 91.7149 32.0489 91.7149 32.2828C91.7149 32.5167 91.6954 32.8091 91.6564 33.1795C91.6174 33.5499 91.5329 33.9528 91.4094 34.3817C91.286 34.8106 91.104 35.2459 90.8766 35.6943C90.6492 36.1427 90.3437 36.5586 89.9669 36.9355C89.59 37.3188 89.1286 37.6438 88.5763 37.9167C88.0239 38.1896 87.3676 38.365 86.6073 38.4495L91.9878 46.8711H87.621H87.608ZM85.2232 35.181C85.5936 35.181 85.951 35.1225 86.2954 35.012C86.6398 34.895 86.9387 34.7261 87.1921 34.4922C87.4456 34.2582 87.6535 33.9593 87.816 33.5954C87.9719 33.2315 88.0499 32.7961 88.0499 32.2893C88.0499 31.2821 87.79 30.5478 87.2766 30.0864C86.7633 29.625 86.0745 29.3911 85.2232 29.3911H80.681V35.1875H85.2232V35.181Z" fill="#CFD8D8"/>
<path d="M96.9719 46.8711V26.0576H110.007V29.3846H100.656V34.8106H107.466V38.1376H100.656V43.5506H110.007V46.8776H96.9719V46.8711Z" fill="#CFD8D8"/>
<path d="M120.066 46.8711V29.3846H114.601V26.0576H129.222V29.3846H123.757V46.8711H120.073H120.066Z" fill="#CFD8D8"/>
<path d="M134.843 46.8711V26.0576H138.527V46.8711H134.843Z" fill="#CFD8D8"/>
<path d="M156.092 46.8711L151.01 38.508H149.171V46.8711H145.487V26.0576H154.169C155.117 26.0576 155.93 26.1745 156.605 26.415C157.275 26.6554 157.834 26.9608 158.282 27.3442C158.73 27.7276 159.081 28.15 159.341 28.6243C159.601 29.0922 159.789 29.5601 159.913 30.0214C160.036 30.4828 160.114 30.9182 160.147 31.3211C160.179 31.7239 160.199 32.0489 160.199 32.2828C160.199 32.5167 160.179 32.8091 160.14 33.1795C160.101 33.5499 160.017 33.9528 159.893 34.3817C159.77 34.8106 159.588 35.2459 159.361 35.6943C159.133 36.1427 158.828 36.5586 158.451 36.9355C158.074 37.3188 157.613 37.6438 157.06 37.9167C156.508 38.1896 155.852 38.365 155.091 38.4495L160.472 46.8711H156.105H156.092ZM153.707 35.181C154.078 35.181 154.435 35.1225 154.779 35.012C155.124 34.895 155.423 34.7261 155.676 34.4922C155.93 34.2582 156.137 33.9593 156.3 33.5954C156.456 33.2315 156.534 32.7961 156.534 32.2893C156.534 31.2821 156.274 30.5478 155.761 30.0864C155.247 29.625 154.558 29.3911 153.707 29.3911H149.165V35.1875H153.707V35.181Z" fill="#CFD8D8"/>
<path d="M166.626 46.8711V26.0576H179.661V29.3846H170.31V34.8106H177.12V38.1376H170.31V43.5506H179.661V46.8776H166.626V46.8711Z" fill="#CFD8D8"/>
<path d="M201.43 46.8711V32.8351L196.718 42.5694H194.119L189.408 32.8351V46.8711H185.899V26.0576H189.824L195.432 37.7217L201.014 26.0576H204.926V46.8711H201.43Z" fill="#CFD8D8"/>
<path d="M212.178 46.8711V26.0576H225.213V29.3846H215.862V34.8106H222.672V38.1376H215.862V43.5506H225.213V46.8776H212.178V46.8711Z" fill="#CFD8D8"/>
<path d="M243.161 46.8711L234.954 32.8676V46.8711H231.445V26.0576H235.096L243.317 40.0611V26.0576H246.813V46.8711H243.161Z" fill="#CFD8D8"/>
<path d="M257.892 46.8711V29.3846H252.427V26.0576H267.048V29.3846H261.583V46.8711H257.899H257.892Z" fill="#CFD8D8"/>
<path d="M23.8677 100L12.9183 81.9741H8.94795V100H1.01371V55.1562H19.7154C21.7623 55.1562 23.5103 55.4097 24.9594 55.923C26.402 56.4364 27.6106 57.0992 28.5724 57.9245C29.5341 58.7432 30.2944 59.6595 30.8467 60.6797C31.399 61.6934 31.8084 62.7006 32.0749 63.6948C32.3413 64.689 32.5102 65.6248 32.5817 66.4955C32.6532 67.3663 32.6922 68.0616 32.6922 68.5749C32.6922 69.0883 32.6532 69.7121 32.5687 70.5114C32.4842 71.3106 32.3088 72.1749 32.0294 73.0976C31.7499 74.0204 31.3666 74.9626 30.8727 75.9308C30.3788 76.8991 29.729 77.7893 28.9168 78.6081C28.1045 79.4268 27.1038 80.1286 25.9211 80.7135C24.7319 81.2983 23.3154 81.6817 21.6778 81.8701L33.2705 100.019H23.8612L23.8677 100ZM18.7342 74.8067C19.5334 74.8067 20.3002 74.6832 21.041 74.4363C21.7818 74.1893 22.4251 73.8124 22.9774 73.3121C23.5298 72.8117 23.9782 72.1619 24.3161 71.3756C24.654 70.5894 24.8229 69.6471 24.8229 68.5619C24.8229 66.3916 24.2706 64.806 23.1594 63.8118C22.0547 62.8176 20.5731 62.3172 18.7277 62.3172H8.94795V74.8067H18.7277H18.7342Z" fill="#CFD8D8"/>
<path d="M45.2986 100V55.1562H73.3771V62.3237H53.2328V74.0139H67.9056V81.1813H53.2328V92.839H73.3771V100.006H45.2986V100Z" fill="#CFD8D8"/>
<path d="M112.191 100L109.117 89.6679H93.1834L90.1098 100H81.6492L96.1986 55.1562H106.102L120.651 100H112.191ZM101.183 63.214L95.3993 82.5005H106.901L101.183 63.214Z" fill="#CFD8D8"/>
<path d="M131.1 100V55.1562H139.034V92.8325H156.937V100H131.1Z" fill="#CFD8D8"/>
<path d="M167.691 100V55.1562H175.625V100H167.691Z" fill="#CFD8D8"/>
<path d="M197.615 100V62.3237H185.834V55.1562H217.331V62.3237H205.549V100H197.615Z" fill="#CFD8D8"/>
<path d="M239.957 100V81.6687L225.408 55.1562H234.479L243.921 73.429L253.363 55.1562H262.434L247.885 81.6687V100H239.951H239.957Z" fill="#CFD8D8"/>
<path d="M4.66567 17.7529V2.83969H0V0H12.4699V2.83969H7.80428V17.7529H4.66567Z" fill="#CFD8D8"/>
<path d="M26.7334 17.7529V10.2996H19.9038V17.7529H16.7652V0H19.9038V7.46637H26.7334V0H29.872V17.7529H26.7334Z" fill="#CFD8D8"/>
<path d="M35.5579 17.7529V0H46.6762V2.83969H38.703V7.46637H44.5123V10.3061H38.703V14.9197H46.6762V17.7594H35.5579V17.7529Z" fill="#CFD8D8"/>
</g>
<defs>
<clipPath id="clip0_410_184">
<rect width="267.041" height="100" fill="white"/>
</clipPath>
</defs>
</svg>
